<svg width="73" height="16" viewBox="0 0 73 16" fill="none" xmlns="http://www.w3.org/2000/svg">
<g clip-path="url(#clip0_2680_12352)">
<path d="M18.6179 3.44858C12.1854 2.32577 6.95158 4.81199 1.91748 8.06011C3.87519 5.17289 9.7483 1.00246 12.9845 0.20046C15.7812 -0.481245 17.5392 0.481162 18.6179 3.44858Z" fill="url(#paint0_linear_2680_12352)"/>
<path d="M18.4183 6.85714C18.1786 8.66165 17.6992 9.38346 15.7814 8.90226C11.5863 7.77945 7.35129 8.18045 3.19616 9.38346C2.55691 9.58396 1.95761 9.74436 1.31836 9.78446C6.63213 6.77694 12.1457 4.85213 18.4183 6.85714Z" fill="url(#paint1_linear_2680_12352)"/>
<path d="M0.519084 7.41853C-0.240026 5.13281 -0.279979 3.1278 1.31815 1.44359C2.75646 -0.0802192 5.1137 -0.320821 7.47094 0.761886C5.19361 2.9674 2.95623 5.13281 0.519084 7.41853Z" fill="url(#paint2_linear_2680_12352)"/>
<path d="M15.1421 11.8697C14.383 13.3534 13.6239 13.3935 12.2255 12.9524C8.9094 11.9098 5.47342 11.2682 2.87646 10.6667C6.39234 10.0652 10.7472 10.1454 15.1421 11.8697Z" fill="url(#paint3_linear_2680_12352)"/>
<path d="M4.55469 12.1904C6.75211 13.1127 8.90958 14.0751 11.2269 15.0375C9.26916 16.9624 6.99183 16 4.55469 12.1904Z" fill="url(#paint4_linear_2680_12352)"/>
</g>
<path d="M23.2725 5.88268L24.2633 0.821412H25.1958L26.3396 3.80756L27.4834 0.821412H28.4159L29.4067 5.88268H28.292L27.7602 3.14959L26.7184 5.88268H25.9607L24.9189 3.14959L24.3871 5.88268H23.2725Z" fill="url(#paint5_linear_2680_12352)"/>
<path d="M32.929 0.821412H34.2185L32.4482 3.60511V5.88268H31.3554V3.60511L29.585 0.821412H30.8745L31.9018 2.42656L32.929 0.821412Z" fill="url(#paint6_linear_2680_12352)"/>
<path d="M36.6264 5.88268V0.821412H38.5498C38.829 0.821412 39.0816 0.892511 39.3074 1.03471C39.5357 1.1745 39.7166 1.36249 39.8502 1.59868C39.9837 1.83246 40.0505 2.08914 40.0505 2.36871C40.0505 2.65311 39.9813 2.9122 39.8429 3.14598C39.7069 3.37976 39.5248 3.56655 39.2965 3.70633C39.0682 3.84612 38.8193 3.91601 38.5498 3.91601H37.7192V5.88268H36.6264ZM37.7192 2.83146H38.4259C38.523 2.83146 38.6117 2.80736 38.6918 2.75915C38.772 2.70854 38.8363 2.64226 38.8849 2.56032C38.9334 2.47837 38.9577 2.38799 38.9577 2.28918C38.9577 2.19036 38.9334 2.09998 38.8849 2.01804C38.8363 1.9361 38.772 1.87102 38.6918 1.82282C38.6117 1.77221 38.523 1.7469 38.4259 1.7469H37.7192V2.83146Z" fill="url(#paint7_linear_2680_12352)"/>
<path d="M40.6746 5.88268V0.821412H43.9238V1.90597H41.7674V2.62901H43.4284V3.71356H41.7674V4.79812H43.9238V5.88268H40.6746Z" fill="url(#paint8_linear_2680_12352)"/>
<path d="M44.7228 5.88268V0.821412H46.7991C47.0784 0.821412 47.3309 0.891306 47.5568 1.03109C47.7826 1.17088 47.9611 1.35887 48.0922 1.59506C48.2258 1.82884 48.2926 2.08673 48.2926 2.36871C48.2926 2.58562 48.2561 2.78807 48.1833 2.97606C48.1104 3.16164 48.006 3.32674 47.87 3.47135C47.7365 3.61354 47.5786 3.72802 47.3965 3.81479L48.6058 5.88268H47.3455L46.1944 3.91601H45.8156V5.88268H44.7228ZM45.8156 2.83146H46.6679C46.7651 2.83146 46.8537 2.80736 46.9339 2.75915C47.014 2.70854 47.0784 2.64226 47.1269 2.56032C47.1755 2.47837 47.1998 2.38799 47.1998 2.28918C47.1998 2.19036 47.1755 2.09998 47.1269 2.01804C47.0784 1.9361 47.014 1.87102 46.9339 1.82282C46.8537 1.77221 46.7651 1.7469 46.6679 1.7469H45.8156V2.83146Z" fill="url(#paint9_linear_2680_12352)"/>
<path d="M51.1198 5.97667C50.8332 5.97667 50.5588 5.93208 50.2965 5.84291C50.0343 5.75132 49.8048 5.62118 49.6081 5.45247C49.4114 5.28135 49.2693 5.07769 49.1819 4.8415L50.2091 4.46552C50.2334 4.53542 50.2868 4.6029 50.3694 4.66797C50.4544 4.73305 50.5612 4.78727 50.6899 4.83066C50.8186 4.87163 50.9619 4.89211 51.1198 4.89211C51.2655 4.89211 51.4027 4.87163 51.5314 4.83066C51.6601 4.78727 51.7645 4.72823 51.8447 4.65351C51.9248 4.5788 51.9649 4.49203 51.9649 4.39322C51.9649 4.29199 51.9224 4.20884 51.8374 4.14377C51.7548 4.07629 51.648 4.02326 51.5168 3.9847C51.3881 3.94373 51.2558 3.9136 51.1198 3.89432C50.7506 3.8413 50.4192 3.75454 50.1253 3.63403C49.8339 3.51111 49.6032 3.3424 49.4332 3.1279C49.2657 2.9134 49.1819 2.64106 49.1819 2.31087C49.1819 1.99514 49.2717 1.71918 49.4514 1.48299C49.6311 1.24439 49.8679 1.05881 50.1618 0.926253C50.458 0.793696 50.7774 0.727417 51.1198 0.727417C51.4063 0.727417 51.6807 0.77321 51.943 0.864795C52.2077 0.953969 52.4384 1.08412 52.6351 1.25523C52.8318 1.42635 52.9727 1.63121 53.0577 1.86982L52.0304 2.23857C52.0061 2.16867 51.9515 2.10239 51.8665 2.03973C51.7839 1.97466 51.6783 1.92163 51.5496 1.88066C51.4209 1.83969 51.2776 1.8192 51.1198 1.8192C50.9789 1.81679 50.8441 1.83728 50.7154 1.88066C50.5867 1.92404 50.4811 1.98309 50.3985 2.05781C50.316 2.13252 50.2747 2.21687 50.2747 2.31087C50.2747 2.44102 50.3135 2.53863 50.3912 2.6037C50.4689 2.66636 50.5709 2.71095 50.6972 2.73746C50.8259 2.76397 50.9668 2.78808 51.1198 2.80977C51.4695 2.86038 51.7912 2.95076 52.0851 3.08091C52.3789 3.21105 52.6145 3.38458 52.7917 3.60149C52.969 3.8184 53.0577 4.08231 53.0577 4.39322C53.0577 4.70895 52.9678 4.98611 52.7881 5.22471C52.6108 5.4609 52.3753 5.64528 52.0814 5.77784C51.7876 5.91039 51.467 5.97667 51.1198 5.97667Z" fill="url(#paint10_linear_2680_12352)"/>
<path d="M56.1188 5.97667C55.774 5.97667 55.4498 5.90919 55.1463 5.77422C54.8427 5.63684 54.5756 5.44765 54.3449 5.20664C54.1142 4.96562 53.9333 4.68725 53.8021 4.37153C53.671 4.05339 53.6054 3.71356 53.6054 3.35204C53.6054 2.99053 53.671 2.6519 53.8021 2.33618C53.9333 2.01804 54.1142 1.73847 54.3449 1.49745C54.5756 1.25644 54.8427 1.06845 55.1463 0.933483C55.4498 0.796106 55.774 0.727417 56.1188 0.727417C56.4661 0.727417 56.7915 0.796106 57.0951 0.933483C57.3986 1.06845 57.6657 1.25644 57.8964 1.49745C58.1271 1.73847 58.3069 2.01804 58.4356 2.33618C58.5667 2.6519 58.6323 2.99053 58.6323 3.35204C58.6323 3.71356 58.5667 4.05339 58.4356 4.37153C58.3069 4.68725 58.1271 4.96562 57.8964 5.20664C57.6657 5.44765 57.3986 5.63684 57.0951 5.77422C56.7915 5.90919 56.4661 5.97667 56.1188 5.97667ZM56.1188 4.89211C56.3131 4.89211 56.4952 4.85235 56.6652 4.77281C56.8377 4.69087 56.9894 4.58 57.1206 4.44022C57.2517 4.29802 57.3537 4.13413 57.4265 3.94855C57.5018 3.76297 57.5395 3.56414 57.5395 3.35204C57.5395 3.13995 57.5018 2.94112 57.4265 2.75554C57.3537 2.56996 57.2517 2.40728 57.1206 2.26749C56.9894 2.12529 56.8377 2.01442 56.6652 1.93489C56.4952 1.85295 56.3131 1.81197 56.1188 1.81197C55.9246 1.81197 55.7412 1.85295 55.5688 1.93489C55.3988 2.01442 55.2482 2.12529 55.1171 2.26749C54.986 2.40728 54.8828 2.56996 54.8075 2.75554C54.7346 2.94112 54.6982 3.13995 54.6982 3.35204C54.6982 3.56414 54.7346 3.76297 54.8075 3.94855C54.8828 4.13413 54.986 4.29802 55.1171 4.44022C55.2482 4.58 55.3988 4.69087 55.5688 4.77281C55.7412 4.85235 55.9246 4.89211 56.1188 4.89211Z" fill="url(#paint11_linear_2680_12352)"/>
<path d="M59.2507 5.88268V0.821412H60.4309L62.2959 3.92324V0.821412H63.3887V5.88268H62.2085L60.3435 2.78084V5.88268H59.2507Z" fill="url(#paint12_linear_2680_12352)"/>
<path d="M65.9712 0.821412H67.2024L69.0528 5.88268H67.8945L67.6031 5.08734H65.5705L65.2791 5.88268H64.1207L65.9712 0.821412ZM65.9712 4.00278H67.2024L66.5831 2.32533L65.9712 4.00278Z" fill="url(#paint13_linear_2680_12352)"/>
<path d="M69.6308 5.88268V0.821412H70.7236V4.79812H72.727V5.88268H69.6308Z" fill="url(#paint14_linear_2680_12352)"/>
<path d="M23.2725 15.1789V10.1176H24.9626C25.3148 10.1176 25.6438 10.1839 25.9498 10.3164C26.2582 10.4466 26.529 10.6286 26.7621 10.8623C26.9977 11.0937 27.181 11.3624 27.3122 11.6685C27.4457 11.9722 27.5125 12.2988 27.5125 12.6482C27.5125 12.9977 27.4457 13.3255 27.3122 13.6316C27.181 13.9353 26.9977 14.204 26.7621 14.4378C26.529 14.6691 26.2582 14.8511 25.9498 14.9837C25.6438 15.1138 25.3148 15.1789 24.9626 15.1789H23.2725ZM24.3653 14.0943H24.9626C25.1593 14.0943 25.3451 14.057 25.52 13.9822C25.6948 13.9075 25.8502 13.8039 25.9862 13.6713C26.1222 13.5388 26.2279 13.3857 26.3031 13.2122C26.3808 13.0363 26.4197 12.8483 26.4197 12.6482C26.4197 12.4482 26.3808 12.2614 26.3031 12.0879C26.2279 11.9144 26.1222 11.7613 25.9862 11.6288C25.8527 11.4938 25.6985 11.389 25.5236 11.3142C25.3488 11.2395 25.1618 11.2022 24.9626 11.2022H24.3653V14.0943Z" fill="url(#paint15_linear_2680_12352)"/>
<path d="M30.4567 15.2729C30.1119 15.2729 29.7877 15.2054 29.4841 15.0704C29.1806 14.933 28.9135 14.7438 28.6828 14.5028C28.452 14.2618 28.2711 13.9835 28.14 13.6677C28.0089 13.3496 27.9433 13.0098 27.9433 12.6482C27.9433 12.2867 28.0089 11.9481 28.14 11.6324C28.2711 11.3142 28.452 11.0347 28.6828 10.7937C28.9135 10.5526 29.1806 10.3646 29.4841 10.2297C29.7877 10.0923 30.1119 10.0236 30.4567 10.0236C30.804 10.0236 31.1294 10.0923 31.4329 10.2297C31.7365 10.3646 32.0036 10.5526 32.2343 10.7937C32.465 11.0347 32.6447 11.3142 32.7734 11.6324C32.9046 11.9481 32.9701 12.2867 32.9701 12.6482C32.9701 13.0098 32.9046 13.3496 32.7734 13.6677C32.6447 13.9835 32.465 14.2618 32.2343 14.5028C32.0036 14.7438 31.7365 14.933 31.4329 15.0704C31.1294 15.2054 30.804 15.2729 30.4567 15.2729ZM30.4567 14.1883C30.651 14.1883 30.8331 14.1485 31.0031 14.069C31.1755 13.9871 31.3273 13.8762 31.4584 13.7364C31.5896 13.5942 31.6916 13.4303 31.7644 13.2447C31.8397 13.0592 31.8773 12.8603 31.8773 12.6482C31.8773 12.4362 31.8397 12.2373 31.7644 12.0517C31.6916 11.8662 31.5896 11.7035 31.4584 11.5637C31.3273 11.4215 31.1755 11.3106 31.0031 11.2311C30.8331 11.1491 30.651 11.1082 30.4567 11.1082C30.2624 11.1082 30.0791 11.1491 29.9067 11.2311C29.7367 11.3106 29.5861 11.4215 29.455 11.5637C29.3239 11.7035 29.2206 11.8662 29.1454 12.0517C29.0725 12.2373 29.0361 12.4362 29.0361 12.6482C29.0361 12.8603 29.0725 13.0592 29.1454 13.2447C29.2206 13.4303 29.3239 13.5942 29.455 13.7364C29.5861 13.8762 29.7367 13.9871 29.9067 14.069C30.0791 14.1485 30.2624 14.1883 30.4567 14.1883Z" fill="url(#paint16_linear_2680_12352)"/>
<path d="M35.9774 15.2729C35.6326 15.2729 35.3084 15.2054 35.0048 15.0704C34.7013 14.933 34.4342 14.7438 34.2035 14.5028C33.9752 14.2618 33.7955 13.9835 33.6643 13.6677C33.5356 13.3496 33.4713 13.0098 33.4713 12.6482C33.4713 12.2843 33.5356 11.9445 33.6643 11.6288C33.7955 11.3106 33.9752 11.0323 34.2035 10.7937C34.4342 10.5526 34.7013 10.3646 35.0048 10.2297C35.3084 10.0923 35.6326 10.0236 35.9774 10.0236C36.3903 10.0236 36.7703 10.1188 37.1176 10.3092C37.4648 10.4972 37.7526 10.7491 37.9809 11.0648L37.0046 11.5854C36.8784 11.4408 36.7266 11.3251 36.5493 11.2383C36.372 11.1516 36.1814 11.1082 35.9774 11.1082C35.7831 11.1082 35.5998 11.1479 35.4274 11.2275C35.2574 11.307 35.1068 11.4179 34.9757 11.5601C34.847 11.6999 34.7462 11.8625 34.6734 12.0481C34.6005 12.2337 34.5641 12.4337 34.5641 12.6482C34.5641 12.8603 34.6005 13.0592 34.6734 13.2447C34.7462 13.4303 34.847 13.5942 34.9757 13.7364C35.1068 13.8762 35.2574 13.9871 35.4274 14.069C35.5998 14.1485 35.7831 14.1883 35.9774 14.1883C36.1814 14.1883 36.372 14.1449 36.5493 14.0582C36.7266 13.969 36.8784 13.8509 37.0046 13.7039L37.9809 14.2317C37.7526 14.545 37.4648 14.7969 37.1176 14.9873C36.7703 15.1777 36.3903 15.2729 35.9774 15.2729Z" fill="url(#paint17_linear_2680_12352)"/>
<path d="M42.5366 10.1176V11.2022H41.0796V15.1789H39.9868V11.2022H38.5297V10.1176H42.5366Z" fill="url(#paint18_linear_2680_12352)"/>
<path d="M45.3403 15.2729C44.9955 15.2729 44.6713 15.2054 44.3677 15.0704C44.0642 14.933 43.7971 14.7438 43.5664 14.5028C43.3357 14.2618 43.1547 13.9835 43.0236 13.6677C42.8925 13.3496 42.8269 13.0098 42.8269 12.6482C42.8269 12.2867 42.8925 11.9481 43.0236 11.6324C43.1547 11.3142 43.3357 11.0347 43.5664 10.7937C43.7971 10.5526 44.0642 10.3646 44.3677 10.2297C44.6713 10.0923 44.9955 10.0236 45.3403 10.0236C45.6876 10.0236 46.013 10.0923 46.3165 10.2297C46.6201 10.3646 46.8872 10.5526 47.1179 10.7937C47.3486 11.0347 47.5283 11.3142 47.657 11.6324C47.7882 11.9481 47.8537 12.2867 47.8537 12.6482C47.8537 13.0098 47.7882 13.3496 47.657 13.6677C47.5283 13.9835 47.3486 14.2618 47.1179 14.5028C46.8872 14.7438 46.6201 14.933 46.3165 15.0704C46.013 15.2054 45.6876 15.2729 45.3403 15.2729ZM45.3403 14.1883C45.5346 14.1883 45.7167 14.1485 45.8867 14.069C46.0591 13.9871 46.2109 13.8762 46.342 13.7364C46.4732 13.5942 46.5752 13.4303 46.648 13.2447C46.7233 13.0592 46.7609 12.8603 46.7609 12.6482C46.7609 12.4362 46.7233 12.2373 46.648 12.0517C46.5752 11.8662 46.4732 11.7035 46.342 11.5637C46.2109 11.4215 46.0591 11.3106 45.8867 11.2311C45.7167 11.1491 45.5346 11.1082 45.3403 11.1082C45.146 11.1082 44.9627 11.1491 44.7903 11.2311C44.6203 11.3106 44.4697 11.4215 44.3386 11.5637C44.2075 11.7035 44.1042 11.8662 44.029 12.0517C43.9561 12.2373 43.9197 12.4362 43.9197 12.6482C43.9197 12.8603 43.9561 13.0592 44.029 13.2447C44.1042 13.4303 44.2075 13.5942 44.3386 13.7364C44.4697 13.8762 44.6203 13.9871 44.7903 14.069C44.9627 14.1485 45.146 14.1883 45.3403 14.1883Z" fill="url(#paint19_linear_2680_12352)"/>
<path d="M48.4721 15.1789V10.1176H50.5484C50.8277 10.1176 51.0803 10.1875 51.3061 10.3273C51.532 10.4671 51.7104 10.6551 51.8416 10.8913C51.9751 11.125 52.0419 11.3829 52.0419 11.6649C52.0419 11.8818 52.0055 12.0843 51.9326 12.2723C51.8598 12.4578 51.7554 12.6229 51.6194 12.7675C51.4858 12.9097 51.328 13.0242 51.1458 13.111L52.3552 15.1789H51.0948L49.9438 13.2122H49.5649V15.1789H48.4721ZM49.5649 12.1277H50.4173C50.5144 12.1277 50.6031 12.1036 50.6832 12.0554C50.7634 12.0047 50.8277 11.9385 50.8763 11.8565C50.9248 11.7746 50.9491 11.6842 50.9491 11.5854C50.9491 11.4866 50.9248 11.3962 50.8763 11.3142C50.8277 11.2323 50.7634 11.1672 50.6832 11.119C50.6031 11.0684 50.5144 11.0431 50.4173 11.0431H49.5649V12.1277Z" fill="url(#paint20_linear_2680_12352)"/>
<defs>
<linearGradient id="paint0_linear_2680_12352" x1="1.91748" y1="-0.00842285" x2="7.49819" y2="15.5964" gradientUnits="userSpaceOnUse">
<stop stop-color="#00B5D9"/>
<stop offset="1" stop-color="#003CC5"/>
</linearGradient>
<linearGradient id="paint1_linear_2680_12352" x1="1.31836" y1="6.03455" x2="2.61211" y2="14.0046" gradientUnits="userSpaceOnUse">
<stop stop-color="#00B5D9"/>
<stop offset="1" stop-color="#003CC5"/>
</linearGradient>
<linearGradient id="paint2_linear_2680_12352" x1="0.0112305" y1="0.0947266" x2="7.60894" y2="10.5492" gradientUnits="userSpaceOnUse">
<stop stop-color="#00B5D9"/>
<stop offset="1" stop-color="#003CC5"/>
</linearGradient>
<linearGradient id="paint3_linear_2680_12352" x1="2.87646" y1="10.3269" x2="3.92978" y2="16.4067" gradientUnits="userSpaceOnUse">
<stop stop-color="#00B5D9"/>
<stop offset="1" stop-color="#003CC5"/>
</linearGradient>
<linearGradient id="paint4_linear_2680_12352" x1="4.55469" y1="12.1904" x2="7.53653" y2="19.243" gradientUnits="userSpaceOnUse">
<stop stop-color="#00B5D9"/>
<stop offset="1" stop-color="#003CC5"/>
</linearGradient>
<linearGradient id="paint5_linear_2680_12352" x1="23.2725" y1="0.727417" x2="29.8678" y2="31.0209" gradientUnits="userSpaceOnUse">
<stop stop-color="#00B5D9"/>
<stop offset="1" stop-color="#003CC5"/>
</linearGradient>
<linearGradient id="paint6_linear_2680_12352" x1="23.2725" y1="0.727417" x2="29.8678" y2="31.0209" gradientUnits="userSpaceOnUse">
<stop stop-color="#00B5D9"/>
<stop offset="1" stop-color="#003CC5"/>
</linearGradient>
<linearGradient id="paint7_linear_2680_12352" x1="23.2725" y1="0.727417" x2="29.8678" y2="31.0209" gradientUnits="userSpaceOnUse">
<stop stop-color="#00B5D9"/>
<stop offset="1" stop-color="#003CC5"/>
</linearGradient>
<linearGradient id="paint8_linear_2680_12352" x1="23.2725" y1="0.727417" x2="29.8678" y2="31.0209" gradientUnits="userSpaceOnUse">
<stop stop-color="#00B5D9"/>
<stop offset="1" stop-color="#003CC5"/>
</linearGradient>
<linearGradient id="paint9_linear_2680_12352" x1="23.2725" y1="0.727417" x2="29.8678" y2="31.0209" gradientUnits="userSpaceOnUse">
<stop stop-color="#00B5D9"/>
<stop offset="1" stop-color="#003CC5"/>
</linearGradient>
<linearGradient id="paint10_linear_2680_12352" x1="23.2725" y1="0.727417" x2="29.8678" y2="31.0209" gradientUnits="userSpaceOnUse">
<stop stop-color="#00B5D9"/>
<stop offset="1" stop-color="#003CC5"/>
</linearGradient>
<linearGradient id="paint11_linear_2680_12352" x1="23.2725" y1="0.727417" x2="29.8678" y2="31.0209" gradientUnits="userSpaceOnUse">
<stop stop-color="#00B5D9"/>
<stop offset="1" stop-color="#003CC5"/>
</linearGradient>
<linearGradient id="paint12_linear_2680_12352" x1="23.2725" y1="0.727417" x2="29.8678" y2="31.0209" gradientUnits="userSpaceOnUse">
<stop stop-color="#00B5D9"/>
<stop offset="1" stop-color="#003CC5"/>
</linearGradient>
<linearGradient id="paint13_linear_2680_12352" x1="23.2725" y1="0.727417" x2="29.8678" y2="31.0209" gradientUnits="userSpaceOnUse">
<stop stop-color="#00B5D9"/>
<stop offset="1" stop-color="#003CC5"/>
</linearGradient>
<linearGradient id="paint14_linear_2680_12352" x1="23.2725" y1="0.727417" x2="29.8678" y2="31.0209" gradientUnits="userSpaceOnUse">
<stop stop-color="#00B5D9"/>
<stop offset="1" stop-color="#003CC5"/>
</linearGradient>
<linearGradient id="paint15_linear_2680_12352" x1="23.2725" y1="0.727417" x2="29.8678" y2="31.0209" gradientUnits="userSpaceOnUse">
<stop stop-color="#00B5D9"/>
<stop offset="1" stop-color="#003CC5"/>
</linearGradient>
<linearGradient id="paint16_linear_2680_12352" x1="23.2725" y1="0.727417" x2="29.8678" y2="31.0209" gradientUnits="userSpaceOnUse">
<stop stop-color="#00B5D9"/>
<stop offset="1" stop-color="#003CC5"/>
</linearGradient>
<linearGradient id="paint17_linear_2680_12352" x1="23.2725" y1="0.727417" x2="29.8678" y2="31.0209" gradientUnits="userSpaceOnUse">
<stop stop-color="#00B5D9"/>
<stop offset="1" stop-color="#003CC5"/>
</linearGradient>
<linearGradient id="paint18_linear_2680_12352" x1="23.2725" y1="0.727417" x2="29.8678" y2="31.0209" gradientUnits="userSpaceOnUse">
<stop stop-color="#00B5D9"/>
<stop offset="1" stop-color="#003CC5"/>
</linearGradient>
<linearGradient id="paint19_linear_2680_12352" x1="23.2725" y1="0.727417" x2="29.8678" y2="31.0209" gradientUnits="userSpaceOnUse">
<stop stop-color="#00B5D9"/>
<stop offset="1" stop-color="#003CC5"/>
</linearGradient>
<linearGradient id="paint20_linear_2680_12352" x1="23.2725" y1="0.727417" x2="29.8678" y2="31.0209" gradientUnits="userSpaceOnUse">
<stop stop-color="#00B5D9"/>
<stop offset="1" stop-color="#003CC5"/>
</linearGradient>
<clipPath id="clip0_2680_12352">
<rect width="18.6182" height="16" fill="white"/>
</clipPath>
</defs>
</svg>
