<svg width="212" height="200" viewBox="0 0 212 200" fill="none" xmlns="http://www.w3.org/2000/svg">
<path d="M109.49 199.856C155.168 199.856 192.197 197.958 192.197 195.617C192.197 193.276 155.168 191.378 109.49 191.378C63.8124 191.378 26.7832 193.276 26.7832 195.617C26.7832 197.958 63.8124 199.856 109.49 199.856Z" fill="#E3F0FF"/>
<path d="M145.713 194.749C145.713 194.749 144.123 192.052 147.543 190.751C150.963 189.451 158.718 188.632 157.948 185.983C157.177 183.333 154.528 178.565 161.175 174.037C167.774 169.557 166.474 167.63 167.389 168.064C168.304 168.497 170.52 171.146 170.135 173.651C169.749 176.156 167.919 176.782 168.786 177.601C169.653 178.372 172.591 175.53 172.591 172.881C172.591 170.231 172.736 168.304 174.663 169.412C176.541 170.52 176.3 172.11 177.649 170.906C178.998 169.701 179.865 167.293 179.287 163.728C178.757 160.164 180.491 157.514 182.996 157.418C185.501 157.322 190.703 161.994 191.137 169.075C191.522 176.156 187.138 181.936 187.765 183.719C188.391 185.549 191.137 184.682 192.582 182.081C193.979 179.48 197.447 183.574 196.532 187.139C195.568 190.703 194.701 194.605 192.582 195.328C190.462 196.05 152.842 195.472 150 195.472C147.11 195.472 146.243 195.52 145.713 194.749Z" fill="#FF8D76"/>
<path d="M154.625 193.545C156.599 193.497 162.524 193.545 161.802 190.222C161.079 186.898 159.827 185.501 161.898 182.659C163.969 179.817 166.233 181.551 166.33 182.996C166.426 184.393 165.848 187.235 168.305 186.85C170.761 186.464 170.81 179.817 172.881 179.287C174.952 178.757 175.578 180.78 175.867 182.755C176.205 184.73 178.613 182.611 179.576 180.25C180.54 177.89 180.443 174.663 182.659 173.699C184.875 172.736 185.983 178.276 185.02 183.333C184.056 188.391 183.285 190.896 184.49 191.378C185.694 191.859 188.054 190.655 189.162 192.486C190.27 194.316 188.632 195.568 184.104 195.568C179.625 195.568 156.648 195.568 153.035 195.568C149.326 195.52 150.097 193.642 154.625 193.545Z" fill="#FEC272"/>
<path d="M23.5072 116.956C22.0621 119.509 18.1604 118.208 16.33 115.318C14.4995 112.38 11.7539 114.114 12.3801 119.894C13.0063 125.626 15.3184 129.432 19.461 132.177C23.6036 134.923 28.276 136.031 27.1681 137.909C26.0602 139.788 24.3261 144.075 30.54 146.243C36.7539 148.459 45.7616 147.447 50.3858 142.245C55.0583 137.042 55.0583 125.578 52.8907 119.412C50.7712 113.247 46.4841 109.345 45.0872 106.503C43.6903 103.661 41.0891 105.636 41.5226 108.285C42.0043 110.935 42.8714 112.476 40.9928 112.524C39.1142 112.572 37.8618 106.118 32.2259 104.913C26.5901 103.661 25.6749 107.033 22.1103 105.106C18.5458 103.131 17.2452 103.324 17.0043 106.407C16.7635 109.538 19.1238 112.958 21.1469 113.488C24.1816 114.258 24.4706 115.222 23.5072 116.956Z" fill="#FEC272"/>
<path d="M31.7924 119.942C32.3222 122.688 30.0583 125.674 26.1084 123.94C22.1585 122.206 20.7615 123.603 22.7847 127.264C24.8078 130.925 29.3357 134.297 31.7924 135.549C34.249 136.802 32.5631 138.632 32.9003 140.511C33.2375 142.389 38.7288 145.231 44.2683 139.162C49.8078 133.092 49.856 125.385 48.2664 119.749C46.6768 114.162 44.5573 115.029 44.5573 116.907C44.5573 118.786 44.7981 122.495 43.3531 122.11C41.9561 121.724 39.9812 118.979 38.1507 115.8C35.0197 110.356 27.3608 105.925 26.3492 110.116C25.6267 113.054 31.0217 115.751 31.7924 119.942Z" fill="#FF8D76"/>
<path d="M143.497 101.975C136.561 96.3391 130.251 86.2234 128.854 68.0635C127.842 54.9132 132.226 49.0847 136.754 46.9171C141.234 44.7976 141.234 42.6782 143.257 43.2562C145.28 43.8342 144.798 48.4585 142.919 50.7225C141.041 52.9864 140.8 56.5028 143.642 56.7437C146.484 56.9845 146.821 51.8785 147.303 47.1579C147.785 42.4373 148.941 40.5587 154.528 37.9575C160.116 35.3564 163.054 33.4778 164.21 29.6724C165.415 25.867 166.571 26.1078 168.69 27.1676C170.81 28.2273 171.532 33.1888 169.75 35.0674C167.968 36.946 166.571 38.3911 166.812 40.0288C167.052 41.6666 167.871 39.0654 172.736 36.7051C177.602 34.3448 179.576 27.2639 180.203 23.603C180.829 19.9421 182.081 18.9787 185.501 20.6647C188.921 22.3024 193.305 28.8053 192.101 37.6685C190.896 46.5317 184.875 52.5529 183.96 57.3217C182.997 62.0423 185.983 63.1021 189.066 61.3198C192.149 59.5375 190.463 54.2389 192.149 51.734C193.786 49.2292 198.892 54.576 200.434 63.5356C201.975 72.4951 204.336 86.7533 190.993 100.096C177.216 113.776 157.033 113.006 143.497 101.975Z" fill="#FEC272"/>
<path d="M148.652 59.9229C152.024 54.4316 155.492 54.6242 155.636 56.5992C155.733 58.6223 152.939 61.4643 154.336 62.8612C155.733 64.2582 157.66 61.8015 158.238 58.237C158.816 54.6724 162.236 52.6975 165.8 51.0115C169.365 49.3738 170.906 45.8092 172.64 45.7129C174.374 45.6165 175.001 49.3738 173.845 51.6377C172.64 53.9017 168.401 55.0578 168.401 58.237C168.401 61.4162 171.532 61.6088 172.881 58.9595C174.23 56.3102 173.893 54.8651 176.735 54.6242C179.577 54.3834 179.336 61.1753 177.457 63.6801C175.579 66.1849 172.351 68.1599 173.845 70.6165C175.338 73.0732 178.083 70.6165 179.577 68.9788C181.07 67.341 184.057 69.1233 184.538 72.3025C185.02 75.4335 178.854 80.8285 179.24 83.5741C179.625 86.3198 182.082 85.6454 183.478 83.7187C184.875 81.84 186.706 84.2485 186.224 87.4277C185.742 90.6069 177.168 101.156 161.85 97.1098C139.596 91.2813 142.631 69.7977 148.652 59.9229Z" fill="#FF8D76"/>
<path d="M68.5938 53.3719L118.497 9.87481C118.979 9.44128 119.702 9.48946 120.135 9.97115C120.569 10.4528 120.521 11.2236 120.039 11.6571L70.9541 56.5511L68.5938 53.3719Z" fill="#E1ECFF"/>
<path d="M63.921 62.2351L36.5606 1.92681C36.2716 1.34877 36.5607 0.626229 37.1387 0.385381C37.7167 0.0963637 38.4393 0.33721 38.7283 0.963414L67.63 60.9345L63.921 62.2351Z" fill="#E1ECFF"/>
<path d="M64.2089 67.0038C69.1837 67.0038 73.2166 62.9709 73.2166 57.9961C73.2166 53.0213 69.1837 48.9884 64.2089 48.9884C59.2341 48.9884 55.2012 53.0213 55.2012 57.9961C55.2012 62.9709 59.2341 67.0038 64.2089 67.0038Z" fill="#0D2560"/>
<path d="M63.8235 55.0577C66.2178 55.0577 68.1588 53.85 68.1588 52.3602C68.1588 50.8704 66.2178 49.6627 63.8235 49.6627C61.4292 49.6627 59.4883 50.8704 59.4883 52.3602C59.4883 53.85 61.4292 55.0577 63.8235 55.0577Z" fill="#273D7A"/>
<path d="M135.115 168.979C134.971 173.073 130.202 173.218 127.842 168.497C126.734 166.233 124.904 162.38 123.314 159.008C121.58 155.299 120.135 152.119 120.135 152.119L133.863 153.516C133.863 153.516 134.152 155.925 134.489 158.959C134.875 162.428 135.212 166.763 135.115 168.979Z" fill="#1C3177"/>
<path d="M134.49 158.959C133.816 159.104 133.045 159.248 132.226 159.393C129.384 159.875 126.108 159.538 123.363 159.008C121.629 155.299 120.184 152.119 120.184 152.119L133.912 153.516C133.864 153.516 134.201 155.925 134.49 158.959Z" fill="#072359"/>
<path d="M42.0035 153.276C40.5584 157.129 44.8455 159.104 48.8435 155.684C50.7703 154.046 53.9495 151.204 56.7434 148.699C59.778 145.954 62.3792 143.593 62.3792 143.593L49.1807 139.499C49.1807 139.499 47.9765 141.618 46.4832 144.268C44.8455 147.399 42.7742 151.204 42.0035 153.276Z" fill="#1C3177"/>
<path d="M46.5312 144.316C47.1093 144.749 47.7355 145.183 48.458 145.616C50.8665 147.158 53.9975 148.121 56.7914 148.748C59.826 146.002 62.4272 143.642 62.4272 143.642L49.2287 139.547C49.2287 139.547 48.0245 141.667 46.5312 144.316Z" fill="#072359"/>
<path d="M170.134 101.349C168.303 115.751 166.665 131.021 163.534 141.57C163.149 142.919 162.715 144.171 162.234 145.328C158.236 155.732 150.962 153.613 141.569 154.48C132.176 155.347 129.334 155.25 129.334 155.25L131.742 140.607L143.207 71.4354L165.702 73.4104C165.702 73.4104 166.906 74.2774 167.918 75.9152C168.978 77.6011 172.205 85.0674 170.134 101.349Z" fill="#0D2560"/>
<path d="M163.534 141.57C163.149 142.919 162.715 144.171 162.234 145.328C158.236 155.732 150.962 153.613 141.569 154.48C132.176 155.347 129.334 155.25 129.334 155.25L131.742 140.607L163.534 141.57Z" fill="#072359"/>
<path d="M46.002 61.1754C46.002 61.1754 51.8786 58.0925 58.526 57.8516C65.1734 57.6108 117.775 62.8613 134.971 64.7399C152.168 66.6185 159.586 68.9788 163.054 70.8093C166.522 72.6397 167.919 75.9152 167.919 75.9152L140.318 73.4104L46.002 61.1754Z" fill="#142966"/>
<path d="M35.5002 125L39.0166 70.761C39.4019 64.499 44.9896 59.8266 51.2035 60.5491L140.606 70.6647C146.194 71.2909 150.192 76.3005 149.662 81.84L143.785 141.04C142.87 150.144 134.44 156.551 125.433 155.058L48.9877 142.1C40.7989 140.703 34.9703 133.285 35.5002 125Z" fill="#273D7A"/>
<path d="M119.219 142.871L125.674 80.2986C125.963 77.6493 128.323 75.7225 130.972 76.0115L142.196 77.2639C144.845 77.5529 146.724 79.9614 146.435 82.5626L139.209 145.183C138.92 147.832 136.463 149.711 133.814 149.374L123.41 148.073C120.808 147.784 118.93 145.472 119.219 142.871Z" fill="#FEC272"/>
<path d="M143.593 89.6436C143.593 91.6667 142.871 93.4972 141.714 94.9423C140.896 95.9056 139.932 96.7245 138.776 97.2544C137.716 97.7843 136.512 98.0251 135.212 98.0251C130.587 98.0251 126.83 94.2679 126.83 89.6436C126.83 87.7168 127.504 85.9345 128.564 84.5376C129.335 83.5261 130.298 82.7072 131.454 82.1291C132.562 81.5511 133.863 81.2621 135.212 81.2621C139.788 81.2621 143.593 85.0193 143.593 89.6436Z" fill="#F9A95A"/>
<path d="M143.16 88.2466C143.16 90.0771 142.534 91.763 141.426 93.1117C140.704 94.027 139.788 94.7495 138.729 95.2312C137.717 95.7129 136.657 95.9537 135.453 95.9537C131.214 95.9537 127.746 92.5337 127.746 88.2466C127.746 86.4643 128.324 84.8748 129.336 83.5742C130.058 82.659 130.925 81.8882 131.985 81.4065C133.045 80.8767 134.201 80.5877 135.405 80.5877C139.74 80.5395 143.16 84.0077 143.16 88.2466Z" fill="#99ADF9"/>
<path d="M141.474 93.1117C140.751 94.0269 139.836 94.7495 138.777 95.2311L129.432 83.5741C130.154 82.6589 131.021 81.8882 132.081 81.4065L141.474 93.1117Z" fill="#C5DFFF"/>
<path d="M136.03 117.485C134.2 118.208 132.321 118.256 130.587 117.726C129.431 117.389 128.323 116.763 127.408 115.896C126.541 115.125 125.866 114.114 125.384 113.006C123.699 108.815 125.674 104.046 129.864 102.36C131.598 101.638 133.429 101.59 135.115 102.071C136.271 102.408 137.379 102.986 138.342 103.805C139.257 104.624 140.028 105.636 140.51 106.84C142.244 111.031 140.221 115.8 136.03 117.485Z" fill="#F9A95A"/>
<path d="M136.03 115.511C134.344 116.185 132.513 116.233 130.876 115.751C129.768 115.414 128.756 114.836 127.889 114.065C127.07 113.343 126.444 112.428 126.011 111.32C124.421 107.37 126.3 102.89 130.201 101.3C131.839 100.626 133.573 100.578 135.163 101.011C136.271 101.3 137.282 101.879 138.197 102.649C139.064 103.42 139.787 104.383 140.269 105.539C141.858 109.441 139.98 113.921 136.03 115.511Z" fill="#99ADF9"/>
<path d="M138.197 102.601L130.875 115.751C129.767 115.414 128.756 114.836 127.889 114.065L135.162 101.011C136.318 101.3 137.33 101.83 138.197 102.601Z" fill="#C5DFFF"/>
<path d="M136.32 126.493L126.205 124.952C125.53 124.855 125.049 124.229 125.145 123.555C125.241 122.881 125.819 122.399 126.494 122.495L136.609 124.037C137.284 124.133 137.766 124.759 137.669 125.434C137.573 126.108 136.947 126.59 136.32 126.493Z" fill="#0D2560"/>
<path d="M135.645 132.081L125.529 130.539C124.855 130.443 124.373 129.817 124.469 129.143C124.566 128.468 125.144 127.986 125.818 128.083L135.934 129.624C136.608 129.721 137.09 130.347 136.993 131.021C136.945 131.744 136.319 132.177 135.645 132.081Z" fill="#0D2560"/>
<path d="M135.02 137.717L124.904 136.175C124.23 136.079 123.748 135.453 123.844 134.778C123.941 134.104 124.519 133.622 125.193 133.719L135.309 135.26C135.983 135.356 136.465 135.983 136.368 136.657C136.32 137.331 135.694 137.813 135.02 137.717Z" fill="#0D2560"/>
<path d="M134.393 143.304L124.277 141.763C123.603 141.667 123.121 141.04 123.217 140.366C123.314 139.692 123.892 139.21 124.566 139.306L134.682 140.848C135.356 140.944 135.838 141.57 135.741 142.245C135.693 142.919 135.067 143.401 134.393 143.304Z" fill="#0D2560"/>
<path d="M121.579 82.129L121.29 85.1637L116.184 139.017C115.991 140.848 115.22 142.485 114.016 143.69C112.33 145.424 109.874 146.339 107.272 145.905L49.7097 136.801C43.6885 135.838 39.3533 130.443 39.7386 124.326L42.8215 76.0596L42.9178 74.47L43.1105 71.8207C43.3514 68.1598 46.6269 65.4142 50.2878 65.8477L114.835 73.603C118.978 74.181 121.964 77.9383 121.579 82.129Z" fill="#F8FBFF"/>
<path d="M121.579 82.1291L121.29 85.1637L42.918 74.5183L43.1106 71.8689C43.3515 68.2081 46.627 65.4624 50.2879 65.8959L114.835 73.6512C118.978 74.1811 121.964 77.9383 121.579 82.1291Z" fill="#C5DFFF"/>
<path d="M50.7695 71.3872C50.625 72.3506 49.7098 73.0731 48.6982 72.9286C47.6866 72.7841 46.9159 71.9171 47.0604 70.9537C47.2049 69.9903 48.1202 69.2677 49.1317 69.4122C50.1433 69.5568 50.8658 70.4238 50.7695 71.3872Z" fill="white"/>
<path d="M58.3808 72.3025C58.2363 73.2659 57.3211 73.9884 56.3095 73.8439C55.298 73.6994 54.5272 72.8323 54.6718 71.8689C54.8163 70.9056 55.7315 70.183 56.743 70.3275C57.7546 70.472 58.4772 71.3391 58.3808 72.3025Z" fill="white"/>
<path d="M65.9433 73.2176C65.7988 74.181 64.8836 74.9036 63.872 74.7591C62.8605 74.6146 62.0897 73.7475 62.2343 72.7841C62.3788 71.8207 63.294 71.0982 64.3055 71.2427C65.3653 71.339 66.0878 72.2543 65.9433 73.2176Z" fill="white"/>
<path d="M114.016 143.69C112.33 145.424 109.874 146.339 107.272 145.906L49.7097 136.802C43.6885 135.838 39.3533 130.443 39.7386 124.326L42.8215 76.0597C43.8331 92.7745 41.2801 111.416 50.5768 122.013C64.2088 137.572 76.5884 137.476 114.016 143.69Z" fill="#E1ECFF"/>
<path d="M67.5824 94.316L65.174 93.9307C64.5477 93.8343 64.0179 94.2197 63.9697 94.8459L63.2472 101.445L60.2125 101.108C59.6826 101.012 59.3454 100.482 59.5381 100L61.7057 94.7014C61.9948 94.027 61.5131 93.2563 60.7905 93.16L58.8156 92.8228C58.3339 92.7264 57.8522 93.0154 57.6595 93.449L54.2395 101.927C53.8541 102.89 54.4803 103.998 55.54 104.191L62.8136 105.443L61.5131 117.197C61.4649 117.823 61.8984 118.401 62.5246 118.497L64.7886 118.834C65.3666 118.931 65.8965 118.545 65.9928 117.919L68.594 95.6648C68.6422 95.0386 68.2086 94.4124 67.5824 94.316Z" fill="#99ADF9"/>
<path d="M101.928 100.048L99.4711 99.6146C98.8448 99.5183 98.2668 99.9518 98.2186 100.53L97.4479 107.37L94.2687 107.033C93.7389 106.936 93.4017 106.358 93.5944 105.877L95.8102 100.385C96.0992 99.711 95.6175 98.8921 94.8468 98.7476L92.8237 98.4104C92.2938 98.3141 91.8121 98.6031 91.6194 99.0366L88.0549 107.803C87.6695 108.815 88.3439 109.971 89.4036 110.164L96.9181 111.416L95.5693 123.603C95.5211 124.229 95.9547 124.855 96.6291 124.952L98.9894 125.289C99.6156 125.385 100.145 124.952 100.242 124.374L102.939 101.301C103.036 100.723 102.554 100.145 101.928 100.048Z" fill="#99ADF9"/>
<path d="M79.3356 95.8575C74.5668 95.4239 71.773 98.1214 70.6169 106.069C69.1719 115.944 71.773 119.942 76.59 121.05C83.141 122.592 84.2971 116.956 85.5977 108.622C86.8982 100.289 84.1044 96.291 79.3356 95.8575ZM81.6959 108.43C81.0697 114.258 79.2875 117.582 77.1198 117.052C74.8077 116.474 73.9406 113.777 74.615 106.888C75.1449 101.349 76.4936 99.4702 78.7576 99.6628C81.0216 99.9037 82.3221 102.601 81.6959 108.43Z" fill="#99ADF9"/>
<path d="M142.197 33.4296C139.885 33.3814 138.873 27.8419 141.041 26.445C143.208 25.0481 144.75 27.8901 144.798 29.9614C144.846 32.0327 144.268 33.5259 142.197 33.4296Z" fill="#FF8D76"/>
<path d="M168.932 17.3892C166.812 17.341 165.897 12.3314 167.92 11.0789C169.895 9.82654 171.244 12.3795 171.292 14.2581C171.34 16.1368 170.81 17.4373 168.932 17.3892Z" fill="#FEC272"/>
<path d="M190.078 7.17723C187.911 7.12906 186.947 1.97492 189.018 0.67434C191.09 -0.626238 192.439 2.02309 192.535 3.94987C192.631 5.87665 192.005 7.27357 190.078 7.17723Z" fill="#FF8D76"/>
<path d="M207.659 46.9171C205.829 46.4354 206.07 41.7629 208.093 41.0886C210.116 40.4142 210.79 42.919 210.453 44.6049C210.116 46.2909 209.345 47.3506 207.659 46.9171Z" fill="#FEC272"/>
<path d="M23.0748 95.7611C20.8109 95.4239 20.3773 89.8844 22.7376 88.7765C25.0979 87.6686 26.2059 90.6069 26.0613 92.6301C25.8687 94.7013 25.1461 96.0019 23.0748 95.7611Z" fill="#FEC272"/>
<path d="M16.572 77.9383C14.7897 77.6975 14.5007 73.3622 16.283 72.4952C18.0653 71.6281 18.9805 73.8921 18.836 75.4817C18.7396 77.1195 18.1616 78.1792 16.572 77.9383Z" fill="#FF8D76"/>
<path d="M3.51728 106.551C0.627106 106.166 0.0972403 99.0366 3.08375 97.6397C6.0221 96.2428 7.51535 99.9519 7.32267 102.601C7.08182 105.202 6.16661 106.888 3.51728 106.551Z" fill="#FEC272"/>
<path d="M33.8154 58.7669L10.8867 40.5106L6.74414 48.0732L33.8154 58.7669Z" fill="#FEC272"/>
<path d="M34.9243 53.6127L12.6699 31.8883L21.0033 26.4933L34.9243 53.6127Z" fill="#FEC272"/>
<path d="M31.6484 27.264L39.4519 51.5415L38.6812 26.5415L31.6484 27.264Z" fill="#FEC272"/>
</svg>
