<svg width="24" height="24" viewBox="0 0 24 24" fill="none" xmlns="http://www.w3.org/2000/svg">
<path d="M20.2102 7.81994L12.5102 12.2799C12.2002 12.4599 11.8102 12.4599 11.4902 12.2799L3.79021 7.81994C3.24021 7.49994 3.10021 6.74994 3.52021 6.27994C3.81021 5.94994 4.14021 5.67994 4.49021 5.48994L9.91021 2.48994C11.0702 1.83994 12.9502 1.83994 14.1102 2.48994L19.5302 5.48994C19.8802 5.67994 20.2102 5.95994 20.5002 6.27994C20.9002 6.74994 20.7602 7.49994 20.2102 7.81994Z" fill="url(#paint0_linear_2428_12679)"/>
<path d="M11.4305 14.14V20.96C11.4305 21.72 10.6605 22.22 9.98047 21.89C7.92047 20.88 4.45047 18.99 4.45047 18.99C3.23047 18.3 2.23047 16.56 2.23047 15.13V9.97C2.23047 9.18 3.06047 8.68 3.74047 9.07L10.9305 13.24C11.2305 13.43 11.4305 13.77 11.4305 14.14Z" fill="url(#paint1_linear_2428_12679)"/>
<path d="M12.5703 14.14V20.96C12.5703 21.72 13.3403 22.22 14.0203 21.89C16.0803 20.88 19.5503 18.99 19.5503 18.99C20.7703 18.3 21.7703 16.56 21.7703 15.13V9.97C21.7703 9.18 20.9403 8.68 20.2603 9.07L13.0703 13.24C12.7703 13.43 12.5703 13.77 12.5703 14.14Z" fill="url(#paint2_linear_2428_12679)"/>
<defs>
<linearGradient id="paint0_linear_2428_12679" x1="3.27539" y1="2.00244" x2="11.6688" y2="21.0097" gradientUnits="userSpaceOnUse">
<stop stop-color="#00B5D9"/>
<stop offset="1" stop-color="#003CC5"/>
</linearGradient>
<linearGradient id="paint1_linear_2428_12679" x1="2.23047" y1="8.93469" x2="16.4562" y2="22.474" gradientUnits="userSpaceOnUse">
<stop stop-color="#00B5D9"/>
<stop offset="1" stop-color="#003CC5"/>
</linearGradient>
<linearGradient id="paint2_linear_2428_12679" x1="12.5703" y1="8.93469" x2="26.796" y2="22.474" gradientUnits="userSpaceOnUse">
<stop stop-color="#00B5D9"/>
<stop offset="1" stop-color="#003CC5"/>
</linearGradient>
</defs>
</svg>
