<svg width="24" height="25" viewBox="0 0 24 25" fill="none" xmlns="http://www.w3.org/2000/svg">
<path d="M8.0008 22.9568H16.0008C20.0208 22.9568 20.7408 21.3468 20.9508 19.3868L21.7008 11.3868C21.9708 8.94679 21.2708 6.95679 17.0008 6.95679H7.0008C2.7308 6.95679 2.0308 8.94679 2.3008 11.3868L3.0508 19.3868C3.2608 21.3468 3.9808 22.9568 8.0008 22.9568Z" stroke="#222222" stroke-width="1.5" stroke-miterlimit="10" stroke-linecap="round" stroke-linejoin="round"/>
<path d="M8 6.95679V6.15679C8 4.38679 8 2.95679 11.2 2.95679H12.8C16 2.95679 16 4.38679 16 6.15679V6.95679" stroke="#222222" stroke-width="1.5" stroke-miterlimit="10" stroke-linecap="round" stroke-linejoin="round"/>
<path d="M14 13.9568V14.9568C14 14.9668 14 14.9668 14 14.9768C14 16.0668 13.99 16.9568 12 16.9568C10.02 16.9568 10 16.0768 10 14.9868V13.9568C10 12.9568 10 12.9568 11 12.9568H13C14 12.9568 14 12.9568 14 13.9568Z" stroke="#222222" stroke-width="1.5" stroke-miterlimit="10" stroke-linecap="round" stroke-linejoin="round"/>
<path d="M21.65 11.9568C19.34 13.6368 16.7 14.6368 14 14.9768" stroke="#222222" stroke-width="1.5" stroke-miterlimit="10" stroke-linecap="round" stroke-linejoin="round"/>
<path d="M2.61914 12.2268C4.86914 13.7668 7.40914 14.6968 9.99914 14.9868" stroke="#222222" stroke-width="1.5" stroke-miterlimit="10" stroke-linecap="round" stroke-linejoin="round"/>
</svg>
