<svg width="80" height="80" viewBox="0 0 80 80" fill="none" xmlns="http://www.w3.org/2000/svg">
<path d="M46.6663 56.3667C46.0329 56.3667 45.3996 56.1334 44.8996 55.6334L31.6996 42.4334C30.7329 41.4667 30.7329 39.8667 31.6996 38.9C32.6663 37.9334 34.2663 37.9334 35.2329 38.9L48.4329 52.1C49.3996 53.0667 49.3996 54.6667 48.4329 55.6334C47.9329 56.1 47.2996 56.3667 46.6663 56.3667Z" fill="#EB5757"/>
<path d="M33.3335 56.5C32.7001 56.5 32.0668 56.2667 31.5668 55.7667C30.6001 54.8 30.6001 53.2 31.5668 52.2333L44.7668 39.0333C45.7335 38.0667 47.3335 38.0667 48.3001 39.0333C49.2668 40 49.2668 41.6 48.3001 42.5667L35.1001 55.7667C34.6001 56.2667 33.9668 56.5 33.3335 56.5Z" fill="#EB5757"/>
<path d="M46.667 22.5H33.3337C30.1337 22.5 24.167 22.5 24.167 13.3333C24.167 4.16663 30.1337 4.16663 33.3337 4.16663H46.667C49.867 4.16663 55.8337 4.16663 55.8337 13.3333C55.8337 16.5333 55.8337 22.5 46.667 22.5ZM33.3337 9.16663C30.0337 9.16663 29.167 9.16663 29.167 13.3333C29.167 17.5 30.0337 17.5 33.3337 17.5H46.667C50.8337 17.5 50.8337 16.6333 50.8337 13.3333C50.8337 9.16663 49.967 9.16663 46.667 9.16663H33.3337Z" fill="#EB5757"/>
<path d="M50 75.8334H30C11.2667 75.8334 7.5 67.2334 7.5 53.3334V33.3334C7.5 18.1334 13 11.6334 26.5333 10.9334C27.9333 10.8667 29.1 11.9001 29.1667 13.3001C29.2333 14.7001 28.1667 15.8334 26.8 15.9001C17.3333 16.4334 12.5 19.2667 12.5 33.3334V53.3334C12.5 65.6667 14.9333 70.8334 30 70.8334H50C65.0667 70.8334 67.5 65.6667 67.5 53.3334V33.3334C67.5 19.2667 62.6667 16.4334 53.2 15.9001C51.8333 15.8334 50.7667 14.6334 50.8333 13.2667C50.9 11.9001 52.1 10.8334 53.4667 10.9001C67 11.6334 72.5 18.1334 72.5 33.3001V53.3001C72.5 67.2334 68.7333 75.8334 50 75.8334Z" fill="#EB5757"/>
</svg>
