<svg width="267" height="184" viewBox="0 0 267 184" fill="none" xmlns="http://www.w3.org/2000/svg">
<g clip-path="url(#clip0_2679_13344)">
<path d="M111.594 171.752C111.594 171.752 82.0915 171.752 72.4201 171.752C62.7488 171.752 60.9015 174.034 64.9765 175.719C69.0515 177.403 49.5458 176.588 46.2315 179.576C42.8628 182.565 51.4475 183.706 60.7385 183.706C70.0295 183.706 127.949 183.706 135.392 183.706C142.836 183.706 140.989 178.272 136.533 177.566C132.078 176.86 143.76 177.838 148.215 176.262C152.67 174.686 149.465 171.752 111.594 171.752Z" fill="#99ADF9"/>
<path d="M168.753 181.695C167.612 183.271 163.809 183.651 157.343 183.488C152.453 183.325 147.346 182.945 147.346 180.663C147.346 178.381 159.788 178.653 164.135 179.142C167.884 179.576 169.405 180.772 168.753 181.695Z" fill="#C5D3FF"/>
<path d="M56.1744 174.089C55.4137 175.23 52.8057 175.556 48.2417 175.556C44.8187 175.556 41.2327 175.393 41.1241 173.817C41.0154 172.187 49.7631 172.133 52.8601 172.404C55.4681 172.622 56.6091 173.382 56.1744 174.089Z" fill="#C5D3FF"/>
<path d="M247.481 170.394H228.084C226.562 170.394 225.312 169.144 225.312 167.623V147.574C225.312 146.053 226.562 144.803 228.084 144.803H247.481C249.002 144.803 250.251 146.053 250.251 147.574V167.623C250.251 169.144 249.002 170.394 247.481 170.394Z" fill="#C5DFFF"/>
<path d="M246.556 169.47H227.92C226.453 169.47 225.258 168.275 225.258 166.808V147.465C225.258 145.998 226.453 144.803 227.92 144.803H246.556C248.023 144.803 249.219 145.998 249.219 147.465V166.808C249.219 168.275 248.023 169.47 246.556 169.47Z" fill="#E1ECFF"/>
<path d="M237.429 165.178C241.751 165.178 245.253 161.675 245.253 157.354C245.253 153.033 241.751 149.53 237.429 149.53C233.108 149.53 229.605 153.033 229.605 157.354C229.605 161.675 233.108 165.178 237.429 165.178Z" fill="#C5DFFF"/>
<path d="M234.333 160.886C234.061 160.886 233.844 160.668 233.844 160.397V154.366C233.844 154.094 234.061 153.877 234.333 153.877C234.604 153.877 234.822 154.094 234.822 154.366V160.397C234.822 160.668 234.604 160.886 234.333 160.886Z" fill="#1C3177"/>
<path d="M239.983 160.886C239.711 160.886 239.494 160.668 239.494 160.397V154.366C239.494 154.094 239.711 153.877 239.983 153.877C240.255 153.877 240.472 154.094 240.472 154.366V160.397C240.472 160.668 240.255 160.886 239.983 160.886Z" fill="#1C3177"/>
<path d="M190.051 136.49C189.671 136.49 189.29 136.49 188.91 136.436C180.488 135.838 174.729 132.958 165.058 118.234C161.689 113.127 159.407 107.911 157.179 102.858C153.376 94.2187 150.116 86.7207 142.727 83.2434C131.371 77.9187 120.233 86.7207 120.124 86.8294C119.635 87.2097 118.929 87.1554 118.548 86.6664C118.168 86.1774 118.222 85.471 118.711 85.0907C119.2 84.7104 131.045 75.3107 143.65 81.233C151.8 85.0364 155.386 93.2407 159.19 101.934C161.363 106.933 163.645 112.094 166.905 116.984C176.087 130.894 181.358 133.61 189.073 134.208C194.832 134.643 197.929 131.165 200.918 127.742C202.004 126.547 202.982 125.406 204.123 124.428C208.524 120.679 213.143 119.973 213.36 119.973C213.958 119.864 214.555 120.299 214.61 120.896C214.718 121.494 214.284 122.092 213.686 122.146C213.632 122.146 209.502 122.798 205.59 126.112C204.558 126.982 203.634 128.068 202.602 129.209C199.559 132.687 196.191 136.49 190.051 136.49Z" fill="#1C3177"/>
<path d="M221.672 116.224L226.236 112.366C226.725 111.986 227.377 112.04 227.757 112.529C228.083 112.964 228.029 113.561 227.594 113.942L222.976 118.017L221.672 116.224Z" fill="#1C3177"/>
<path d="M218.848 112.964L223.412 109.106C223.901 108.726 224.553 108.78 224.933 109.269C225.259 109.704 225.205 110.301 224.77 110.682L220.152 114.757L218.848 112.964Z" fill="#1C3177"/>
<path d="M224.877 118.234C224.877 118.234 223.084 120.353 220.313 122.798C217.542 125.189 213.956 124.754 212.326 122.907C212.218 122.798 212.163 122.689 212.055 122.581C210.642 120.625 210.588 117.962 212.707 116.061C214.934 113.996 218.629 111.062 218.629 111.062L223.084 116.224L224.877 118.234Z" fill="#E1ECFF"/>
<path d="M224.877 118.234C224.877 118.234 223.084 120.353 220.313 122.798C217.542 125.189 213.956 124.754 212.326 122.907C212.218 122.798 212.163 122.689 212.055 122.581C213.359 122.581 215.586 122.309 217.597 120.951C219.281 119.81 221.454 117.799 223.03 116.224L224.877 118.234Z" fill="#C5DFFF"/>
<path d="M141.748 159.853C141.694 159.853 141.585 159.853 141.531 159.853C137.836 159.799 128.219 152.573 125.774 149.204C123.275 145.835 121.047 141.543 124.09 138.772C124.687 138.229 125.557 137.848 126.535 137.685C128.002 137.414 129.795 137.74 131.316 138.718C133.924 140.402 141.259 148.932 143.324 152.573C145.334 156.159 145.28 159.799 141.748 159.853Z" fill="#1C3177"/>
<path d="M141.748 159.853C142.292 159.527 142.672 158.984 142.998 157.897C143.541 155.996 141.64 152.192 135.391 144.912C131.642 140.511 128.437 138.555 126.535 137.685C128.002 137.414 129.795 137.74 131.316 138.718C133.924 140.402 141.259 148.932 143.324 152.573C145.334 156.159 145.28 159.799 141.748 159.853Z" fill="#384D89"/>
<path d="M123.383 141.108C123.926 139.587 127.078 139.859 129.794 142.521C132.511 145.183 136.64 150.454 135.608 152.736C134.576 155.018 130.664 153.17 127.458 150.019C124.252 146.868 122.514 143.553 123.383 141.108Z" fill="#142966"/>
<path d="M130.231 147.9C130.122 149.639 129.47 150.726 129.47 150.726C129.47 150.726 114.855 157.68 96.5442 144.912C77.9078 131.926 77.8535 115.735 77.8535 115.572C87.4162 106.227 98.1742 116.496 98.1742 116.496C98.1742 116.496 98.8262 122.309 101.76 128.177C103.445 131.546 105.89 134.969 109.367 137.251C118.06 142.956 127.08 141.217 127.08 141.217C127.08 141.217 128.818 141.761 129.851 145.075C130.231 146.053 130.34 147.085 130.231 147.9Z" fill="#E1ECFF"/>
<path d="M130.231 147.9C130.122 149.639 129.47 150.726 129.47 150.726C129.47 150.726 114.855 157.68 96.5442 144.912C77.9078 131.926 77.8535 115.735 77.8535 115.572C87.4162 106.227 98.1742 116.496 98.1742 116.496C98.1742 116.496 98.8262 122.309 101.76 128.177C100.293 129.264 98.4459 130.405 97.0332 130.84C94.0449 131.709 90.8392 131.709 90.8392 131.709C90.8392 131.709 100.022 145.455 113.605 147.955C120.94 149.204 126.591 148.661 130.231 147.9Z" fill="#C5DFFF"/>
<path d="M109.748 150.671C109.476 150.671 109.204 150.508 109.096 150.182C108.933 149.802 109.15 149.421 109.53 149.258C109.585 149.258 112.519 148.117 113.388 145.727C114.312 143.282 113.551 141.326 113.551 141.326C113.388 140.945 113.605 140.565 113.931 140.402C114.312 140.239 114.692 140.456 114.855 140.782C114.909 140.891 115.779 143.282 114.692 146.216C113.551 149.258 110.128 150.508 109.965 150.562C109.911 150.671 109.802 150.671 109.748 150.671Z" fill="#C5DFFF"/>
<path d="M97.1419 145.075C96.7615 145.075 96.4355 144.803 96.4355 144.423C96.4355 144.042 96.7072 143.716 97.0875 143.662C97.1419 143.662 100.945 143.39 102.847 140.891C104.749 138.392 104.64 135.838 104.64 135.784C104.586 135.403 104.912 135.023 105.292 135.023C105.672 134.969 106.053 135.295 106.053 135.675C106.053 135.784 106.27 138.772 103.988 141.76C101.652 144.749 97.3592 145.02 97.1419 145.075Z" fill="#C5DFFF"/>
<path d="M71.3831 134.806C71.1658 135.295 70.8941 135.784 70.5138 136.273C69.8074 137.196 68.9924 137.74 68.2318 138.12C67.1451 138.663 66.2758 138.772 66.2758 138.772C66.2758 138.772 58.6148 131.328 51.9318 118.071C45.2488 104.868 44.7598 89.6547 44.7598 89.6547C45.3574 89.3287 45.9551 89.0571 46.4984 88.8397C48.5631 88.0247 50.4648 87.9704 52.0404 88.1877C54.4311 88.5137 55.9524 89.5461 55.9524 89.5461C55.9524 89.5461 56.3871 102.151 60.8424 113.507C65.2978 124.917 71.8178 131.654 71.8178 131.654C71.8178 131.654 72.0894 133.121 71.3831 134.806Z" fill="#E1ECFF"/>
<path d="M71.384 134.806C68.9934 132.687 64.4294 127.851 60.0284 118.506C54.758 107.313 52.639 92.9147 52.0957 88.1877C54.4864 88.5137 56.0077 89.5461 56.0077 89.5461C56.0077 89.5461 56.4424 102.151 60.8977 113.507C65.353 124.917 71.873 131.654 71.873 131.654C71.873 131.654 72.0904 133.121 71.384 134.806Z" fill="#F8FBFF"/>
<path d="M68.2318 138.12C67.1451 138.663 66.2758 138.772 66.2758 138.772C66.2758 138.772 58.6148 131.328 51.9318 118.071C45.2488 104.868 44.7598 89.6547 44.7598 89.6547C45.3574 89.3287 45.9551 89.0571 46.4984 88.8397C46.8788 93.7297 48.6718 109.812 56.2784 122.418C61.4944 131.002 65.6781 135.675 68.2318 138.12Z" fill="#C5DFFF"/>
<path d="M83.3937 145.944C83.3937 145.944 80.5683 147.628 77.254 146.868C73.9397 146.107 72.69 145.02 72.69 145.02C72.69 145.02 71.6033 143.39 72.4183 142.467C72.4727 142.412 72.4727 142.412 72.527 142.358C73.5593 141.434 74.972 141.271 74.972 141.271C74.972 141.271 76.928 142.793 78.3407 143.282C79.7533 143.771 82.2527 143.282 83.1763 143.879C83.611 144.151 83.6653 144.64 83.611 145.075C83.611 145.564 83.3937 145.944 83.3937 145.944Z" fill="#E1ECFF"/>
<path d="M83.3937 145.944C83.3937 145.944 80.5683 147.628 77.254 146.868C73.9397 146.107 72.69 145.02 72.69 145.02C72.69 145.02 71.6033 143.39 72.4183 142.467C73.3963 143.39 75.7327 145.401 78.4493 145.727C80.677 145.998 82.5243 145.509 83.611 145.075C83.611 145.564 83.3937 145.944 83.3937 145.944Z" fill="#C5DFFF"/>
<path d="M82.3627 144.423C79.5374 144.857 77.5271 144.097 76.0057 143.282C74.4844 142.467 73.8867 141.434 73.8867 141.434C73.8867 141.434 73.8867 140.185 74.7017 139.533C75.1364 139.152 75.8427 138.989 76.9294 139.315C76.9294 139.315 79.0484 141.163 82.5801 139.913C86.1117 138.663 85.8944 137.903 86.6551 137.685C87.1984 137.522 87.9047 138.337 88.0677 139.261C88.1764 139.696 88.1221 140.13 87.9591 140.511C87.3614 141.706 85.1881 143.934 82.3627 144.423Z" fill="#E1ECFF"/>
<path d="M82.3627 144.423C79.5374 144.857 77.5271 144.097 76.0057 143.282C74.4844 142.467 73.8867 141.434 73.8867 141.434C73.8867 141.434 73.8867 140.185 74.7017 139.533C76.0057 140.837 78.8311 143.173 81.9281 142.575C84.9707 141.978 87.1441 140.185 88.1221 139.261C88.2307 139.696 88.1764 140.13 88.0134 140.511C87.3614 141.706 85.1881 143.934 82.3627 144.423Z" fill="#C5DFFF"/>
<path d="M81.764 140.837C79.0473 141.271 77.1457 140.511 75.733 139.75C74.266 138.989 73.7227 138.011 73.7227 138.011C73.7227 138.011 73.7227 136.816 74.4833 136.164C74.918 135.784 75.57 135.621 76.6023 135.947C76.6023 135.947 78.6127 137.685 81.9813 136.49C85.35 135.295 85.1327 134.588 85.839 134.371C86.328 134.208 87.0343 135.023 87.1973 135.892C87.306 136.273 87.2517 136.707 87.0887 137.088C86.491 138.283 84.4263 140.402 81.764 140.837Z" fill="#E1ECFF"/>
<path d="M81.764 140.837C79.0473 141.271 77.1457 140.511 75.733 139.75C74.266 138.989 73.7227 138.011 73.7227 138.011C73.7227 138.011 73.7227 136.816 74.4833 136.164C75.6787 137.414 78.3953 139.641 81.3293 139.044C84.209 138.446 86.2737 136.762 87.1973 135.892C87.306 136.273 87.2517 136.707 87.0887 137.088C86.491 138.283 84.4263 140.402 81.764 140.837Z" fill="#C5DFFF"/>
<path d="M81.3829 138.12C79.0466 138.881 77.1993 138.5 75.8409 138.011C74.4283 137.522 73.8306 136.762 73.8306 136.762C73.8306 136.762 73.6676 135.675 74.3196 135.023C74.6456 134.643 75.2433 134.425 76.2213 134.534C76.2213 134.534 78.2316 135.784 81.1113 134.317C83.9909 132.795 83.7193 132.198 84.3169 131.872C84.7516 131.654 85.4579 132.252 85.7296 133.013C85.8383 133.339 85.8926 133.719 85.7839 134.099C85.3493 135.186 83.7193 137.359 81.3829 138.12Z" fill="#E1ECFF"/>
<path d="M81.3829 138.12C79.0466 138.881 77.1993 138.5 75.8409 138.011C74.4283 137.522 73.8306 136.762 73.8306 136.762C73.8306 136.762 73.6676 135.675 74.3196 135.023C75.5693 135.947 78.2316 137.577 80.7853 136.653C83.3389 135.729 84.9689 133.936 85.6753 133.013C85.7839 133.339 85.8383 133.719 85.7296 134.099C85.3493 135.186 83.7193 137.359 81.3829 138.12Z" fill="#C5DFFF"/>
<path d="M79.4814 135.512C79.4814 135.512 79.3184 136.436 78.9381 137.685C78.5034 139.098 77.8514 140.837 76.8734 142.195C76.4388 142.738 76.0041 143.227 75.5694 143.608C74.1024 144.966 72.7441 145.238 72.7441 145.238C72.7441 145.238 68.5604 141.217 67.3651 139.859C66.1698 138.555 65.1918 137.142 65.1918 137.142C65.1918 137.142 64.8658 135.621 65.1918 133.991C65.3548 133.121 65.6808 132.198 66.3328 131.491C66.6588 131.165 67.0391 130.894 67.3651 130.676C69.1581 129.753 71.2228 130.459 71.2228 130.459C71.2228 130.459 75.2434 132.958 77.0364 133.936C78.8294 134.914 79.4814 135.512 79.4814 135.512Z" fill="#E1ECFF"/>
<path d="M79.4816 135.512C79.4816 135.512 79.3186 136.436 78.9382 137.685C78.1232 137.251 76.6562 136.327 74.7002 134.914C72.1466 133.121 68.5062 131.274 67.3652 130.676C69.1582 129.753 71.2229 130.459 71.2229 130.459C71.2229 130.459 75.2436 132.958 77.0366 133.936C78.8296 134.914 79.4816 135.512 79.4816 135.512Z" fill="#F8FBFF"/>
<path d="M75.5694 143.553C74.1024 144.857 72.7441 145.183 72.7441 145.183C72.7441 145.183 68.5604 141.108 67.3651 139.804C66.1698 138.5 65.1918 137.088 65.1918 137.088C65.1918 137.088 64.8658 135.566 65.1918 133.936C66.8761 135.838 71.3858 140.728 74.5371 142.793C74.9174 143.119 75.2978 143.336 75.5694 143.553Z" fill="#C5DFFF"/>
<path d="M60.0272 129.644C59.2122 129.59 58.7232 129.318 58.6688 129.318C58.3428 129.155 58.2342 128.72 58.3972 128.394C58.5602 128.068 58.9405 127.905 59.2665 128.068C59.3208 128.123 60.8422 128.829 62.8525 127.525C64.8628 126.221 65.1888 124.591 65.1888 124.537C65.2432 124.156 65.5692 123.885 65.9495 123.993C66.2755 124.048 66.5472 124.428 66.4928 124.808C66.4928 124.917 66.1125 127.09 63.5588 128.775C62.0918 129.59 60.8965 129.698 60.0272 129.644Z" fill="#C5DFFF"/>
<path d="M54.2147 118.723C53.0737 118.614 52.313 118.234 52.2587 118.234C51.9327 118.071 51.824 117.636 51.987 117.31C52.15 116.984 52.5303 116.821 52.802 116.984C52.8563 117.039 54.758 117.962 57.2573 116.821C59.7023 115.735 60.137 114.159 60.137 114.05C60.2457 113.67 60.5717 113.453 60.8977 113.561C61.2237 113.67 61.441 114.05 61.3323 114.431C61.3323 114.539 60.7347 116.713 57.692 118.125C56.3337 118.723 55.1383 118.832 54.2147 118.723Z" fill="#C5DFFF"/>
<path d="M50.0843 106.498C48.5086 106.389 47.6936 105.737 47.6393 105.683C47.3676 105.466 47.3133 105.031 47.5306 104.705C47.7479 104.379 48.1283 104.325 48.4543 104.596C48.5086 104.596 49.7039 105.52 52.3663 104.977C55.7349 104.27 56.6586 102.966 56.7129 102.912C56.9303 102.586 57.3106 102.532 57.6366 102.749C57.9083 102.966 57.9626 103.401 57.7453 103.727C57.6366 103.89 56.4413 105.466 52.6379 106.335C51.6056 106.552 50.7906 106.552 50.0843 106.498Z" fill="#C5DFFF"/>
<path d="M58.126 97.4243C58.126 97.4243 54.866 99.1087 50.2476 99.0543C47.9656 99 46.39 98.5653 45.3576 98.0763C44.271 97.5873 43.782 97.0983 43.782 97.0983C43.782 97.0983 43.8363 96.1203 43.6733 92.9147C43.13 82.8087 47.694 81.5047 50.6823 81.396C51.3886 81.396 52.1493 81.5047 52.8013 81.722C54.9746 82.4827 56.822 84.4387 57.5283 86.8293C58.452 90.1437 58.126 97.4243 58.126 97.4243Z" fill="#1C3177"/>
<path d="M51.4426 87.6443C48.0196 89.4917 46.607 88.2963 46.607 88.2963C46.607 88.2963 45.792 91.0673 45.4116 96.555C45.3573 97.0983 45.3573 97.6417 45.303 98.0763C44.2163 97.5873 43.7273 97.0983 43.7273 97.0983C43.7273 97.0983 43.7816 96.1203 43.6186 92.9147C43.0753 82.8087 47.6393 81.5047 50.6276 81.396C51.334 81.396 52.0946 81.5047 52.7466 81.722C53.616 83.189 54.594 85.96 51.4426 87.6443Z" fill="#384D89"/>
<path d="M120.83 104.596C120.667 105.466 120.504 106.281 120.287 107.096C118.983 112.149 116.701 116.224 113.495 118.886C104.313 126.547 91.7073 130.622 75.516 120.136C62.5847 111.768 50.6857 92.8059 46.3933 85.4709C45.3067 83.6236 44.709 82.4826 44.709 82.4826C44.709 82.4826 52.1527 82.1023 63.8887 76.7233C68.7243 74.4956 74.3207 71.3986 80.4603 67.1606C91.0553 59.7713 97.195 52.8709 100.727 47.4919C104.91 41.1893 105.508 37.0599 105.508 37.0599C105.508 37.0599 106.54 38.9616 108.333 43.1453C110.507 48.3069 113.767 56.8916 117.461 69.6056C121.428 83.2976 122.514 95.4139 120.83 104.596Z" fill="#E1ECFF"/>
<path d="M108.333 43.1453C107.083 45.6446 105.345 48.5786 103.063 51.7843C98.6073 57.8696 91.9786 64.8786 82.1986 71.1813C76.1676 75.0933 70.7886 77.9186 66.0616 79.9833C56.3903 84.2756 49.7073 85.2536 46.3386 85.4166C45.252 83.5693 44.6543 82.4283 44.6543 82.4283C44.6543 82.4283 52.098 82.048 63.834 76.6689C68.6696 74.4413 74.266 71.3443 80.4056 67.1063C91.0006 59.717 97.1403 52.8166 100.672 47.4376C104.856 41.135 105.453 37.0056 105.453 37.0056C105.453 37.0056 106.594 39.016 108.333 43.1453Z" fill="#1C3177"/>
<path d="M120.287 107.096C118.983 112.149 116.701 116.224 113.495 118.886C104.313 126.547 91.7073 130.622 75.516 120.136C62.5846 111.768 50.6857 92.8059 46.3933 85.4709C45.3067 83.6236 44.709 82.4826 44.709 82.4826C44.709 82.4826 52.1527 82.1023 63.8887 76.7233C68.507 83.8953 78.7217 98.7283 88.7733 107.476C100.455 117.691 113.767 111.66 120.287 107.096Z" fill="#C5DFFF"/>
<path d="M66.0616 80.0376C56.3903 84.3299 49.7073 85.3079 46.3386 85.4709C45.252 83.6236 44.6543 82.4826 44.6543 82.4826C44.6543 82.4826 52.098 82.1023 63.834 76.7233C64.486 77.7013 65.2466 78.8423 66.0616 80.0376Z" fill="#142966"/>
<path d="M119.309 99.3259C117.95 93.7296 116.103 86.6662 113.767 79.1682C110.018 66.9976 105.78 57.5979 103.443 53.5229C106.703 48.5786 107.301 46.5682 107.301 46.5682C107.301 46.5682 108.116 48.0896 109.529 51.3496C111.213 55.3702 113.767 62.1076 116.646 72.0506C119.798 82.6999 120.667 92.1539 119.309 99.3259Z" fill="#F8FBFF"/>
<path d="M108.333 43.1453C107.084 45.6446 105.345 48.5786 103.063 51.7843C102.194 50.1 101.433 48.633 100.727 47.4376C104.91 41.135 105.508 37.0056 105.508 37.0056C105.508 37.0056 106.595 39.016 108.333 43.1453Z" fill="#384D89"/>
<path d="M91.3267 103.89C91.3267 103.89 86.4367 107.585 76.4937 111.714C73.7227 112.855 71.006 113.833 68.561 114.648C68.3437 114.431 68.1264 114.213 67.909 113.996C60.9544 107.313 54.7061 98.674 50.4681 92.154C50.1964 91.7737 49.9791 91.3933 49.7617 91.0673C50.1964 90.9586 57.4771 89.1113 66.3334 85.145C75.5157 81.07 77.852 79.2227 77.852 79.2227L91.3267 103.89Z" fill="#E1ECFF"/>
<path d="M89.8057 103.836C89.8057 103.836 85.4047 107.367 76.0594 111.062C73.1797 112.203 70.3001 113.181 67.8551 113.996C60.9004 107.313 54.6521 98.674 50.4141 92.154L51.2834 91.9367C51.2834 91.9367 58.1294 90.198 66.6054 86.449C75.0814 82.6457 77.4721 81.396 77.4721 81.396L89.8057 103.836Z" fill="#1C3177"/>
<path d="M65.5716 105.955C65.4086 105.955 65.1913 105.9 65.0826 105.792L59.1059 100.467L58.7256 101.608C58.5626 101.988 58.1823 102.206 57.8019 102.043C57.4216 101.88 57.2043 101.499 57.3673 101.119L58.1279 98.9457C58.2366 98.7284 58.3996 98.511 58.6169 98.4567C58.8343 98.4024 59.1059 98.4567 59.3233 98.6197L64.5936 103.292L64.3219 101.173C64.2676 100.847 64.4306 100.521 64.7566 100.413L82.7409 92.643C83.1213 92.48 83.5559 92.643 83.7189 93.0234C83.8819 93.4037 83.7189 93.8383 83.3386 94.0013L65.8433 101.554L66.3323 105.085C66.3866 105.411 66.2236 105.683 65.9519 105.846C65.7889 105.9 65.6803 105.955 65.5716 105.955Z" fill="#FFCE94"/>
<path d="M105.507 37.06C105.507 37.06 104.692 42.8736 98.444 50.9693C94.858 55.642 89.4247 61.0753 81.2747 66.6173C67.9087 75.7453 57.368 79.603 51.0653 81.2873C46.936 82.374 44.654 82.4826 44.654 82.4826C44.654 82.4826 31.0163 59.228 33.244 38.1466C33.8417 32.659 35.526 28.095 38.0797 24.346C39.927 21.575 42.209 19.293 44.817 17.3913C52.3693 11.958 62.5297 10.0563 72.4183 11.2516C90.457 13.4793 105.507 37.06 105.507 37.06Z" fill="#FEC272"/>
<path d="M105.508 37.0601C105.508 37.0601 105.127 39.6681 103.063 43.7974C102.03 45.8621 100.563 48.3071 98.4443 51.0237C94.8583 55.6964 89.425 61.1297 81.275 66.6717C66.8766 76.4517 55.7383 80.2007 49.7073 81.6677C46.4473 82.4284 44.6543 82.5371 44.6543 82.5371C44.6543 82.3741 44.7086 69.8774 65.0293 54.0121C85.4586 37.9837 105.508 37.0601 105.508 37.0601Z" fill="#FCAD4F"/>
<path d="M103.062 43.7972C102.03 45.8619 100.563 48.3069 98.444 51.0236C94.858 55.6962 89.4247 61.1296 81.2747 66.6716C66.8764 76.4516 55.738 80.2006 49.707 81.6676C51.989 76.4516 56.9877 68.7362 68.2347 59.9342C82.0354 49.1219 95.673 45.2099 103.062 43.7972Z" fill="#F99D3A"/>
<path d="M105.506 37.06C105.506 37.06 104.691 42.8736 98.443 50.9693C94.9657 44.9926 91.8687 41.2436 91.8687 41.2436C91.8687 41.2436 83.8817 48.47 77.3617 43.3083C70.8417 38.0923 75.7317 28.5296 75.7317 28.5296C75.7317 28.5296 69.1574 21.4663 58.4537 19.1843C53.1291 18.0433 48.2934 17.5543 44.7617 17.3913C52.3141 11.958 62.4744 10.0563 72.363 11.2516C90.456 13.4793 105.506 37.06 105.506 37.06Z" fill="#FFDBB3"/>
<path d="M51.12 81.2873C46.9907 82.3739 44.7087 82.4826 44.7087 82.4826C44.7087 82.4826 31.071 59.2279 33.2987 38.1466C33.8964 32.6589 35.5807 28.0949 38.1344 24.3459C37.5367 30.5943 37.0477 45.0469 42.0464 60.6406C44.5457 68.5733 47.9144 75.6366 51.12 81.2873Z" fill="#FFDBB3"/>
<path d="M113.168 175.936C113.168 176.262 113.168 176.588 113.114 176.968C112.897 180.174 103.062 180.772 96.2165 181.098C89.4791 181.424 82.3615 179.522 84.8065 177.294C84.8608 177.24 84.8608 177.24 84.9151 177.186C86.6538 175.719 90.0225 174.034 93.7715 172.676C95.9448 171.861 98.1725 171.209 100.4 170.666C103.334 169.959 109.311 168.547 111.267 170.014C111.647 170.285 111.973 170.72 112.245 171.209C112.842 172.35 113.168 174.034 113.168 175.936Z" fill="#1C3177"/>
<path d="M113.168 175.936C113.168 176.262 113.168 176.588 113.114 176.968C112.897 180.174 103.062 180.772 96.2165 181.098C89.4791 181.424 82.3615 179.522 84.8065 177.294C86.2735 178.164 89.4791 179.196 96.1621 178.924C105.29 178.544 110.832 177.023 113.168 175.936Z" fill="#384D89"/>
<path d="M112.191 171.209C111.756 171.644 111.05 172.078 110.235 172.513C107.627 173.817 99.6942 175.23 94.8586 174.415C92.7396 174.034 92.9026 173.382 93.7176 172.676C95.8909 171.861 98.1186 171.209 100.346 170.666C103.28 169.959 109.257 168.547 111.213 170.014C111.593 170.285 111.919 170.72 112.191 171.209Z" fill="#142966"/>
<path d="M99.9656 145.129C102.139 159.038 110.072 169.688 110.072 169.688C110.072 169.688 109.311 170.774 107.79 171.752C107.138 172.187 106.377 172.513 105.453 172.839C104.041 173.274 102.519 173.274 101.215 173.165C99.6396 173.002 98.4986 172.676 98.4986 172.676C98.4986 172.676 84.9696 155.235 83.2853 135.349C81.6009 115.463 92.3046 105.466 92.3046 105.466C92.3046 105.466 92.4133 105.411 92.5219 105.303C93.6086 104.596 98.3899 101.988 104.149 105.248C104.584 105.466 104.964 105.737 105.29 105.955C109.691 108.834 110.343 111.768 110.343 111.768C110.343 111.768 107.355 114.376 105.127 118.288C102.9 122.092 97.7923 131.22 99.9656 145.129Z" fill="#E1ECFF"/>
<path d="M99.9657 145.129C102.139 159.038 110.072 169.688 110.072 169.688C110.072 169.688 109.311 170.774 107.79 171.752C103.823 166.265 94.315 149.639 94.641 133.828C94.9127 119.375 102.411 109.323 105.345 105.955C109.746 108.834 110.398 111.768 110.398 111.768C110.398 111.768 107.409 114.376 105.182 118.288C102.9 122.092 97.7923 131.22 99.9657 145.129Z" fill="#C5DFFF"/>
<path d="M101.161 173.111C99.5849 172.948 98.4439 172.622 98.4439 172.622C98.4439 172.622 84.9149 155.181 83.2306 135.295C81.5463 115.409 92.2499 105.411 92.2499 105.411C92.2499 105.411 92.3586 105.357 92.4673 105.248C90.4026 109.486 85.7843 120.462 86.2189 132.85C86.7623 148.769 93.6626 161.049 98.4983 168.873C99.4219 170.448 100.346 171.861 101.161 173.111Z" fill="#F8FBFF"/>
<path d="M90.8372 158.984C90.6742 158.984 90.4568 158.93 90.3482 158.767C90.0765 158.495 90.0222 158.006 90.2938 157.735C90.3482 157.68 91.9238 156.05 95.0752 155.072C98.2808 154.094 101.813 155.181 101.976 155.235C102.356 155.344 102.573 155.779 102.465 156.159C102.356 156.539 101.921 156.757 101.541 156.648C101.487 156.648 98.2808 155.67 95.5098 156.485C92.7388 157.354 91.3805 158.713 91.3805 158.767C91.2718 158.93 91.0545 158.984 90.8372 158.984Z" fill="#C5DFFF"/>
<path d="M85.2413 141.597C84.9696 141.597 84.7523 141.489 84.5893 141.217C84.372 140.837 84.4806 140.402 84.861 140.185C84.9696 140.13 88.1753 138.283 91.8156 138.12C95.5103 137.903 98.6073 140.022 98.716 140.13C99.042 140.348 99.1506 140.837 98.879 141.163C98.6616 141.489 98.1726 141.597 97.8466 141.326C97.7923 141.326 95.0756 139.424 91.87 139.587C88.5556 139.75 85.6216 141.434 85.5673 141.489C85.513 141.597 85.35 141.597 85.2413 141.597Z" fill="#C5DFFF"/>
<path d="M100.128 127.253C99.9652 127.253 99.7479 127.199 99.6392 127.036C99.5849 126.982 95.5642 123.341 91.5435 122.852C87.6315 122.363 85.2409 124.048 85.2409 124.102C84.9149 124.319 84.4259 124.265 84.2085 123.939C83.9912 123.613 84.0455 123.124 84.3715 122.907C84.4802 122.798 87.2512 120.788 91.7609 121.385C96.2162 121.983 100.454 125.786 100.672 125.949C100.998 126.221 100.998 126.71 100.726 126.982C100.509 127.145 100.291 127.253 100.128 127.253Z" fill="#C5DFFF"/>
<path d="M147.564 111.823C147.564 111.823 146.531 115.354 143.271 117.473C140.011 119.592 138.164 119.81 138.164 119.81C138.164 119.81 136.045 119.484 136.045 118.125C136.045 118.071 136.045 118.017 136.045 117.962C136.154 116.495 137.186 115.191 137.186 115.191C137.186 115.191 139.957 114.702 141.478 113.942C143 113.181 144.63 110.736 145.825 110.464C146.423 110.356 146.803 110.627 147.129 111.008C147.455 111.388 147.564 111.823 147.564 111.823Z" fill="#E1ECFF"/>
<path d="M147.564 111.823C147.564 111.823 146.531 115.354 143.271 117.473C140.011 119.592 138.164 119.81 138.164 119.81C138.164 119.81 136.045 119.484 136.045 118.125C137.512 118.017 140.989 117.582 143.434 115.626C145.445 114.05 146.586 112.149 147.129 110.953C147.455 111.388 147.564 111.823 147.564 111.823Z" fill="#C5DFFF"/>
<path d="M145.553 111.551C143.597 114.213 141.369 115.245 139.522 115.897C137.675 116.549 136.425 116.278 136.425 116.278C136.425 116.278 135.447 115.354 135.61 114.213C135.664 113.561 136.099 112.855 137.24 112.203C137.24 112.203 140.337 111.822 142.293 108.019C144.249 104.216 143.434 103.835 143.923 103.075C144.249 102.531 145.444 102.586 146.259 103.075C146.64 103.292 146.966 103.672 147.074 104.107C147.563 105.465 147.509 108.888 145.553 111.551Z" fill="#E1ECFF"/>
<path d="M145.553 111.551C143.597 114.213 141.369 115.245 139.522 115.897C137.675 116.549 136.425 116.278 136.425 116.278C136.425 116.278 135.447 115.354 135.61 114.213C137.62 114.104 141.75 113.561 143.76 110.573C145.77 107.639 146.205 104.542 146.259 103.075C146.64 103.292 146.966 103.672 147.074 104.107C147.563 105.465 147.509 108.888 145.553 111.551Z" fill="#C5DFFF"/>
<path d="M141.913 109.866C140.065 112.366 137.946 113.398 136.153 113.996C134.415 114.593 133.219 114.322 133.219 114.322C133.219 114.322 132.296 113.452 132.459 112.366C132.513 111.768 132.948 111.062 134.034 110.464C134.034 110.464 136.968 110.138 138.816 106.498C140.663 102.912 139.902 102.531 140.337 101.771C140.663 101.282 141.75 101.282 142.565 101.771C142.945 101.988 143.217 102.314 143.38 102.749C143.814 104.107 143.76 107.367 141.913 109.866Z" fill="#E1ECFF"/>
<path d="M141.913 109.866C140.065 112.366 137.946 113.398 136.153 113.996C134.415 114.593 133.219 114.322 133.219 114.322C133.219 114.322 132.296 113.452 132.459 112.366C134.36 112.257 138.272 111.768 140.228 108.943C142.13 106.172 142.51 103.238 142.619 101.825C142.999 102.042 143.271 102.368 143.434 102.803C143.814 104.107 143.76 107.367 141.913 109.866Z" fill="#C5DFFF"/>
<path d="M140.444 114.702C140.498 116.278 140.118 117.582 139.683 118.56C139.086 119.809 138.434 120.461 138.434 120.461C138.434 120.461 124.687 125.297 110.235 113.235C102.791 107.041 96.8142 98.9455 92.7936 92.5885C88.9902 86.5575 86.8712 82.0478 86.8712 82.0478C86.8712 82.0478 85.7302 78.5162 87.8492 75.4735C88.5012 74.4955 89.4792 73.5718 91.0006 72.8112C93.5542 71.5072 95.6732 71.3985 97.3576 71.8332C100.183 72.5395 101.759 74.6585 101.759 74.6585C101.759 74.6585 103.878 79.3312 107.029 85.0905C110.724 91.7735 115.831 99.9235 120.721 103.727C129.795 110.79 137.347 108.074 137.347 108.074C137.347 108.074 138.162 108.888 138.977 110.138C139.575 111.279 140.39 112.909 140.444 114.702Z" fill="#E1ECFF"/>
<path d="M106.867 84.9818C105.726 86.7748 103.498 89.4372 99.3691 90.9585C96.7067 91.9908 94.3704 92.3712 92.6861 92.5342C88.8827 86.5032 86.7637 81.9935 86.7637 81.9935C86.7637 81.9935 84.8077 75.8538 90.8387 72.7025C97.6304 69.1708 101.597 74.5498 101.597 74.5498C101.597 74.5498 103.716 79.2768 106.867 84.9818Z" fill="#C5DFFF"/>
<path d="M139.63 118.506C139.033 119.755 138.381 120.407 138.381 120.407C138.381 120.407 124.634 125.243 110.182 113.181C102.738 106.987 96.7615 98.8912 92.7408 92.5342C88.9375 86.5032 86.8185 81.9935 86.8185 81.9935C86.8185 81.9935 85.6775 78.4619 87.7965 75.4192C89.5895 79.4942 97.2505 96.1202 106.976 105.683C118.114 116.604 124.145 117.962 134.849 118.397C136.588 118.451 138.218 118.506 139.63 118.506Z" fill="#C5DFFF"/>
<path d="M138.815 110.084C136.044 110.899 132.186 111.496 128.166 110.247C120.668 107.91 114.528 103.183 108.497 94.1098C103.553 86.6118 98.7713 75.5278 97.25 71.7788C100.075 72.4851 101.651 74.6041 101.651 74.6041C101.651 74.6041 103.77 79.2768 106.921 85.0361C110.616 91.7191 115.723 99.8692 120.613 103.672C129.687 110.736 137.239 108.019 137.239 108.019C137.239 108.019 138 108.78 138.815 110.084Z" fill="#F8FBFF"/>
<path d="M101.164 101.554C99.8057 101.554 98.9363 101.228 98.882 101.228C98.5017 101.065 98.2843 100.63 98.4473 100.25C98.6103 99.8693 99.045 99.6519 99.4253 99.8149C99.534 99.8693 102.088 100.739 105.511 98.8913C108.934 96.9896 109.749 93.6209 109.749 93.6209C109.857 93.2406 110.238 92.9689 110.618 93.0776C110.998 93.1863 111.27 93.5666 111.161 93.9469C111.107 94.1099 110.238 97.9676 106.163 100.195C104.261 101.282 102.468 101.554 101.164 101.554Z" fill="#C5DFFF"/>
<path d="M111.542 113.724C111.107 113.724 110.781 113.398 110.781 112.964C110.781 112.529 111.107 112.203 111.542 112.203C111.596 112.203 114.965 112.149 116.867 109.812C118.823 107.422 118.442 104.053 118.442 103.999C118.388 103.564 118.714 103.238 119.094 103.184C119.475 103.129 119.855 103.455 119.909 103.836C119.909 103.999 120.344 107.856 118.008 110.736C115.671 113.724 111.705 113.724 111.542 113.724Z" fill="#C5DFFF"/>
<path d="M123.494 120.081C123.222 120.081 122.896 119.918 122.787 119.592C122.624 119.212 122.842 118.777 123.222 118.614C123.276 118.614 126.319 117.365 127.134 114.05C127.949 110.682 126.808 108.725 126.754 108.671C126.536 108.345 126.645 107.856 126.971 107.639C127.297 107.421 127.786 107.53 128.003 107.856C128.057 107.965 129.579 110.41 128.546 114.376C127.514 118.451 123.874 119.918 123.711 119.972C123.657 120.081 123.602 120.081 123.494 120.081Z" fill="#C5DFFF"/>
<path d="M107.299 78.4617C107.299 78.4617 107.19 79.1137 106.81 80.0917C106.049 81.9391 104.256 84.9817 100.181 87.644C93.8787 91.719 88.2824 89.9804 88.2824 89.9804C88.2824 89.9804 84.2617 84.71 83.4467 77.4294C82.9577 73.2457 85.7287 69.9857 89.3147 68.41C91.9771 67.269 95.074 67.0517 97.5734 68.1384C103.496 70.8007 107.299 78.4617 107.299 78.4617Z" fill="#1C3177"/>
<path d="M107.299 78.4617C107.299 78.4617 107.19 79.1137 106.81 80.0917C106.81 80.0374 106.756 80.0374 106.756 79.983C101.703 73.3 97.7362 71.9417 97.7362 71.9417C97.7362 71.9417 96.2692 75.419 91.4335 73.4087C88.0649 72.0504 88.6625 69.6597 89.3689 68.41C92.0312 67.269 95.1282 67.0517 97.6275 68.1384C103.496 70.8007 107.299 78.4617 107.299 78.4617Z" fill="#384D89"/>
<path d="M41.2839 49.7195C40.2516 49.5565 39.2736 50.2085 39.0562 51.1865C38.5672 53.2512 37.8066 56.7829 37.4806 59.4995C37.2089 61.7815 37.1002 63.6832 37.0459 64.9872C36.9916 65.9109 37.6979 66.7802 38.6216 66.9432C39.7082 67.1062 40.6862 66.3455 40.7949 65.2589C40.9036 63.5745 41.1752 61.0209 41.7729 58.0869C42.3162 55.3159 42.6966 53.3599 42.9682 52.0559C43.1312 50.9692 42.3706 49.9369 41.2839 49.7195Z" fill="#1C3177"/>
<path d="M31.8845 55.5332C32.1561 54.4465 33.2971 53.8489 34.3295 54.3379C35.9595 55.0442 38.3501 56.0765 40.6321 56.8915C42.9685 57.7065 45.1418 58.5215 46.5001 59.0649C47.4238 59.3909 47.9128 60.3688 47.6955 61.3468C47.4238 62.3792 46.3371 63.0312 45.3048 62.7052C43.5118 62.2162 40.6865 61.2925 37.6981 60.0429C35.0358 58.9019 33.5145 58.0325 32.5908 57.4892C31.9931 57.0545 31.7215 56.2939 31.8845 55.5332Z" fill="#1C3177"/>
<path d="M64.6483 36.4624C63.3443 36.245 62.0947 37.1144 61.7687 38.4184C61.171 41.135 60.3017 45.699 59.9213 49.285C59.6497 52.2734 59.4867 54.7184 59.4867 56.4027C59.4323 57.6524 60.356 58.6847 61.5513 58.8477C62.964 59.065 64.2137 58.0327 64.3223 56.62C64.431 54.4467 64.757 51.1324 65.3547 47.329C65.9523 43.6887 66.4413 41.135 66.713 39.4507C67.039 38.038 66.061 36.6797 64.6483 36.4624Z" fill="#1C3177"/>
<path d="M52.5852 44.2864C52.9112 42.8738 54.4326 42.1131 55.7366 42.6564C57.8556 43.5258 60.9526 44.7754 63.9409 45.8078C66.9836 46.8401 69.8089 47.8181 71.6019 48.4701C72.7972 48.9048 73.5036 50.1544 73.1776 51.4041C72.8516 52.7624 71.4389 53.6318 70.0806 53.2514C67.7442 52.6538 64.1039 51.5671 60.1919 49.9914C56.7146 48.5788 54.7042 47.4921 53.5632 46.7858C52.8026 46.1881 52.3679 45.2101 52.5852 44.2864Z" fill="#1C3177"/>
<path d="M248.568 140.293C248.568 140.293 251.339 141.108 253.35 143.445C255.36 145.835 255.632 149.693 255.632 149.693L266.607 144.586C266.607 144.586 261.065 146.705 259.218 143.01C257.37 139.315 263.51 133.447 263.51 133.447C263.51 133.447 256.718 138.989 254.056 138.174C251.394 137.359 250.959 134.045 250.959 134.045L248.568 140.293Z" fill="#FEC272"/>
<path d="M238.191 139.043L240.147 139.098L243.189 116.821L236.289 115.517L238.191 139.043Z" fill="#D2E9FF"/>
<path d="M242.973 139.152L247.537 118.288L254.111 121.494L244.168 139.695L242.973 139.152Z" fill="#D2E9FF"/>
<path d="M25.5265 33.8545L24.3855 36.3538L0.533203 29.0188L3.73887 19.6191L25.5265 33.8545Z" fill="#FEC272"/>
<path d="M29.1133 25.5958L26.9943 28.6385L0.0449219 8.10047L7.48859 0.330811L29.1133 25.5958Z" fill="#FEC272"/>
</g>
<defs>
<clipPath id="clip0_2679_13344">
<rect width="267" height="184" fill="white"/>
</clipPath>
</defs>
</svg>
