<svg width="48" height="48" viewBox="0 0 48 48" fill="none" xmlns="http://www.w3.org/2000/svg">
<path d="M41 20.38H35.22C30.48 20.38 26.62 16.52 26.62 11.78V6C26.62 4.9 25.72 4 24.62 4H16.14C9.98 4 5 8 5 15.14V32.86C5 40 9.98 44 16.14 44H31.86C38.02 44 43 40 43 32.86V22.38C43 21.28 42.1 20.38 41 20.38ZM24.56 31.56L20.56 35.56C20.42 35.7 20.24 35.82 20.06 35.88C19.88 35.96 19.7 36 19.5 36C19.3 36 19.12 35.96 18.94 35.88C18.78 35.82 18.62 35.7 18.5 35.58C18.48 35.56 18.46 35.56 18.46 35.54L14.46 31.54C13.88 30.96 13.88 30 14.46 29.42C15.04 28.84 16 28.84 16.58 29.42L18 30.88V22.5C18 21.68 18.68 21 19.5 21C20.32 21 21 21.68 21 22.5V30.88L22.44 29.44C23.02 28.86 23.98 28.86 24.56 29.44C25.14 30.02 25.14 30.98 24.56 31.56Z" fill="url(#paint0_linear_2659_12142)"/>
<path d="M34.8604 17.62C36.7604 17.64 39.4004 17.64 41.6603 17.64C42.8004 17.64 43.4003 16.3 42.6003 15.5C39.7203 12.6 34.5604 7.37999 31.6004 4.41999C30.7804 3.59999 29.3604 4.15999 29.3604 5.29999V12.28C29.3604 15.2 31.8404 17.62 34.8604 17.62Z" fill="url(#paint1_linear_2659_12142)"/>
<defs>
<linearGradient id="paint0_linear_2659_12142" x1="5" y1="4" x2="47.3042" y2="58.2929" gradientUnits="userSpaceOnUse">
<stop stop-color="#00B5D9"/>
<stop offset="1" stop-color="#003CC5"/>
</linearGradient>
<linearGradient id="paint1_linear_2659_12142" x1="29.3604" y1="4.03027" x2="43.5584" y2="23.2059" gradientUnits="userSpaceOnUse">
<stop stop-color="#00B5D9"/>
<stop offset="1" stop-color="#003CC5"/>
</linearGradient>
</defs>
</svg>
