<svg width="24" height="24" viewBox="0 0 24 24" fill="none" xmlns="http://www.w3.org/2000/svg">
<path d="M15.0001 6.25001C15.4101 6.25001 15.7501 6.59001 15.7501 7.00001V11.19L16.4701 10.47C16.7601 10.18 17.2401 10.18 17.5301 10.47C17.8201 10.76 17.8201 11.24 17.5301 11.53L15.5301 13.53C15.3201 13.74 14.9901 13.81 14.7101 13.69C14.4301 13.58 14.2501 13.3 14.2501 13V7.00001C14.2501 6.59001 14.5901 6.25001 15.0001 6.25001Z" fill="#677294"/>
<path d="M13.0001 10.2501C13.1901 10.2501 13.3801 10.3201 13.5301 10.4701L15.5301 12.4701C15.8201 12.7601 15.8201 13.2401 15.5301 13.5301C15.2401 13.8201 14.7601 13.8201 14.4701 13.5301L12.4701 11.5301C12.1801 11.2401 12.1801 10.7601 12.4701 10.4701C12.6201 10.3201 12.8101 10.2501 13.0001 10.2501Z" fill="#677294"/>
<path d="M9 1.25H15C20.43 1.25 22.75 3.57 22.75 9V15C22.75 20.43 20.43 22.75 15 22.75H10C9.59 22.75 9.25 22.41 9.25 22C9.25 21.59 9.59 21.25 10 21.25H15C19.61 21.25 21.25 19.61 21.25 15V9C21.25 4.39 19.61 2.75 15 2.75H9C4.39 2.75 2.75 4.39 2.75 9V14C2.75 14.41 2.41 14.75 2 14.75C1.59 14.75 1.25 14.41 1.25 14V9C1.25 3.57 3.57 1.25 9 1.25Z" fill="#677294"/>
<path d="M2 13.25L6 13.25C9.42 13.25 10.75 14.58 10.75 18V22C10.75 22.3 10.57 22.58 10.29 22.69C10.01 22.81 9.69 22.74 9.47 22.53L1.47 14.53C1.26 14.32 1.19 13.99 1.31 13.71C1.43 13.43 1.7 13.25 2 13.25ZM9.25 20.19V18C9.25 15.42 8.58 14.75 6 14.75H3.81L9.25 20.19Z" fill="#677294"/>
</svg>
