<svg width="24" height="24" viewBox="0 0 24 24" fill="none" xmlns="http://www.w3.org/2000/svg">
<path fill-rule="evenodd" clip-rule="evenodd" d="M12 3.50024C7.30621 3.50024 3.5 7.30646 3.5 12.0002C3.5 16.694 7.30621 20.5002 12 20.5002C16.6947 20.5002 20.5 16.6941 20.5 12.0002C20.5 7.30641 16.6947 3.50024 12 3.50024ZM2 12.0002C2 6.47803 6.47779 2.00024 12 2.00024C17.5233 2.00024 22 6.47808 22 12.0002C22 17.5224 17.5233 22.0002 12 22.0002C6.47779 22.0002 2 17.5225 2 12.0002Z" fill="#7F92A0"/>
<path d="M10.6667 10C10.6667 11.104 10.0693 12 9.33333 12C8.59733 12 8 11.104 8 10C8 8.896 8.59733 8 9.33333 8C10.0693 8 10.6667 8.896 10.6667 10ZM16 10C16 11.104 15.4027 12 14.6667 12C13.9307 12 13.3333 11.104 13.3333 10C13.3333 8.896 13.9307 8 14.6667 8C15.4027 8 16 8.896 16 10Z" fill="#7F92A0"/>
<path fill-rule="evenodd" clip-rule="evenodd" d="M16.8834 14.5719C17.0887 14.912 17.0158 15.3794 16.7204 15.6159C15.4652 16.6208 13.8106 17.2031 11.9996 17.2031C10.1884 17.2031 8.53474 16.6207 7.27957 15.6159C6.98423 15.3794 6.91127 14.912 7.1166 14.5719C7.32195 14.2318 7.72783 14.1478 8.02318 14.3843C9.03633 15.1954 10.4238 15.7031 11.9996 15.7031C13.5754 15.7031 14.9637 15.1954 15.9768 14.3843C16.2722 14.1478 16.6781 14.2318 16.8834 14.5719Z" fill="#7F92A0"/>
</svg>
