<svg width="24" height="24" viewBox="0 0 24 24" fill="none" xmlns="http://www.w3.org/2000/svg">
<path d="M8.7595 1.73002H8.8895C13.3295 1.73002 15.4695 3.48002 15.8395 7.40002C15.8795 7.81002 15.5795 8.18002 15.1595 8.22002C14.7595 8.26002 14.3795 7.95002 14.3395 7.54002C14.0495 4.40002 12.5695 3.23002 8.8795 3.23002H8.7495C4.6795 3.23002 3.2395 4.67002 3.2395 8.74002L3.2395 15.26C3.2395 19.33 4.6795 20.77 8.7495 20.77H8.8795C12.5895 20.77 14.0695 19.58 14.3395 16.38C14.3895 15.97 14.7395 15.66 15.1595 15.7C15.5795 15.73 15.8795 16.1 15.8495 16.51C15.5095 20.49 13.3595 22.27 8.8895 22.27H8.7595C3.8495 22.27 1.7495 20.17 1.7495 15.26L1.7495 8.74002C1.7495 3.83002 3.8495 1.73002 8.7595 1.73002Z" fill="#EB5757"/>
<path d="M9.00086 11.25L20.3809 11.25C20.7909 11.25 21.1309 11.59 21.1309 12C21.1309 12.41 20.7909 12.75 20.3809 12.75L9.00086 12.75C8.59086 12.75 8.25086 12.41 8.25086 12C8.25086 11.59 8.59086 11.25 9.00086 11.25Z" fill="#EB5757"/>
<path d="M18.1505 7.90003C18.3405 7.90003 18.5305 7.97003 18.6805 8.12003L22.0305 11.47C22.3205 11.76 22.3205 12.24 22.0305 12.53L18.6805 15.88C18.3905 16.17 17.9105 16.17 17.6205 15.88C17.3305 15.59 17.3305 15.11 17.6205 14.82L20.4405 12L17.6205 9.18003C17.3305 8.89003 17.3305 8.41003 17.6205 8.12003C17.7605 7.97003 17.9605 7.90003 18.1505 7.90003Z" fill="#EB5757"/>
</svg>
