<svg width="20" height="20" viewBox="0 0 20 20" fill="none" xmlns="http://www.w3.org/2000/svg">
<path d="M16.9835 17.6084C16.8169 17.6084 16.6585 17.5417 16.5419 17.425L11.2252 12.1084C10.9835 11.8667 10.9835 11.4667 11.2252 11.225L17.6669 4.78338C17.8252 4.62505 18.0669 4.56671 18.2835 4.62505C18.5002 4.69171 18.6669 4.86672 18.7169 5.08338C18.8752 5.79172 18.9585 6.58338 18.9585 7.50004V12.5C18.9585 14.8084 18.4752 16.3667 17.4252 17.425C17.3085 17.5417 17.1335 17.5667 16.9835 17.6084ZM12.5502 11.6667L16.9335 16.05C17.4585 15.2417 17.7085 14.0917 17.7085 12.5V7.50004C17.7085 7.15838 17.7002 6.84172 17.6752 6.54172L12.5502 11.6667Z" fill="#222222"/>
<path d="M5.22532 18.7333C5.17532 18.7333 5.13366 18.725 5.08366 18.7166C2.32533 18.0833 1.04199 16.1083 1.04199 12.5V7.49996C1.04199 2.97496 2.97533 1.04163 7.50033 1.04163H12.5003C16.1087 1.04163 18.0837 2.32496 18.717 5.0833C18.767 5.29163 18.7003 5.51663 18.5503 5.66663L5.66698 18.55C5.55032 18.6666 5.39198 18.7333 5.22532 18.7333ZM7.50033 2.29163C3.65866 2.29163 2.29199 3.65829 2.29199 7.49996V12.5C2.29199 15.3916 3.092 16.8416 5.03367 17.4166L17.4087 5.04163C16.842 3.09996 15.3837 2.29995 12.492 2.29995H7.50033V2.29163Z" fill="#222222"/>
<path d="M12.5003 18.9583H7.50031C6.58364 18.9583 5.80032 18.8833 5.08365 18.7166C4.85865 18.6666 4.68363 18.5 4.6253 18.2833C4.55863 18.0666 4.6253 17.8333 4.78364 17.6666L11.2253 11.225C11.467 10.9833 11.867 10.9833 12.1086 11.225L17.4253 16.5416C17.542 16.6583 17.6086 16.8166 17.6086 16.9833C17.6086 17.15 17.542 17.3083 17.4253 17.425C16.367 18.475 14.8086 18.9583 12.5003 18.9583ZM6.54198 17.675C6.84198 17.7 7.15864 17.7083 7.50031 17.7083H12.5003C14.1003 17.7083 15.242 17.4583 16.0503 16.9333L11.667 12.5499L6.54198 17.675Z" fill="#222222"/>
<path d="M7.60011 11.0916C7.07511 11.0916 6.55011 10.9 6.13344 10.5083C4.80844 9.24996 4.27513 7.86663 4.59179 6.51663C4.90846 5.1333 6.11678 4.19995 7.60011 4.19995C9.08345 4.19995 10.2918 5.1333 10.6085 6.51663C10.9168 7.87496 10.3834 9.24996 9.05845 10.5083C8.65011 10.8916 8.12511 11.0916 7.60011 11.0916ZM5.80845 6.79162C5.54179 7.92495 6.30845 8.94163 7.00011 9.59996C7.34178 9.92496 7.86678 9.92496 8.20011 9.59996C8.88345 8.94996 9.65011 7.93328 9.39178 6.79162C9.16677 5.79995 8.28345 5.44162 7.60011 5.44162C6.91678 5.44162 6.04179 5.79995 5.80845 6.79162Z" fill="#222222"/>
<path d="M7.62533 7.90837C7.16699 7.90837 6.79199 7.53337 6.79199 7.07503C6.79199 6.6167 7.15866 6.2417 7.62533 6.2417H7.63367C8.092 6.2417 8.467 6.6167 8.467 7.07503C8.467 7.53337 8.08366 7.90837 7.62533 7.90837Z" fill="#222222"/>
</svg>
