<svg width="96" height="131" viewBox="0 0 96 131" fill="none" xmlns="http://www.w3.org/2000/svg">
<path d="M93.4278 130.154H10.2768C8.85707 130.154 7.70605 128.999 7.70605 127.574V107.221H95.9983V127.574C95.9986 128.999 94.8476 130.154 93.4278 130.154Z" fill="#BED8FB"/>
<path d="M7.70703 26.9534V120.251H87.6894C92.2788 120.251 95.9993 116.517 95.9993 111.912V26.9534H7.70703Z" fill="#F3F3F3"/>
<path d="M89.2465 26.9534V111.912C89.2465 116.518 85.5259 120.251 80.9365 120.251H87.6884C92.2778 120.251 95.9983 116.518 95.9983 111.912V26.9534H89.2465Z" fill="#E2E2E2"/>
<path d="M95.9993 26.9532H7.70703V12.8541C7.70703 11.4293 8.85805 10.2742 10.2778 10.2742H93.4288C94.8485 10.2742 95.9996 11.4293 95.9996 12.8541V26.9532H95.9993Z" fill="#EB5757"/>
<path d="M95.9999 26.9535H89.248V10.2744H93.4291C94.8489 10.2744 95.9999 11.4295 95.9999 12.8544V26.9535Z" fill="#EB5757"/>
<path d="M2.5757 111.911C0.662992 111.911 -0.582004 113.934 0.276447 115.65C1.64227 118.378 4.45649 120.251 7.70665 120.251H87.689C83.7694 120.251 80.4835 117.527 79.6078 113.863C79.333 112.713 78.2944 111.911 77.116 111.911H2.5757Z" fill="#CBE2FF"/>
<path d="M23.2871 42.0844V36.8408C23.2871 35.9859 23.9776 35.293 24.8295 35.293H78.8749C79.7268 35.293 80.4173 35.9859 80.4173 36.8408V42.0844C80.4173 42.9393 79.7268 43.6322 78.8749 43.6322H24.8295C23.9776 43.6322 23.2871 42.9393 23.2871 42.0844V42.0844Z" fill="#EB5757"/>
<path d="M58.2339 10.2743C58.2339 6.74285 55.371 3.8698 51.8521 3.8698C48.3332 3.8698 45.4703 6.74285 45.4703 10.2743C45.4703 13.8058 48.3332 16.6788 51.8521 16.6788C52.917 16.6788 53.78 17.5451 53.78 18.6136C53.78 19.682 52.9167 20.5484 51.8521 20.5484C46.2069 20.5484 41.6143 15.9393 41.6143 10.274C41.6143 4.60878 46.2067 0 51.8518 0C57.497 0 62.0897 4.60904 62.0897 10.2743H58.2339Z" fill="#D0CEE7"/>
<path d="M34.8618 10.2743C34.8618 6.74285 31.9989 3.8698 28.48 3.8698C24.9611 3.8698 22.0983 6.74285 22.0983 10.2743C22.0983 13.8058 24.9611 16.6788 28.48 16.6788C29.5449 16.6788 30.4079 17.5451 30.4079 18.6136C30.4079 19.682 29.5447 20.5484 28.48 20.5484C22.8349 20.5484 18.2422 15.9393 18.2422 10.274C18.2422 4.60878 22.8346 0 28.4798 0C34.1249 0 38.7176 4.60904 38.7176 10.2743H34.8618Z" fill="#D0CEE7"/>
<path d="M81.6059 10.2743C81.6059 6.74285 78.7431 3.8698 75.2242 3.8698C71.7052 3.8698 68.8424 6.74285 68.8424 10.2743C68.8424 13.8058 71.7052 16.6788 75.2242 16.6788C76.2891 16.6788 77.1521 17.5451 77.1521 18.6136C77.1521 19.682 76.2888 20.5484 75.2242 20.5484C69.579 20.5484 64.9863 15.9393 64.9863 10.274C64.9863 4.60878 69.579 0 75.2242 0C80.8693 0 85.462 4.60904 85.462 10.2743H81.6059Z" fill="#D0CEE7"/>
<path d="M83.7948 56.7734H36.5324C35.4675 56.7734 34.6045 55.907 34.6045 54.8386C34.6045 53.7699 35.4678 52.9038 36.5324 52.9038H83.7948C84.8597 52.9038 85.7227 53.7701 85.7227 54.8386C85.7227 55.9073 84.8595 56.7734 83.7948 56.7734Z" fill="#CBE2FF"/>
<path d="M62.5017 65.1127H36.5334C35.4685 65.1127 34.6055 64.2464 34.6055 63.1779C34.6055 62.1093 35.4687 61.2432 36.5334 61.2432H62.5017C63.5666 61.2432 64.4299 62.1095 64.4299 63.1779C64.4296 64.2464 63.5663 65.1127 62.5017 65.1127Z" fill="#CBE2FF"/>
<path d="M22.8803 65.1128C22.3273 65.1128 21.7981 64.8741 21.4306 64.4533L18.4626 61.0559C17.7607 60.2523 17.8407 59.0298 18.6414 58.3254C19.4421 57.6207 20.66 57.7013 21.3622 58.5049L22.6427 59.9706L26.6003 53.7921C27.1761 52.893 28.3691 52.6332 29.2648 53.2108C30.1605 53.7888 30.4199 54.9859 29.8441 55.8848L24.5022 64.2243C24.1746 64.7355 23.627 65.0624 23.0234 65.1077C22.9755 65.111 22.9279 65.1128 22.8803 65.1128Z" fill="#EB5757"/>
<path d="M83.7948 76.0588H36.5324C35.4675 76.0588 34.6045 75.1924 34.6045 74.1237C34.6045 73.055 35.4678 72.189 36.5324 72.189H83.7948C84.8597 72.189 85.7227 73.0553 85.7227 74.1237C85.7227 75.1924 84.8595 76.0588 83.7948 76.0588Z" fill="#CBE2FF"/>
<path d="M62.5017 84.3979H36.5334C35.4685 84.3979 34.6055 83.5315 34.6055 82.4628C34.6055 81.3942 35.4687 80.5281 36.5334 80.5281H62.5017C63.5666 80.5281 64.4299 81.3944 64.4299 82.4628C64.4299 83.5313 63.5663 84.3979 62.5017 84.3979Z" fill="#CBE2FF"/>
<path d="M22.8803 84.3978C22.3273 84.3978 21.7981 84.1591 21.4306 83.7384L18.4626 80.3409C17.7607 79.5374 17.8407 78.3149 18.6414 77.6105C19.4421 76.9058 20.66 76.9864 21.3622 77.79L22.6427 79.2557L26.6003 73.0772C27.1761 72.1783 28.3691 71.9183 29.2648 72.4959C30.1605 73.0739 30.4199 74.271 29.8441 75.1699L24.5022 83.5094C24.1746 84.0206 23.627 84.3475 23.0234 84.3928C22.9755 84.3963 22.9279 84.3978 22.8803 84.3978V84.3978Z" fill="#EB5757"/>
<path d="M83.7948 95.3434H36.5324C35.4675 95.3434 34.6045 94.4771 34.6045 93.4087C34.6045 92.34 35.4678 91.4736 36.5324 91.4736H83.7948C84.8597 91.4736 85.7227 92.34 85.7227 93.4087C85.7227 94.4771 84.8595 95.3434 83.7948 95.3434Z" fill="#CBE2FF"/>
<path d="M62.5017 103.683H36.5334C35.4685 103.683 34.6055 102.816 34.6055 101.748C34.6055 100.679 35.4687 99.813 36.5334 99.813H62.5017C63.5666 99.813 64.4299 100.679 64.4299 101.748C64.4296 102.816 63.5663 103.683 62.5017 103.683Z" fill="#CBE2FF"/>
<path d="M22.8803 103.683C22.3273 103.683 21.7981 103.444 21.4306 103.023L18.4626 99.6259C17.7607 98.8224 17.8407 97.5999 18.6414 96.8955C19.4421 96.1908 20.66 96.2714 21.3622 97.0749L22.6427 98.5407L26.6003 92.3622C27.1761 91.4631 28.3691 91.2033 29.2648 91.7808C30.1605 92.3589 30.4199 93.556 29.8441 94.4548L24.5022 102.794C24.1746 103.306 23.627 103.632 23.0234 103.678C22.9755 103.681 22.9279 103.683 22.8803 103.683V103.683Z" fill="#EB5757"/>
</svg>
