<svg width="24" height="24" viewBox="0 0 24 24" fill="none" xmlns="http://www.w3.org/2000/svg">
<path d="M20.2109 7.81994L12.5109 12.2799C12.2009 12.4599 11.8109 12.4599 11.4909 12.2799L3.79095 7.81994C3.24095 7.49994 3.10095 6.74994 3.52095 6.27994C3.81095 5.94994 4.14095 5.67994 4.49095 5.48994L9.91095 2.48994C11.0709 1.83994 12.9509 1.83994 14.1109 2.48994L19.5309 5.48994C19.8809 5.67994 20.2109 5.95994 20.5009 6.27994C20.9009 6.74994 20.7609 7.49994 20.2109 7.81994Z" fill="black"/>
<path d="M11.431 14.1399V20.9599C11.431 21.7199 10.661 22.2199 9.98096 21.8899C7.92096 20.8799 4.45096 18.9899 4.45096 18.9899C3.23096 18.2999 2.23096 16.5599 2.23096 15.1299V9.96988C2.23096 9.17988 3.06096 8.67988 3.74096 9.06988L10.931 13.2399C11.231 13.4299 11.431 13.7699 11.431 14.1399Z" fill="black"/>
<path d="M12.571 14.1399V20.9599C12.571 21.7199 13.341 22.2199 14.021 21.8899C16.081 20.8799 19.551 18.9899 19.551 18.9899C20.771 18.2999 21.771 16.5599 21.771 15.1299V9.96988C21.771 9.17988 20.941 8.67988 20.261 9.06988L13.071 13.2399C12.771 13.4299 12.571 13.7699 12.571 14.1399Z" fill="black"/>
</svg>
