<svg width="344" height="343" viewBox="0 0 344 343" fill="none" xmlns="http://www.w3.org/2000/svg">
<path fill-rule="evenodd" clip-rule="evenodd" d="M16.5 0H50.8314V4H16.5C9.87259 4 4.5 9.37259 4.5 16V50.3316H0.5V16C0.5 7.16345 7.66344 0 16.5 0ZM0.5 257.668V327C0.5 335.837 7.66345 343 16.5 343H50.8314V339H16.5C9.87259 339 4.5 333.627 4.5 327V257.668H0.5ZM339.5 257.668V327C339.5 333.627 334.127 339 327.5 339H258.168V343H327.5C336.337 343 343.5 335.837 343.5 327V257.668H339.5ZM343.5 50.3316V16C343.5 7.16344 336.337 0 327.5 0H258.168V4H327.5C334.127 4 339.5 9.37259 339.5 16V50.3316H343.5Z" fill="#7F92A0"/>
</svg>
