<svg width="48" height="48" viewBox="0 0 48 48" fill="none" xmlns="http://www.w3.org/2000/svg">
<path d="M4 19.5C3.18 19.5 2.5 18.82 2.5 18V13C2.5 7.2 7.22 2.5 13 2.5H18C18.82 2.5 19.5 3.18 19.5 4C19.5 4.82 18.82 5.5 18 5.5H13C8.86 5.5 5.5 8.86 5.5 13V18C5.5 18.82 4.82 19.5 4 19.5Z" fill="#677294"/>
<path d="M44 19.5C43.18 19.5 42.5 18.82 42.5 18V13C42.5 8.86 39.14 5.5 35 5.5H30C29.18 5.5 28.5 4.82 28.5 4C28.5 3.18 29.18 2.5 30 2.5H35C40.78 2.5 45.5 7.2 45.5 13V18C45.5 18.82 44.82 19.5 44 19.5Z" fill="#677294"/>
<path d="M35 45.5H32C31.18 45.5 30.5 44.82 30.5 44C30.5 43.18 31.18 42.5 32 42.5H35C39.14 42.5 42.5 39.14 42.5 35V32C42.5 31.18 43.18 30.5 44 30.5C44.82 30.5 45.5 31.18 45.5 32V35C45.5 40.8 40.78 45.5 35 45.5Z" fill="#677294"/>
<path d="M18 45.5H13C7.22 45.5 2.5 40.8 2.5 35V30C2.5 29.18 3.18 28.5 4 28.5C4.82 28.5 5.5 29.18 5.5 30V35C5.5 39.14 8.86 42.5 13 42.5H18C18.82 42.5 19.5 43.18 19.5 44C19.5 44.82 18.82 45.5 18 45.5Z" fill="#677294"/>
<path d="M18 22.5H14C11.18 22.5 9.5 20.82 9.5 18V14C9.5 11.18 11.18 9.5 14 9.5H18C20.82 9.5 22.5 11.18 22.5 14V18C22.5 20.82 20.82 22.5 18 22.5ZM14 12.5C12.82 12.5 12.5 12.82 12.5 14V18C12.5 19.18 12.82 19.5 14 19.5H18C19.18 19.5 19.5 19.18 19.5 18V14C19.5 12.82 19.18 12.5 18 12.5H14Z" fill="#677294"/>
<path d="M34 22.5H30C27.18 22.5 25.5 20.82 25.5 18V14C25.5 11.18 27.18 9.5 30 9.5H34C36.82 9.5 38.5 11.18 38.5 14V18C38.5 20.82 36.82 22.5 34 22.5ZM30 12.5C28.82 12.5 28.5 12.82 28.5 14V18C28.5 19.18 28.82 19.5 30 19.5H34C35.18 19.5 35.5 19.18 35.5 18V14C35.5 12.82 35.18 12.5 34 12.5H30Z" fill="#677294"/>
<path d="M18 38.5H14C11.18 38.5 9.5 36.82 9.5 34V30C9.5 27.18 11.18 25.5 14 25.5H18C20.82 25.5 22.5 27.18 22.5 30V34C22.5 36.82 20.82 38.5 18 38.5ZM14 28.5C12.82 28.5 12.5 28.82 12.5 30V34C12.5 35.18 12.82 35.5 14 35.5H18C19.18 35.5 19.5 35.18 19.5 34V30C19.5 28.82 19.18 28.5 18 28.5H14Z" fill="#677294"/>
<path d="M34 38.5H30C27.18 38.5 25.5 36.82 25.5 34V30C25.5 27.18 27.18 25.5 30 25.5H34C36.82 25.5 38.5 27.18 38.5 30V34C38.5 36.82 36.82 38.5 34 38.5ZM30 28.5C28.82 28.5 28.5 28.82 28.5 30V34C28.5 35.18 28.82 35.5 30 35.5H34C35.18 35.5 35.5 35.18 35.5 34V30C35.5 28.82 35.18 28.5 34 28.5H30Z" fill="#677294"/>
</svg>
