<svg width="107" height="119" viewBox="0 0 107 119" fill="none" xmlns="http://www.w3.org/2000/svg">
<path d="M92.5335 108.835C91.5624 108.835 90.7754 108.048 90.7754 107.077V101.701C90.7754 100.73 91.5627 99.9434 92.5335 99.9434C93.5043 99.9434 94.2916 100.731 94.2916 101.701V107.077C94.2916 108.048 93.5045 108.835 92.5335 108.835Z" fill="#497090"/>
<path d="M95.7214 100.704L93.7216 102.801C93.075 103.479 91.9935 103.479 91.3469 102.801L89.3471 100.704C89.0559 100.399 88.8936 99.9935 88.8936 99.5718V90.7275H96.1752V99.5718C96.1752 99.9935 96.0127 100.399 95.7214 100.704V100.704Z" fill="#5680A6"/>
<path d="M96.3343 93.072H88.7337C87.8275 93.072 87.0928 92.3373 87.0928 91.431V67.5862L89.5362 65.2419H95.5138L97.9753 67.5862V91.431C97.9753 92.3373 97.2408 93.072 96.3343 93.072V93.072Z" fill="#99E6FC"/>
<path d="M91.7821 65.2415V93.0717H88.7347C87.8284 93.0717 87.0938 92.337 87.0938 91.4308V67.5857L89.302 65.2415H91.7821Z" fill="#62DBFB"/>
<path d="M96.1636 26.2183H88.9043V18.2292C88.9043 17.3377 89.627 16.615 90.5185 16.615H94.5492C95.4407 16.615 96.1634 17.3377 96.1634 18.2292V26.2183H96.1636Z" fill="#0EBE7F"/>
<path d="M97.9755 67.5862H87.0928V25.4885C87.0928 24.597 87.8155 23.8743 88.707 23.8743H96.3613C97.2528 23.8743 97.9755 24.597 97.9755 25.4885V67.5862Z" fill="#5680A6"/>
<path d="M91.7821 23.8735V67.5857H87.0938V25.5142C87.0938 24.608 87.8284 23.8733 88.7347 23.8733H91.7821V23.8735Z" fill="#497090"/>
<path d="M105.242 54.7811C104.271 54.7811 103.484 53.9939 103.484 53.023V32.9364H87.0931C86.122 32.9364 85.335 32.1491 85.335 31.1783C85.335 30.2074 86.1222 29.4202 87.0931 29.4202H105.242C106.213 29.4202 107 30.2074 107 31.1783V53.023C107 53.9941 106.213 54.7811 105.242 54.7811V54.7811Z" fill="#99E6FC"/>
<path d="M81.17 9.79853V117.259C81.17 118.151 80.4473 118.873 79.5558 118.873H1.6142C0.722702 118.873 0 118.151 0 117.259V9.79853C0 8.90703 0.722702 8.18433 1.6142 8.18433H14.9973L19.7498 10.4903H61.4204L66.1729 8.18433H79.556C80.4473 8.18433 81.17 8.90703 81.17 9.79853V9.79853Z" fill="#FED2A4"/>
<path d="M66.1736 8.18433V15.5652H14.998V8.18433H19.7505L22.0226 10.4903H58.9187L61.4212 8.18433H66.1736Z" fill="#FFBD86"/>
<path d="M73.7906 17.1796V109.881C73.7906 110.772 73.0679 111.495 72.1764 111.495H8.99213C8.10063 111.495 7.37793 110.772 7.37793 109.881V17.1796C7.37793 16.2881 8.10063 15.5654 8.99213 15.5654H72.1764C73.0679 15.5654 73.7906 16.2881 73.7906 17.1796V17.1796Z" fill="#F2FBFF"/>
<path d="M66.1736 15.5654V22.3799C66.1736 23.2714 65.4509 23.9941 64.5594 23.9941H16.6123C15.7207 23.9941 14.998 23.2714 14.998 22.3799V15.5654H66.1736Z" fill="#DFF6FD"/>
<path d="M4.75129 8.18433V118.873H1.6142C0.722702 118.873 0 118.151 0 117.259V9.79853C0 8.90703 0.722702 8.18433 1.6142 8.18433H4.75129Z" fill="#FFBD86"/>
<path d="M12.1292 15.5654V111.495H8.99213C8.10063 111.495 7.37793 110.772 7.37793 109.881V17.1796C7.37793 16.2881 8.10063 15.5654 8.99213 15.5654H12.1292Z" fill="#DFF6FD"/>
<path d="M47.9647 8.18537C47.9647 4.10997 44.6608 0.806152 40.5854 0.806152C36.51 0.806152 33.2062 4.10997 33.2062 8.18537H19.75V17.6285C19.75 18.52 20.4727 19.2427 21.3642 19.2427H59.8065C60.698 19.2427 61.4207 18.52 61.4207 17.6285V8.41597V8.18537H47.9647Z" fill="#62DBFB"/>
<path d="M41.9149 6.81354C42.6494 7.548 42.6494 8.73906 41.9149 9.47352C41.1805 10.208 39.9894 10.208 39.2549 9.47352C38.5205 8.73906 38.5205 7.548 39.2549 6.81354C39.9896 6.07908 41.1805 6.07908 41.9149 6.81354Z" fill="#5680A6"/>
<path d="M60.9051 75.888H37.0986C36.1435 75.888 35.3691 75.1136 35.3691 74.1585C35.3691 73.2033 36.1435 72.429 37.0986 72.429H60.9049C61.8601 72.429 62.6344 73.2033 62.6344 74.1585C62.6344 75.1136 61.8603 75.888 60.9051 75.888Z" fill="#5680A6"/>
<path d="M60.9051 83.051H37.0986C36.1435 83.051 35.3691 82.2767 35.3691 81.3215C35.3691 80.3664 36.1435 79.592 37.0986 79.592H60.9049C61.8601 79.592 62.6344 80.3664 62.6344 81.3215C62.6344 82.2767 61.8603 83.051 60.9051 83.051Z" fill="#5680A6"/>
<path d="M60.9051 90.2141H37.0986C36.1435 90.2141 35.3691 89.4398 35.3691 88.4846C35.3691 87.5295 36.1435 86.7551 37.0986 86.7551H60.9049C61.8601 86.7551 62.6344 87.5295 62.6344 88.4846C62.6344 89.4398 61.8603 90.2141 60.9051 90.2141Z" fill="#5680A6"/>
<path d="M29.9341 75.888H19.1895C18.2343 75.888 17.46 75.1136 17.46 74.1585C17.46 73.2033 18.2343 72.429 19.1895 72.429H29.9341C30.8892 72.429 31.6636 73.2033 31.6636 74.1585C31.6636 75.1136 30.8892 75.888 29.9341 75.888Z" fill="#5680A6"/>
<path d="M29.935 83.051H19.1904C18.2353 83.051 17.4609 82.2767 17.4609 81.3215C17.4609 80.3664 18.2353 79.592 19.1904 79.592H29.935C30.8902 79.592 31.6645 80.3664 31.6645 81.3215C31.6645 82.2767 30.8902 83.051 29.935 83.051Z" fill="#5680A6"/>
<path d="M29.935 90.2141H19.1904C18.2353 90.2141 17.4609 89.4398 17.4609 88.4846C17.4609 87.5295 18.2353 86.7551 19.1904 86.7551H29.935C30.8902 86.7551 31.6645 87.5295 31.6645 88.4846C31.6645 89.4398 30.8902 90.2141 29.935 90.2141Z" fill="#5680A6"/>
<path d="M60.5291 100.843H47.0459C46.0908 100.843 45.3164 100.069 45.3164 99.1138C45.3164 98.1586 46.0908 97.3843 47.0459 97.3843H60.5291C61.4843 97.3843 62.2586 98.1586 62.2586 99.1138C62.2586 100.069 61.4843 100.843 60.5291 100.843Z" fill="#5680A6"/>
<path d="M40.6773 63.4068C50.5653 63.4068 58.5811 55.391 58.5811 45.5029C58.5811 35.6149 50.5653 27.5991 40.6773 27.5991C30.7893 27.5991 22.7734 35.6149 22.7734 45.5029C22.7734 55.391 30.7893 63.4068 40.6773 63.4068Z" fill="#0EBE7F"/>
<path d="M49.8091 41.9249H45.8746C44.9831 41.9249 44.2604 41.2022 44.2604 40.3107V36.3762C44.2604 35.4847 43.5377 34.762 42.6462 34.762H38.7117C37.8202 34.762 37.0975 35.4847 37.0975 36.3762V40.3107C37.0975 41.2022 36.3748 41.9249 35.4833 41.9249H31.5488C30.6573 41.9249 29.9346 42.6476 29.9346 43.5391V47.4736C29.9346 48.3651 30.6573 49.0878 31.5488 49.0878H35.4833C36.3748 49.0878 37.0975 49.8105 37.0975 50.702V54.6365C37.0975 55.528 37.8202 56.2507 38.7117 56.2507H42.6462C43.5377 56.2507 44.2604 55.528 44.2604 54.6365V50.702C44.2604 49.8105 44.9831 49.0878 45.8746 49.0878H49.8091C50.7006 49.0878 51.4233 48.3651 51.4233 47.4736V43.5391C51.4233 42.6476 50.7006 41.9249 49.8091 41.9249Z" fill="#F2FBFF"/>
</svg>
