<svg width="178" height="252" viewBox="0 0 178 252" fill="none" xmlns="http://www.w3.org/2000/svg">
<g clip-path="url(#clip0_2679_13499)">
<path d="M144.158 251.303H17.9421C17.0185 251.303 16.2578 250.542 16.2578 249.619V249.293C16.2578 248.369 17.0185 247.608 17.9421 247.608H144.104C145.028 247.608 145.788 248.369 145.788 249.293V249.619C145.843 250.542 145.082 251.303 144.158 251.303Z" fill="#99ADF9"/>
<path d="M11.6413 59.2342C11.3697 59.2342 11.1523 59.0168 11.1523 58.7452V56.1915C11.1523 55.9198 11.3697 55.7025 11.6413 55.7025C11.913 55.7025 12.1303 55.9198 12.1303 56.1915V58.7452C12.076 59.0168 11.8587 59.2342 11.6413 59.2342Z" fill="#C5DFFF"/>
<path d="M11.6413 82.0543C11.3697 82.0543 11.1523 81.837 11.1523 81.5653V75.8603C11.1523 75.5886 11.3697 75.3713 11.6413 75.3713C11.913 75.3713 12.1303 75.5886 12.1303 75.8603V81.5653C12.076 81.837 11.8587 82.0543 11.6413 82.0543ZM11.6413 70.6443C11.3697 70.6443 11.1523 70.427 11.1523 70.1553V64.4503C11.1523 64.1786 11.3697 63.9613 11.6413 63.9613C11.913 63.9613 12.1303 64.1786 12.1303 64.4503V70.1553C12.076 70.427 11.8587 70.6443 11.6413 70.6443Z" fill="#C5DFFF"/>
<path d="M17.9968 59.2344C17.7251 59.2344 17.5078 59.0171 17.5078 58.7454V56.1918C17.5078 55.9201 17.7251 55.7028 17.9968 55.7028C18.2685 55.7028 18.4858 55.9201 18.4858 56.1918V58.7454C18.4858 59.0171 18.2685 59.2344 17.9968 59.2344Z" fill="#C5DFFF"/>
<path d="M17.9968 82.0544C17.7251 82.0544 17.5078 81.8371 17.5078 81.5654V75.8604C17.5078 75.5888 17.7251 75.3714 17.9968 75.3714C18.2685 75.3714 18.4858 75.5888 18.4858 75.8604V81.5654C18.4858 81.8371 18.2685 82.0544 17.9968 82.0544ZM17.9968 70.6444C17.7251 70.6444 17.5078 70.4271 17.5078 70.1554V64.4504C17.5078 64.1788 17.7251 63.9614 17.9968 63.9614C18.2685 63.9614 18.4858 64.1788 18.4858 64.4504V70.1554C18.4858 70.4271 18.2685 70.6444 17.9968 70.6444Z" fill="#C5DFFF"/>
<path d="M24.3542 59.2342C24.0826 59.2342 23.8652 59.0168 23.8652 58.7452V56.1915C23.8652 55.9198 24.0826 55.7025 24.3542 55.7025C24.6259 55.7025 24.8432 55.9198 24.8432 56.1915V58.7452C24.8432 59.0168 24.6259 59.2342 24.3542 59.2342Z" fill="#C5DFFF"/>
<path d="M24.3542 93.41C24.0826 93.41 23.8652 93.1926 23.8652 92.921V87.216C23.8652 86.9443 24.0826 86.727 24.3542 86.727C24.6259 86.727 24.8432 86.9443 24.8432 87.216V92.921C24.8432 93.247 24.6259 93.41 24.3542 93.41ZM24.3542 82.0543C24.0826 82.0543 23.8652 81.837 23.8652 81.5653V75.8603C23.8652 75.5886 24.0826 75.3713 24.3542 75.3713C24.6259 75.3713 24.8432 75.5886 24.8432 75.8603V81.5653C24.8432 81.837 24.6259 82.0543 24.3542 82.0543ZM24.3542 70.6443C24.0826 70.6443 23.8652 70.427 23.8652 70.1553V64.4503C23.8652 64.1786 24.0826 63.9613 24.3542 63.9613C24.6259 63.9613 24.8432 64.1786 24.8432 64.4503V70.1553C24.8432 70.427 24.6259 70.6443 24.3542 70.6443Z" fill="#C5DFFF"/>
<path d="M30.7663 59.2342C30.4947 59.2342 30.2773 59.0168 30.2773 58.7452V56.1915C30.2773 55.9198 30.4947 55.7025 30.7663 55.7025C31.038 55.7025 31.2553 55.9198 31.2553 56.1915V58.7452C31.201 59.0168 30.9837 59.2342 30.7663 59.2342Z" fill="#C5DFFF"/>
<path d="M30.7663 93.41C30.4947 93.41 30.2773 93.1926 30.2773 92.921V87.216C30.2773 86.9443 30.4947 86.727 30.7663 86.727C31.038 86.727 31.2553 86.9443 31.2553 87.216V92.921C31.201 93.247 30.9837 93.41 30.7663 93.41ZM30.7663 82.0543C30.4947 82.0543 30.2773 81.837 30.2773 81.5653V75.8603C30.2773 75.5886 30.4947 75.3713 30.7663 75.3713C31.038 75.3713 31.2553 75.5886 31.2553 75.8603V81.5653C31.201 81.837 30.9837 82.0543 30.7663 82.0543ZM30.7663 70.6443C30.4947 70.6443 30.2773 70.427 30.2773 70.1553V64.4503C30.2773 64.1786 30.4947 63.9613 30.7663 63.9613C31.038 63.9613 31.2553 64.1786 31.2553 64.4503V70.1553C31.201 70.427 30.9837 70.6443 30.7663 70.6443Z" fill="#C5DFFF"/>
<path d="M37.1218 59.2344C36.8501 59.2344 36.6328 59.0171 36.6328 58.7454V56.1918C36.6328 55.9201 36.8501 55.7028 37.1218 55.7028C37.3935 55.7028 37.6108 55.9201 37.6108 56.1918V58.7454C37.6108 59.0171 37.3935 59.2344 37.1218 59.2344Z" fill="#C5DFFF"/>
<path d="M37.1218 93.4101C36.8501 93.4101 36.6328 93.1928 36.6328 92.9211V87.2161C36.6328 86.9444 36.8501 86.7271 37.1218 86.7271C37.3935 86.7271 37.6108 86.9444 37.6108 87.2161V92.9211C37.6108 93.2471 37.3935 93.4101 37.1218 93.4101ZM37.1218 82.0544C36.8501 82.0544 36.6328 81.8371 36.6328 81.5654V75.8604C36.6328 75.5888 36.8501 75.3714 37.1218 75.3714C37.3935 75.3714 37.6108 75.5888 37.6108 75.8604V81.5654C37.6108 81.8371 37.3935 82.0544 37.1218 82.0544ZM37.1218 70.6444C36.8501 70.6444 36.6328 70.4271 36.6328 70.1554V64.4504C36.6328 64.1788 36.8501 63.9614 37.1218 63.9614C37.3935 63.9614 37.6108 64.1788 37.6108 64.4504V70.1554C37.6108 70.4271 37.3935 70.6444 37.1218 70.6444Z" fill="#C5DFFF"/>
<path d="M37.1218 101.723C36.8501 101.723 36.6328 101.506 36.6328 101.234V98.6804C36.6328 98.4087 36.8501 98.1914 37.1218 98.1914C37.3935 98.1914 37.6108 98.4087 37.6108 98.6804V101.234C37.6108 101.506 37.3935 101.723 37.1218 101.723Z" fill="#C5DFFF"/>
<path d="M43.4792 59.2344C43.2076 59.2344 42.9902 59.0171 42.9902 58.7454V56.1918C42.9902 55.9201 43.2076 55.7028 43.4792 55.7028C43.7509 55.7028 43.9682 55.9201 43.9682 56.1918V58.7454C43.9682 59.0171 43.7509 59.2344 43.4792 59.2344Z" fill="#C5DFFF"/>
<path d="M43.4792 93.4101C43.2076 93.4101 42.9902 93.1928 42.9902 92.9211V87.2161C42.9902 86.9444 43.2076 86.7271 43.4792 86.7271C43.7509 86.7271 43.9682 86.9444 43.9682 87.2161V92.9211C43.9682 93.2471 43.7509 93.4101 43.4792 93.4101ZM43.4792 82.0544C43.2076 82.0544 42.9902 81.8371 42.9902 81.5654V75.8604C42.9902 75.5888 43.2076 75.3714 43.4792 75.3714C43.7509 75.3714 43.9682 75.5888 43.9682 75.8604V81.5654C43.9682 81.8371 43.7509 82.0544 43.4792 82.0544ZM43.4792 70.6444C43.2076 70.6444 42.9902 70.4271 42.9902 70.1554V64.4504C42.9902 64.1788 43.2076 63.9614 43.4792 63.9614C43.7509 63.9614 43.9682 64.1788 43.9682 64.4504V70.1554C43.9682 70.4271 43.7509 70.6444 43.4792 70.6444Z" fill="#C5DFFF"/>
<path d="M43.4792 101.723C43.2076 101.723 42.9902 101.506 42.9902 101.234V98.6804C42.9902 98.4087 43.2076 98.1914 43.4792 98.1914C43.7509 98.1914 43.9682 98.4087 43.9682 98.6804V101.234C43.9682 101.506 43.7509 101.723 43.4792 101.723Z" fill="#C5DFFF"/>
<path d="M59.3972 44.2385C59.1255 44.2385 58.9082 44.0211 58.9082 43.7495V41.1958C58.9082 40.9241 59.1255 40.7068 59.3972 40.7068C59.6689 40.7068 59.8862 40.9241 59.8862 41.1958V43.7495C59.8862 44.0211 59.6689 44.2385 59.3972 44.2385Z" fill="#C5DFFF"/>
<path d="M59.3972 67.0042C59.1255 67.0042 58.9082 66.7869 58.9082 66.5152V60.8102C58.9082 60.5386 59.1255 60.3212 59.3972 60.3212C59.6689 60.3212 59.8862 60.5386 59.8862 60.8102V66.5152C59.8862 66.8412 59.6689 67.0042 59.3972 67.0042ZM59.3972 55.6486C59.1255 55.6486 58.9082 55.4312 58.9082 55.1596V49.4546C58.9082 49.1829 59.1255 48.9656 59.3972 48.9656C59.6689 48.9656 59.8862 49.1829 59.8862 49.4546V55.1596C59.8862 55.4312 59.6689 55.6486 59.3972 55.6486Z" fill="#C5DFFF"/>
<path d="M65.7527 44.2385C65.481 44.2385 65.2637 44.0211 65.2637 43.7495V41.1958C65.2637 40.9241 65.481 40.7068 65.7527 40.7068C66.0243 40.7068 66.2417 40.9241 66.2417 41.1958V43.7495C66.2417 44.0211 66.0243 44.2385 65.7527 44.2385Z" fill="#C5DFFF"/>
<path d="M65.7527 67.0042C65.481 67.0042 65.2637 66.7869 65.2637 66.5152V60.8102C65.2637 60.5386 65.481 60.3212 65.7527 60.3212C66.0243 60.3212 66.2417 60.5386 66.2417 60.8102V66.5152C66.2417 66.8412 66.0243 67.0042 65.7527 67.0042ZM65.7527 55.6486C65.481 55.6486 65.2637 55.4312 65.2637 55.1596V49.4546C65.2637 49.1829 65.481 48.9656 65.7527 48.9656C66.0243 48.9656 66.2417 49.1829 66.2417 49.4546V55.1596C66.2417 55.4312 66.0243 55.6486 65.7527 55.6486Z" fill="#C5DFFF"/>
<path d="M72.1667 44.2385C71.8951 44.2385 71.6777 44.0211 71.6777 43.7495V41.1958C71.6777 40.9241 71.8951 40.7068 72.1667 40.7068C72.4384 40.7068 72.6557 40.9241 72.6557 41.1958V43.7495C72.6014 44.0211 72.3841 44.2385 72.1667 44.2385Z" fill="#C5DFFF"/>
<path d="M72.1667 78.4143C71.8951 78.4143 71.6777 78.1969 71.6777 77.9252V72.2202C71.6777 71.9486 71.8951 71.7312 72.1667 71.7312C72.4384 71.7312 72.6557 71.9486 72.6557 72.2202V77.9252C72.6014 78.2512 72.3841 78.4143 72.1667 78.4143ZM72.1667 67.0042C71.8951 67.0042 71.6777 66.7869 71.6777 66.5152V60.8102C71.6777 60.5386 71.8951 60.3212 72.1667 60.3212C72.4384 60.3212 72.6557 60.5386 72.6557 60.8102V66.5152C72.6014 66.8412 72.3841 67.0042 72.1667 67.0042ZM72.1667 55.6486C71.8951 55.6486 71.6777 55.4312 71.6777 55.1596V49.4546C71.6777 49.1829 71.8951 48.9656 72.1667 48.9656C72.4384 48.9656 72.6557 49.1829 72.6557 49.4546V55.1596C72.6014 55.4312 72.3841 55.6486 72.1667 55.6486Z" fill="#C5DFFF"/>
<path d="M91.239 44.2385C90.9673 44.2385 90.75 44.0211 90.75 43.7495V41.1958C90.75 40.9241 90.9673 40.7068 91.239 40.7068C91.5107 40.7068 91.728 40.9241 91.728 41.1958V43.7495C91.728 44.0211 91.5107 44.2385 91.239 44.2385Z" fill="#C5DFFF"/>
<path d="M91.239 78.4143C90.9673 78.4143 90.75 78.1969 90.75 77.9252V72.2202C90.75 71.9486 90.9673 71.7312 91.239 71.7312C91.5107 71.7312 91.728 71.9486 91.728 72.2202V77.9252C91.728 78.2512 91.5107 78.4143 91.239 78.4143ZM91.239 67.0042C90.9673 67.0042 90.75 66.7869 90.75 66.5152V60.8102C90.75 60.5386 90.9673 60.3212 91.239 60.3212C91.5107 60.3212 91.728 60.5386 91.728 60.8102V66.5152C91.728 66.8412 91.5107 67.0042 91.239 67.0042ZM91.239 55.6486C90.9673 55.6486 90.75 55.4312 90.75 55.1596V49.4546C90.75 49.1829 90.9673 48.9656 91.239 48.9656C91.5107 48.9656 91.728 49.1829 91.728 49.4546V55.1596C91.728 55.4312 91.5107 55.6486 91.239 55.6486Z" fill="#C5DFFF"/>
<path d="M97.4851 44.2385C97.2134 44.2385 96.9961 44.0211 96.9961 43.7495V41.1958C96.9961 40.9241 97.2134 40.7068 97.4851 40.7068C97.7568 40.7068 97.9741 40.9241 97.9741 41.1958V43.7495C97.9198 44.0211 97.7024 44.2385 97.4851 44.2385Z" fill="#C5DFFF"/>
<path d="M97.4851 78.4143C97.2134 78.4143 96.9961 78.1969 96.9961 77.9252V72.2202C96.9961 71.9486 97.2134 71.7312 97.4851 71.7312C97.7568 71.7312 97.9741 71.9486 97.9741 72.2202V77.9252C97.9198 78.2512 97.7024 78.4143 97.4851 78.4143ZM97.4851 67.0042C97.2134 67.0042 96.9961 66.7869 96.9961 66.5152V60.8102C96.9961 60.5386 97.2134 60.3212 97.4851 60.3212C97.7568 60.3212 97.9741 60.5386 97.9741 60.8102V66.5152C97.9198 66.8412 97.7024 67.0042 97.4851 67.0042ZM97.4851 55.6486C97.2134 55.6486 96.9961 55.4312 96.9961 55.1596V49.4546C96.9961 49.1829 97.2134 48.9656 97.4851 48.9656C97.7568 48.9656 97.9741 49.1829 97.9741 49.4546V55.1596C97.9198 55.4312 97.7024 55.6486 97.4851 55.6486Z" fill="#C5DFFF"/>
<path d="M103.841 44.2385C103.569 44.2385 103.352 44.0211 103.352 43.7495V41.1958C103.352 40.9241 103.569 40.7068 103.841 40.7068C104.112 40.7068 104.33 40.9241 104.33 41.1958V43.7495C104.33 44.0211 104.112 44.2385 103.841 44.2385Z" fill="#C5DFFF"/>
<path d="M103.841 78.4143C103.569 78.4143 103.352 78.1969 103.352 77.9252V72.2202C103.352 71.9486 103.569 71.7312 103.841 71.7312C104.112 71.7312 104.33 71.9486 104.33 72.2202V77.9252C104.33 78.2512 104.112 78.4143 103.841 78.4143ZM103.841 67.0042C103.569 67.0042 103.352 66.7869 103.352 66.5152V60.8102C103.352 60.5386 103.569 60.3212 103.841 60.3212C104.112 60.3212 104.33 60.5386 104.33 60.8102V66.5152C104.33 66.8412 104.112 67.0042 103.841 67.0042ZM103.841 55.6486C103.569 55.6486 103.352 55.4312 103.352 55.1596V49.4546C103.352 49.1829 103.569 48.9656 103.841 48.9656C104.112 48.9656 104.33 49.1829 104.33 49.4546V55.1596C104.33 55.4312 104.112 55.6486 103.841 55.6486Z" fill="#C5DFFF"/>
<path d="M110.202 44.2385C109.93 44.2385 109.713 44.0211 109.713 43.7495V41.1958C109.713 40.9241 109.93 40.7068 110.202 40.7068C110.474 40.7068 110.691 40.9241 110.691 41.1958V43.7495C110.691 44.0211 110.474 44.2385 110.202 44.2385Z" fill="#C5DFFF"/>
<path d="M110.202 78.4143C109.93 78.4143 109.713 78.1969 109.713 77.9252V72.2202C109.713 71.9486 109.93 71.7312 110.202 71.7312C110.474 71.7312 110.691 71.9486 110.691 72.2202V77.9252C110.691 78.2512 110.474 78.4143 110.202 78.4143ZM110.202 67.0042C109.93 67.0042 109.713 66.7869 109.713 66.5152V60.8102C109.713 60.5386 109.93 60.3212 110.202 60.3212C110.474 60.3212 110.691 60.5386 110.691 60.8102V66.5152C110.691 66.8412 110.474 67.0042 110.202 67.0042ZM110.202 55.6486C109.93 55.6486 109.713 55.4312 109.713 55.1596V49.4546C109.713 49.1829 109.93 48.9656 110.202 48.9656C110.474 48.9656 110.691 49.1829 110.691 49.4546V55.1596C110.691 55.4312 110.474 55.6486 110.202 55.6486Z" fill="#C5DFFF"/>
<path d="M84.8796 88.6288C84.608 88.6288 84.3906 88.4115 84.3906 88.1398V82.4348C84.3906 82.1631 84.608 81.9458 84.8796 81.9458C85.1513 81.9458 85.3686 82.1631 85.3686 82.4348V88.1398C85.3686 88.4115 85.1513 88.6288 84.8796 88.6288Z" fill="#C5DFFF"/>
<path d="M91.239 88.6288C90.9673 88.6288 90.75 88.4115 90.75 88.1398V82.4348C90.75 82.1631 90.9673 81.9458 91.239 81.9458C91.5107 81.9458 91.728 82.1631 91.728 82.4348V88.1398C91.728 88.4115 91.5107 88.6288 91.239 88.6288Z" fill="#C5DFFF"/>
<path d="M97.4851 88.6288C97.2134 88.6288 96.9961 88.4115 96.9961 88.1398V82.4348C96.9961 82.1631 97.2134 81.9458 97.4851 81.9458C97.7568 81.9458 97.9741 82.1631 97.9741 82.4348V88.1398C97.9198 88.4115 97.7024 88.6288 97.4851 88.6288Z" fill="#C5DFFF"/>
<path d="M103.841 100.039C103.569 100.039 103.352 99.8215 103.352 99.5498V93.8448C103.352 93.5731 103.569 93.3558 103.841 93.3558C104.112 93.3558 104.33 93.5731 104.33 93.8448V99.5498C104.33 99.8215 104.112 100.039 103.841 100.039ZM103.841 88.6288C103.569 88.6288 103.352 88.4115 103.352 88.1398V82.4348C103.352 82.1631 103.569 81.9458 103.841 81.9458C104.112 81.9458 104.33 82.1631 104.33 82.4348V88.1398C104.33 88.4115 104.112 88.6288 103.841 88.6288Z" fill="#C5DFFF"/>
<path d="M110.202 111.449C109.93 111.449 109.713 111.231 109.713 110.96V105.255C109.713 104.983 109.93 104.766 110.202 104.766C110.474 104.766 110.691 104.983 110.691 105.255V110.96C110.691 111.231 110.474 111.449 110.202 111.449ZM110.202 100.039C109.93 100.039 109.713 99.8215 109.713 99.5498V93.8448C109.713 93.5731 109.93 93.3558 110.202 93.3558C110.474 93.3558 110.691 93.5731 110.691 93.8448V99.5498C110.691 99.8215 110.474 100.039 110.202 100.039ZM110.202 88.6288C109.93 88.6288 109.713 88.4115 109.713 88.1398V82.4348C109.713 82.1631 109.93 81.9458 110.202 81.9458C110.474 81.9458 110.691 82.1631 110.691 82.4348V88.1398C110.691 88.4115 110.474 88.6288 110.202 88.6288Z" fill="#C5DFFF"/>
<path d="M116.61 111.449C116.338 111.449 116.121 111.231 116.121 110.96V105.255C116.121 104.983 116.338 104.766 116.61 104.766C116.882 104.766 117.099 104.983 117.099 105.255V110.96C117.045 111.231 116.827 111.449 116.61 111.449ZM116.61 100.039C116.338 100.039 116.121 99.8215 116.121 99.5498V93.8448C116.121 93.5731 116.338 93.3558 116.61 93.3558C116.882 93.3558 117.099 93.5731 117.099 93.8448V99.5498C117.045 99.8215 116.827 100.039 116.61 100.039ZM116.61 88.6288C116.338 88.6288 116.121 88.4115 116.121 88.1398V82.4348C116.121 82.1631 116.338 81.9458 116.61 81.9458C116.882 81.9458 117.099 82.1631 117.099 82.4348V88.1398C117.045 88.4115 116.827 88.6288 116.61 88.6288Z" fill="#C5DFFF"/>
<path d="M122.968 111.449C122.696 111.449 122.479 111.231 122.479 110.96V105.255C122.479 104.983 122.696 104.766 122.968 104.766C123.239 104.766 123.457 104.983 123.457 105.255V110.96C123.402 111.231 123.239 111.449 122.968 111.449ZM122.968 100.039C122.696 100.039 122.479 99.8215 122.479 99.5498V93.8448C122.479 93.5731 122.696 93.3558 122.968 93.3558C123.239 93.3558 123.457 93.5731 123.457 93.8448V99.5498C123.402 99.8215 123.239 100.039 122.968 100.039ZM122.968 88.6288C122.696 88.6288 122.479 88.4115 122.479 88.1398V82.4348C122.479 82.1631 122.696 81.9458 122.968 81.9458C123.239 81.9458 123.457 82.1631 123.457 82.4348V88.1398C123.402 88.4115 123.239 88.6288 122.968 88.6288Z" fill="#C5DFFF"/>
<path d="M122.968 119.707C122.696 119.707 122.479 119.49 122.479 119.218V116.665C122.479 116.393 122.696 116.176 122.968 116.176C123.239 116.176 123.457 116.393 123.457 116.665V119.218C123.402 119.49 123.239 119.707 122.968 119.707Z" fill="#C5DFFF"/>
<path d="M129.327 111.449C129.055 111.449 128.838 111.231 128.838 110.96V105.255C128.838 104.983 129.055 104.766 129.327 104.766C129.599 104.766 129.816 104.983 129.816 105.255V110.96C129.816 111.231 129.599 111.449 129.327 111.449ZM129.327 100.039C129.055 100.039 128.838 99.8215 128.838 99.5498V93.8448C128.838 93.5731 129.055 93.3558 129.327 93.3558C129.599 93.3558 129.816 93.5731 129.816 93.8448V99.5498C129.816 99.8215 129.599 100.039 129.327 100.039ZM129.327 88.6288C129.055 88.6288 128.838 88.4115 128.838 88.1398V82.4348C128.838 82.1631 129.055 81.9458 129.327 81.9458C129.599 81.9458 129.816 82.1631 129.816 82.4348V88.1398C129.816 88.4115 129.599 88.6288 129.327 88.6288Z" fill="#C5DFFF"/>
<path d="M129.327 119.707C129.055 119.707 128.838 119.49 128.838 119.218V116.665C128.838 116.393 129.055 116.176 129.327 116.176C129.599 116.176 129.816 116.393 129.816 116.665V119.218C129.816 119.49 129.599 119.707 129.327 119.707Z" fill="#C5DFFF"/>
<path d="M116.61 44.2385C116.338 44.2385 116.121 44.0211 116.121 43.7495V41.1958C116.121 40.9241 116.338 40.7068 116.61 40.7068C116.882 40.7068 117.099 40.9241 117.099 41.1958V43.7495C117.045 44.0211 116.827 44.2385 116.61 44.2385Z" fill="#C5DFFF"/>
<path d="M116.61 78.4141C116.338 78.4141 116.121 78.1968 116.121 77.9251V72.2201C116.121 71.9485 116.338 71.7311 116.61 71.7311C116.882 71.7311 117.099 71.9485 117.099 72.2201V77.9251C117.045 78.2511 116.827 78.4141 116.61 78.4141ZM116.61 67.0041C116.338 67.0041 116.121 66.7868 116.121 66.5151V60.8101C116.121 60.5385 116.338 60.3211 116.61 60.3211C116.882 60.3211 117.099 60.5385 117.099 60.8101V66.5151C117.045 66.8411 116.827 67.0041 116.61 67.0041ZM116.61 55.6485C116.338 55.6485 116.121 55.4311 116.121 55.1595V49.4545C116.121 49.1828 116.338 48.9655 116.61 48.9655C116.882 48.9655 117.099 49.1828 117.099 49.4545V55.1595C117.045 55.4311 116.827 55.6485 116.61 55.6485Z" fill="#C5DFFF"/>
<path d="M122.968 44.2385C122.696 44.2385 122.479 44.0211 122.479 43.7495V41.1958C122.479 40.9241 122.696 40.7068 122.968 40.7068C123.239 40.7068 123.457 40.9241 123.457 41.1958V43.7495C123.402 44.0211 123.239 44.2385 122.968 44.2385Z" fill="#C5DFFF"/>
<path d="M122.968 78.4143C122.696 78.4143 122.479 78.1969 122.479 77.9252V72.2202C122.479 71.9486 122.696 71.7312 122.968 71.7312C123.239 71.7312 123.457 71.9486 123.457 72.2202V77.9252C123.402 78.2512 123.239 78.4143 122.968 78.4143ZM122.968 67.0042C122.696 67.0042 122.479 66.7869 122.479 66.5152V60.8102C122.479 60.5386 122.696 60.3212 122.968 60.3212C123.239 60.3212 123.457 60.5386 123.457 60.8102V66.5152C123.402 66.8412 123.239 67.0042 122.968 67.0042ZM122.968 55.6486C122.696 55.6486 122.479 55.4312 122.479 55.1596V49.4546C122.479 49.1829 122.696 48.9656 122.968 48.9656C123.239 48.9656 123.457 49.1829 123.457 49.4546V55.1596C123.402 55.4312 123.239 55.6486 122.968 55.6486Z" fill="#C5DFFF"/>
<path d="M129.327 44.2385C129.055 44.2385 128.838 44.0211 128.838 43.7495V41.1958C128.838 40.9241 129.055 40.7068 129.327 40.7068C129.599 40.7068 129.816 40.9241 129.816 41.1958V43.7495C129.816 44.0211 129.599 44.2385 129.327 44.2385Z" fill="#C5DFFF"/>
<path d="M129.327 78.4143C129.055 78.4143 128.838 78.1969 128.838 77.9252V72.2202C128.838 71.9486 129.055 71.7312 129.327 71.7312C129.599 71.7312 129.816 71.9486 129.816 72.2202V77.9252C129.816 78.2512 129.599 78.4143 129.327 78.4143ZM129.327 67.0042C129.055 67.0042 128.838 66.7869 128.838 66.5152V60.8102C128.838 60.5386 129.055 60.3212 129.327 60.3212C129.599 60.3212 129.816 60.5386 129.816 60.8102V66.5152C129.816 66.8412 129.599 67.0042 129.327 67.0042ZM129.327 55.6486C129.055 55.6486 128.838 55.4312 128.838 55.1596V49.4546C128.838 49.1829 129.055 48.9656 129.327 48.9656C129.599 48.9656 129.816 49.1829 129.816 49.4546V55.1596C129.816 55.4312 129.599 55.6486 129.327 55.6486Z" fill="#C5DFFF"/>
<path d="M78.5222 44.2386C78.2505 44.2386 78.0332 44.0212 78.0332 43.7496V41.1959C78.0332 40.9242 78.2505 40.7069 78.5222 40.7069C78.7939 40.7069 79.0112 40.9242 79.0112 41.1959V43.7496C78.9569 44.0212 78.7939 44.2386 78.5222 44.2386Z" fill="#C5DFFF"/>
<path d="M78.5222 78.4143C78.2505 78.4143 78.0332 78.1969 78.0332 77.9252V72.2202C78.0332 71.9486 78.2505 71.7312 78.5222 71.7312C78.7939 71.7312 79.0112 71.9486 79.0112 72.2202V77.9252C78.9569 78.2512 78.7939 78.4143 78.5222 78.4143ZM78.5222 67.0042C78.2505 67.0042 78.0332 66.7869 78.0332 66.5152V60.8102C78.0332 60.5386 78.2505 60.3212 78.5222 60.3212C78.7939 60.3212 79.0112 60.5386 79.0112 60.8102V66.5152C78.9569 66.8412 78.7939 67.0042 78.5222 67.0042ZM78.5222 55.6486C78.2505 55.6486 78.0332 55.4312 78.0332 55.1596V49.4546C78.0332 49.1829 78.2505 48.9656 78.5222 48.9656C78.7939 48.9656 79.0112 49.1829 79.0112 49.4546V55.1596C78.9569 55.4312 78.7939 55.6486 78.5222 55.6486Z" fill="#C5DFFF"/>
<path d="M84.8796 44.2385C84.608 44.2385 84.3906 44.0211 84.3906 43.7495V41.1958C84.3906 40.9241 84.608 40.7068 84.8796 40.7068C85.1513 40.7068 85.3686 40.9241 85.3686 41.1958V43.7495C85.3686 44.0211 85.1513 44.2385 84.8796 44.2385Z" fill="#C5DFFF"/>
<path d="M84.8796 78.4143C84.608 78.4143 84.3906 78.1969 84.3906 77.9252V72.2202C84.3906 71.9486 84.608 71.7312 84.8796 71.7312C85.1513 71.7312 85.3686 71.9486 85.3686 72.2202V77.9252C85.3686 78.2512 85.1513 78.4143 84.8796 78.4143ZM84.8796 67.0042C84.608 67.0042 84.3906 66.7869 84.3906 66.5152V60.8102C84.3906 60.5386 84.608 60.3212 84.8796 60.3212C85.1513 60.3212 85.3686 60.5386 85.3686 60.8102V66.5152C85.3686 66.8412 85.1513 67.0042 84.8796 67.0042ZM84.8796 55.6486C84.608 55.6486 84.3906 55.4312 84.3906 55.1596V49.4546C84.3906 49.1829 84.608 48.9656 84.8796 48.9656C85.1513 48.9656 85.3686 49.1829 85.3686 49.4546V55.1596C85.3686 55.4312 85.1513 55.6486 84.8796 55.6486Z" fill="#C5DFFF"/>
<path d="M143.286 88.4661C143.014 88.4661 142.797 88.2488 142.797 87.9771V85.4234C142.797 85.1518 143.014 84.9344 143.286 84.9344C143.558 84.9344 143.775 85.1518 143.775 85.4234V87.9771C143.721 88.2488 143.503 88.4661 143.286 88.4661Z" fill="#C5DFFF"/>
<path d="M143.286 122.642C143.014 122.642 142.797 122.424 142.797 122.153V116.448C142.797 116.176 143.014 115.959 143.286 115.959C143.558 115.959 143.775 116.176 143.775 116.448V122.153C143.721 122.424 143.503 122.642 143.286 122.642ZM143.286 111.232C143.014 111.232 142.797 111.014 142.797 110.743V105.038C142.797 104.766 143.014 104.549 143.286 104.549C143.558 104.549 143.775 104.766 143.775 105.038V110.743C143.721 111.014 143.503 111.232 143.286 111.232ZM143.286 99.8218C143.014 99.8218 142.797 99.6045 142.797 99.3328V93.6278C142.797 93.3561 143.014 93.1388 143.286 93.1388C143.558 93.1388 143.775 93.3561 143.775 93.6278V99.3328C143.721 99.6588 143.503 99.8218 143.286 99.8218Z" fill="#C5DFFF"/>
<path d="M143.286 130.9C143.014 130.9 142.797 130.683 142.797 130.411V127.858C142.797 127.586 143.014 127.369 143.286 127.369C143.558 127.369 143.775 127.586 143.775 127.858V130.411C143.721 130.737 143.503 130.9 143.286 130.9Z" fill="#C5DFFF"/>
<path d="M149.645 88.4661C149.374 88.4661 149.156 88.2488 149.156 87.9771V85.4234C149.156 85.1518 149.374 84.9344 149.645 84.9344C149.917 84.9344 150.134 85.1518 150.134 85.4234V87.9771C150.08 88.2488 149.917 88.4661 149.645 88.4661Z" fill="#C5DFFF"/>
<path d="M149.645 122.642C149.374 122.642 149.156 122.424 149.156 122.153V116.448C149.156 116.176 149.374 115.959 149.645 115.959C149.917 115.959 150.134 116.176 150.134 116.448V122.153C150.08 122.424 149.917 122.642 149.645 122.642ZM149.645 111.232C149.374 111.232 149.156 111.014 149.156 110.743V105.038C149.156 104.766 149.374 104.549 149.645 104.549C149.917 104.549 150.134 104.766 150.134 105.038V110.743C150.08 111.014 149.917 111.232 149.645 111.232ZM149.645 99.8218C149.374 99.8218 149.156 99.6045 149.156 99.3328V93.6278C149.156 93.3561 149.374 93.1388 149.645 93.1388C149.917 93.1388 150.134 93.3561 150.134 93.6278V99.3328C150.08 99.6588 149.917 99.8218 149.645 99.8218Z" fill="#C5DFFF"/>
<path d="M149.645 130.9C149.374 130.9 149.156 130.683 149.156 130.411V127.858C149.156 127.586 149.374 127.369 149.645 127.369C149.917 127.369 150.134 127.586 150.134 127.858V130.411C150.08 130.737 149.917 130.9 149.645 130.9Z" fill="#C5DFFF"/>
<path d="M156.003 88.4661C155.731 88.4661 155.514 88.2488 155.514 87.9771V85.4234C155.514 85.1518 155.731 84.9344 156.003 84.9344C156.274 84.9344 156.492 85.1518 156.492 85.4234V87.9771C156.492 88.2488 156.274 88.4661 156.003 88.4661Z" fill="#C5DFFF"/>
<path d="M156.003 122.642C155.731 122.642 155.514 122.424 155.514 122.153V116.448C155.514 116.176 155.731 115.959 156.003 115.959C156.274 115.959 156.492 116.176 156.492 116.448V122.153C156.492 122.424 156.274 122.642 156.003 122.642ZM156.003 111.232C155.731 111.232 155.514 111.014 155.514 110.743V105.038C155.514 104.766 155.731 104.549 156.003 104.549C156.274 104.549 156.492 104.766 156.492 105.038V110.743C156.492 111.014 156.274 111.232 156.003 111.232ZM156.003 99.8218C155.731 99.8218 155.514 99.6045 155.514 99.3328V93.6278C155.514 93.3561 155.731 93.1388 156.003 93.1388C156.274 93.1388 156.492 93.3561 156.492 93.6278V99.3328C156.492 99.6588 156.274 99.8218 156.003 99.8218Z" fill="#C5DFFF"/>
<path d="M162.411 88.4661C162.139 88.4661 161.922 88.2488 161.922 87.9771V85.4234C161.922 85.1518 162.139 84.9344 162.411 84.9344C162.683 84.9344 162.9 85.1518 162.9 85.4234V87.9771C162.846 88.2488 162.628 88.4661 162.411 88.4661Z" fill="#C5DFFF"/>
<path d="M162.411 122.642C162.139 122.642 161.922 122.424 161.922 122.153V116.448C161.922 116.176 162.139 115.959 162.411 115.959C162.683 115.959 162.9 116.176 162.9 116.448V122.153C162.846 122.424 162.628 122.642 162.411 122.642ZM162.411 111.232C162.139 111.232 161.922 111.014 161.922 110.743V105.038C161.922 104.766 162.139 104.549 162.411 104.549C162.683 104.549 162.9 104.766 162.9 105.038V110.743C162.846 111.014 162.628 111.232 162.411 111.232ZM162.411 99.8218C162.139 99.8218 161.922 99.6045 161.922 99.3328V93.6278C161.922 93.3561 162.139 93.1388 162.411 93.1388C162.683 93.1388 162.9 93.3561 162.9 93.6278V99.3328C162.846 99.6588 162.628 99.8218 162.411 99.8218Z" fill="#C5DFFF"/>
<path d="M168.768 88.4661C168.497 88.4661 168.279 88.2488 168.279 87.9771V85.4234C168.279 85.1518 168.497 84.9344 168.768 84.9344C169.04 84.9344 169.257 85.1518 169.257 85.4234V87.9771C169.203 88.2488 169.04 88.4661 168.768 88.4661Z" fill="#C5DFFF"/>
<path d="M168.768 111.232C168.497 111.232 168.279 111.014 168.279 110.743V105.038C168.279 104.766 168.497 104.549 168.768 104.549C169.04 104.549 169.257 104.766 169.257 105.038V110.743C169.203 111.014 169.04 111.232 168.768 111.232ZM168.768 99.8218C168.497 99.8218 168.279 99.6045 168.279 99.3328V93.6278C168.279 93.3561 168.497 93.1388 168.768 93.1388C169.04 93.1388 169.257 93.3561 169.257 93.6278V99.3328C169.203 99.6588 169.04 99.8218 168.768 99.8218Z" fill="#C5DFFF"/>
<path d="M175.128 88.4661C174.856 88.4661 174.639 88.2488 174.639 87.9771V85.4234C174.639 85.1518 174.856 84.9344 175.128 84.9344C175.399 84.9344 175.617 85.1518 175.617 85.4234V87.9771C175.617 88.2488 175.399 88.4661 175.128 88.4661Z" fill="#C5DFFF"/>
<path d="M175.128 99.8218C174.856 99.8218 174.639 99.6045 174.639 99.3328V93.6278C174.639 93.3561 174.856 93.1388 175.128 93.1388C175.399 93.1388 175.617 93.3561 175.617 93.6278V99.3328C175.617 99.6588 175.399 99.8218 175.128 99.8218Z" fill="#C5DFFF"/>
<path d="M136.333 35.3282C136.333 37.3929 115.904 39.6205 93.7905 39.6205C71.6768 39.6205 54.9422 41.1419 52.6058 37.9362C52.2798 37.5015 52.2798 37.0669 52.6058 36.6865C54.2358 34.6762 63.7442 34.0242 65.3742 33.9155C65.5372 33.9155 65.5915 33.9155 65.5915 33.9155C65.5915 33.9155 59.0715 26.7435 64.0702 20.9299C69.0688 15.1162 74.4478 20.2235 74.4478 20.2235C74.4478 20.2235 72.3288 9.08519 78.3598 6.31419C78.5228 6.25985 78.6858 6.15119 78.8488 6.09685C85.3145 3.81485 87.8138 12.1279 87.9768 12.5625C87.9768 12.5625 88.1398 1.36985 98.0828 0.391854C99.7672 0.228854 101.289 0.554853 102.593 1.26119C108.841 4.57552 110.525 15.7139 110.525 15.7139C110.96 15.2792 115.85 10.6609 121.12 13.6492C126.553 16.7462 123.565 24.7332 123.456 24.9505C123.619 24.8962 127.477 24.0269 128.727 26.2002C129.976 28.4279 128.727 31.8508 128.727 31.8508C128.727 31.8508 131.606 32.3399 133.78 33.1549C135.03 33.6439 136.116 34.2415 136.279 34.9479C136.334 35.1652 136.333 35.2195 136.333 35.3282Z" fill="#273D7A"/>
<path d="M67.6551 31.7965C68.8504 34.0242 69.6654 34.8392 69.6654 34.8392C69.6654 34.8392 67.8181 34.8935 65.3187 33.9155C65.4817 33.9155 65.5361 33.9155 65.5361 33.9155C65.5361 33.9155 59.0161 26.7435 64.0147 20.9299C69.0134 15.1162 74.3924 20.2235 74.3924 20.2235C74.3924 20.2235 72.2734 9.08521 78.3044 6.31421C77.6524 7.61821 76.9461 9.79154 77.0004 12.5082C77.1091 17.2895 78.6847 24.1355 78.6847 24.1355C78.6847 24.1355 72.1647 20.3865 67.9811 21.8535C63.9061 23.3205 66.4597 29.6232 67.6551 31.7965Z" fill="#072359"/>
<path d="M136.333 35.3282C136.333 37.3928 115.904 39.6205 93.7905 39.6205C71.6768 39.6205 54.9422 41.1418 52.6058 37.9362C52.2798 37.5015 52.2798 37.0668 52.6058 36.6865C55.3225 37.5558 60.8645 38.5882 71.6768 38.2078C89.7698 37.5015 126.119 37.3928 134.975 35.4368C135.464 35.3282 135.899 35.2195 136.333 35.1108C136.333 35.1652 136.333 35.2195 136.333 35.3282Z" fill="#072359"/>
<path d="M102.593 1.36983C100.311 1.58717 97.1593 2.34783 94.2796 4.5755C89.1179 8.59616 88.6289 16.2028 88.6289 16.2028L88.0312 12.6712C88.0312 12.6712 88.1943 1.4785 98.1373 0.500496C99.7673 0.337496 101.289 0.663499 102.593 1.36983Z" fill="#506893"/>
<path d="M126.88 32.8289C126.88 32.8289 127.64 30.3296 126.065 28.2649C124.489 26.2002 120.251 27.8302 120.251 27.8302C120.251 27.8302 123.62 19.4086 119.545 15.8226C115.578 12.3452 110.743 15.6596 110.525 15.8226C110.96 15.3879 115.85 10.7696 121.12 13.7579C126.554 16.8549 123.565 24.8419 123.457 25.0592C123.62 25.0049 127.477 24.1356 128.727 26.3089C129.977 28.5366 128.727 31.9596 128.727 31.9596C128.727 31.9596 131.607 32.4486 133.78 33.2636C131.552 33.0462 126.88 32.8289 126.88 32.8289Z" fill="#506893"/>
<path d="M47.9346 52.9864C46.4132 54.6164 40.1649 55.54 28.1572 56.7897C18.4859 57.822 6.47821 58.2024 5.60888 56.029C4.73955 53.8557 12.5092 52.9864 12.5092 52.9864C12.5092 52.9864 9.95555 49.9437 13.5416 46.249C16.1496 43.5324 20.3875 46.1404 20.5505 46.249C20.4962 46.086 16.7472 38.3707 20.3332 34.35C20.9309 33.698 21.6915 33.1004 22.7239 32.72C22.7782 32.72 22.8325 32.6657 22.8869 32.6657C30.1675 30.0577 34.1882 45.2167 34.1882 45.2167C34.1882 45.2167 41.0885 41.6307 43.3705 44.8364C45.5439 47.8247 44.2942 50.9217 44.1312 51.302V51.3564C44.1312 51.3564 47.1195 51.3564 47.9889 52.0627C48.2605 52.28 48.3149 52.606 47.9346 52.9864Z" fill="#273D7A"/>
<path d="M47.9346 52.9863C46.4132 54.6163 40.1649 55.54 28.1572 56.7896C18.4859 57.822 6.47822 58.2023 5.60888 56.029C4.73955 53.8556 12.5092 52.9863 12.5092 52.9863C12.5092 52.9863 9.95555 49.9436 13.5416 46.249C16.1496 43.5323 20.3875 46.1403 20.5505 46.249C20.4962 46.086 16.7472 38.3706 20.3332 34.35C20.0616 35.5996 20.0072 37.3926 20.6049 39.729C22.1262 45.8686 24.6799 49.4003 24.6799 49.4003C24.6799 49.4003 18.1599 45.597 15.0085 47.553C11.8572 49.509 15.3346 53.584 15.3346 53.584C15.3346 53.584 8.86889 54.073 8.81455 55.6486C8.70589 57.17 27.0162 55.051 35.8182 54.1816C43.3706 53.4753 46.5219 52.8233 48.0432 52.0083C48.2606 52.28 48.3149 52.606 47.9346 52.9863Z" fill="#072359"/>
<path d="M44.1311 51.302L43.479 51.628C43.479 51.628 44.0224 46.6837 41.4144 45.3797C38.7521 44.0757 32.9927 48.042 32.9927 48.042C32.9927 48.042 32.5037 42.826 29.1894 37.8274C27.0704 34.6217 24.4624 33.2634 22.8867 32.6657C30.1674 30.0577 34.1881 45.2167 34.1881 45.2167C34.1881 45.2167 41.0884 41.6307 43.3704 44.8364C45.5437 47.8247 44.2941 50.976 44.1311 51.302Z" fill="#506893"/>
<path d="M34.244 62.549L25.931 72.981C25.6593 73.3614 25.0617 73.0353 25.2247 72.6007L25.279 72.5464L27.7783 66.1894C27.7783 66.135 27.8327 66.0807 27.7783 66.0264C27.7783 65.809 27.6153 65.7003 27.398 65.7003L24.138 66.0807C23.3773 66.1893 22.834 65.4287 23.16 64.7223L23.2143 64.5594L25.931 58.7457L25.9853 58.637C26.1483 58.2567 25.8767 57.8764 25.4963 57.8764L22.2363 57.9307C21.1497 57.9307 20.4977 56.7897 21.041 55.866L21.1497 55.6487L28.7563 42.9347C28.9193 42.7173 29.1367 42.6087 29.354 42.663C29.6257 42.7173 29.843 42.989 29.7887 43.315L28.376 51.3563C28.3217 51.791 28.702 52.1714 29.0823 52.0627L32.6683 51.302C32.94 51.2477 33.2117 51.302 33.429 51.4107C33.8093 51.6823 34.0267 52.2257 33.8093 52.7147L30.2233 60.0497C30.0603 60.3757 30.2777 60.756 30.658 60.8103C30.658 60.8103 30.658 60.8103 30.7123 60.8103L33.5377 60.8647C33.7007 60.8647 33.8637 60.919 33.9723 60.9733C34.4613 61.2993 34.6787 62.0057 34.244 62.549Z" fill="#FEC272"/>
<path d="M25.9306 58.8V58.6913C26.0936 58.311 25.822 57.9307 25.4416 57.9307L22.1816 57.985C21.095 57.985 20.443 56.844 20.9863 55.9203L21.095 55.703C21.258 55.9203 21.5296 56.0833 22.073 56.1377C23.051 56.192 25.7133 56.1377 26.5283 56.1377C27.289 56.2463 25.9306 58.8 25.9306 58.8Z" fill="#FF8D76"/>
<path d="M27.7773 65.9719C27.7773 65.7546 27.6144 65.6459 27.397 65.6459L24.137 66.0263C23.3764 66.1349 22.833 65.3743 23.159 64.6679L23.2134 64.5049C23.485 64.5593 23.974 64.6679 24.7347 64.5593C26.093 64.3963 28.049 64.0159 28.212 64.1789C28.3207 64.4506 27.886 65.7003 27.7773 65.9719Z" fill="#FF8D76"/>
<path d="M28.3218 51.4107C28.2674 51.8454 28.6478 52.2257 29.0281 52.1171C27.9958 52.4974 26.9634 52.6061 27.1264 51.5737C27.2894 50.6501 28.9738 43.9671 29.2454 42.7174C29.5171 42.7717 29.7344 43.0434 29.6801 43.3694L28.3218 51.4107Z" fill="#FF8D76"/>
<path d="M30.2231 60.1583C30.0601 60.4843 30.2775 60.8646 30.6578 60.9189C30.6035 60.9189 30.5491 60.9189 30.4948 60.9189C29.5711 60.9189 28.7018 60.6473 29.3538 59.3976C29.8971 58.3109 32.7225 52.9863 33.4831 51.5736C33.8635 51.8453 34.0808 52.3886 33.8635 52.8776L30.2231 60.1583Z" fill="#FF8D76"/>
<path d="M34.2443 62.549L25.9313 72.981C25.6596 73.3614 25.062 73.0354 25.225 72.6007L25.2793 72.5464C25.6053 72.2204 26.203 71.677 27.018 70.4817C27.996 69.069 32.9403 62.4404 33.9726 61.0277C34.4616 61.2994 34.679 62.0057 34.2443 62.549Z" fill="#FF8D76"/>
<path d="M102.867 68.9061L82.8724 94.0081C82.166 94.8774 80.8077 94.1168 81.188 93.0301L81.2424 92.8671L87.3277 77.5451C87.382 77.4364 87.382 77.3278 87.382 77.1648C87.382 76.7301 86.9474 76.2954 86.4584 76.4041L78.6344 77.3278C76.8414 77.5451 75.5374 75.7521 76.298 74.1221L76.461 73.7961L82.9267 59.8324L83.0354 59.6151C83.4157 58.7458 82.7637 57.7134 81.84 57.7678L74.016 57.9307C71.408 57.9851 69.778 55.1597 71.1364 52.9321L71.408 52.4974L89.664 21.9621C89.99 21.3644 90.5877 21.2014 91.131 21.3101C91.783 21.4731 92.3264 22.0708 92.1634 22.8858L88.7947 42.1741C88.6317 43.2064 89.501 44.0758 90.5334 43.8584L99.2267 42.0111C99.8787 41.8481 100.531 42.0111 101.02 42.3371C101.998 42.9348 102.487 44.2387 101.889 45.4341L93.3044 63.0924C92.924 63.9074 93.4674 64.8311 94.3367 64.8854H94.391L101.128 64.9941C101.509 64.9941 101.835 65.1027 102.161 65.2657C103.356 65.8634 103.899 67.6564 102.867 68.9061Z" fill="#FEC272"/>
<path d="M82.9263 59.8323H82.872L82.9807 59.615C83.361 58.7457 82.709 57.7133 81.7853 57.7677L73.9613 57.9306C71.3533 57.985 69.7233 55.1596 71.0817 52.932L71.3533 52.4973C71.7337 52.932 72.44 53.4753 73.6353 53.5297C75.9717 53.6383 82.383 53.4753 84.2847 53.584C86.1863 53.6926 82.9263 59.8323 82.9263 59.8323Z" fill="#FF8D76"/>
<path d="M87.3267 77.1648C87.3267 76.7301 86.8921 76.2955 86.4031 76.4041L78.5791 77.3278C76.7861 77.5451 75.4821 75.7521 76.2427 74.1221L76.4057 73.7961C77.1121 73.9591 78.3074 74.1221 80.0461 73.9048C83.2517 73.4701 88.0331 72.5465 88.4134 73.0355C88.6851 73.4701 87.5984 76.5128 87.3267 77.1648Z" fill="#FF8D76"/>
<path d="M88.6864 42.174C88.5234 43.2064 89.3927 44.0757 90.425 43.8584C87.8713 44.782 85.4263 44.9994 85.861 42.6087C86.2413 40.4354 90.262 24.2984 90.9683 21.3644C91.6203 21.5274 92.1637 22.125 92.0007 22.94L88.6864 42.174Z" fill="#FF8D76"/>
<path d="M93.1957 63.0924C92.8154 63.9074 93.3587 64.831 94.2281 64.8854C94.0651 64.8854 93.9564 64.8854 93.7934 64.8854C91.5114 64.8854 89.5011 64.2334 91.0224 61.1907C92.3264 58.5284 99.0637 45.8144 100.911 42.337C101.889 42.9347 102.378 44.2387 101.78 45.434L93.1957 63.0924Z" fill="#FF8D76"/>
<path d="M102.866 68.9061L82.8714 94.0081C82.165 94.8774 80.8067 94.1168 81.187 93.0301L81.2414 92.8671C82.0564 92.1064 83.4147 90.7481 85.425 87.9228C87.8157 84.4998 99.6604 68.5801 102.105 65.2657C103.355 65.8634 103.898 67.6564 102.866 68.9061Z" fill="#FF8D76"/>
<path d="M161.492 83.5761L154.592 92.2151C154.374 92.5411 153.885 92.2694 153.994 91.8891V91.8347L156.059 86.5644C156.059 86.5101 156.059 86.4557 156.059 86.4557C156.059 86.2927 155.896 86.1841 155.733 86.1841L153.016 86.5101C152.418 86.5644 151.929 85.9667 152.201 85.4234L152.255 85.3147L154.483 80.5334L154.537 80.4791C154.7 80.1531 154.429 79.8271 154.103 79.8271L151.386 79.8814C150.517 79.8814 149.919 78.9034 150.408 78.1427L150.517 77.9797L156.819 67.4391C156.928 67.2217 157.145 67.1674 157.308 67.2217C157.526 67.2761 157.743 67.4934 157.689 67.7651L156.548 74.3937C156.493 74.7197 156.819 75.0457 157.145 74.9914L160.134 74.3394C160.351 74.2851 160.568 74.3394 160.731 74.4481C161.057 74.6654 161.22 75.1001 161.057 75.5347L158.069 81.6201C157.96 81.8917 158.123 82.2177 158.395 82.2177L160.731 82.2721C160.84 82.2721 161.003 82.3264 161.057 82.3807C161.655 82.5437 161.818 83.1414 161.492 83.5761Z" fill="#FEC272"/>
<path d="M154.647 80.4248V80.3704C154.81 80.0444 154.538 79.7184 154.212 79.7184L151.496 79.7728C150.626 79.7728 150.029 78.7948 150.518 78.0341L150.626 77.8711C150.735 78.0341 151.007 78.1971 151.441 78.2514C152.256 78.3058 154.43 78.2514 155.136 78.2514C155.842 78.2514 154.647 80.4248 154.647 80.4248Z" fill="#FF8D76"/>
<path d="M156.167 86.4015C156.167 86.2385 156.004 86.1298 155.841 86.1298L153.124 86.4558C152.527 86.5102 152.038 85.9125 152.309 85.3692L152.364 85.2605C152.581 85.3148 153.016 85.3692 153.613 85.3148C154.7 85.1518 156.384 84.8802 156.493 85.0432C156.602 85.1518 156.221 86.1842 156.167 86.4015Z" fill="#FF8D76"/>
<path d="M156.601 74.3395C156.547 74.6655 156.873 74.9915 157.199 74.9371C156.33 75.2631 155.46 75.3175 155.623 74.5025C155.732 73.7418 157.145 68.1998 157.416 67.1675C157.634 67.2218 157.851 67.4391 157.797 67.7108L156.601 74.3395Z" fill="#FF8D76"/>
<path d="M158.177 81.5658C158.069 81.8375 158.232 82.1635 158.503 82.1635C158.449 82.1635 158.395 82.1635 158.34 82.1635C157.58 82.1635 156.873 81.9461 157.417 80.8595C157.851 79.9358 160.188 75.5348 160.84 74.3395C161.166 74.5568 161.329 74.9915 161.166 75.4261L158.177 81.5658Z" fill="#FF8D76"/>
<path d="M161.492 83.5762L154.592 92.2152C154.374 92.5412 153.885 92.2695 153.994 91.8892V91.8349C154.266 91.5632 154.755 91.1285 155.407 90.1505C156.222 88.9552 160.297 83.4675 161.166 82.3265C161.655 82.5439 161.818 83.1415 161.492 83.5762Z" fill="#FF8D76"/>
<path d="M177.358 78.3057C177.303 79.5553 167.415 80.9137 156.385 81.1853C145.355 81.457 138.346 80.3703 139.107 79.1207C139.868 77.9253 143.888 77.4907 143.888 77.4907C143.888 77.4907 140.085 74.5567 142.095 70.4273C144.16 66.298 148.561 69.232 148.561 69.232C148.561 69.232 147.148 62.9293 151.278 60.919C151.93 60.593 152.69 60.3757 153.614 60.3213C154.103 60.267 154.538 60.3213 155.027 60.3757C160.949 61.245 163.448 70.6447 163.448 70.6447C163.448 70.6447 166.817 67.113 169.316 69.232C171.816 71.351 170.729 75.0457 170.729 75.0457C170.729 75.0457 171.924 74.285 173.446 74.6653C174.261 74.8827 174.587 75.426 174.75 75.9693C174.913 76.4583 174.913 76.893 174.913 76.893C174.913 76.893 176.217 77.0017 176.923 77.4907C177.195 77.6537 177.358 77.9253 177.358 78.3057Z" fill="#273D7A"/>
<path d="M177.358 78.3056C177.303 79.5553 167.415 80.9136 156.385 81.1853C145.355 81.4569 138.346 80.3703 139.107 79.1206C139.868 77.9253 143.888 77.4906 143.888 77.4906C143.888 77.4906 140.085 74.5566 142.095 70.4273C144.16 66.2979 148.561 69.2319 148.561 69.2319C148.561 69.2319 147.148 62.9293 151.278 60.9189C150.843 62.0056 150.3 63.7443 150.408 65.5373C150.68 68.9059 152.038 71.5139 152.147 71.6769C151.93 71.5683 147.148 69.1776 144.595 70.6446C141.987 72.166 145.79 78.0339 145.79 78.0339C145.79 78.0339 142.313 78.7946 143.997 79.5553C145.681 80.3159 162.036 80.2073 168.284 79.501C172.468 79.012 175.402 78.0883 176.923 77.4906C177.195 77.6536 177.358 77.9253 177.358 78.3056Z" fill="#072359"/>
<path d="M174.75 75.915C174.587 75.8063 174.37 75.752 174.207 75.6433C172.686 74.8826 169.534 76.4039 169.534 76.4039C169.534 76.4039 170.186 71.6769 168.285 70.4273C166.383 69.1776 162.851 73.2526 162.851 73.2526C162.851 73.2526 162.417 70.699 160.189 66.298C158.831 63.6356 156.603 61.571 155.027 60.3213C160.95 61.1906 163.449 70.5903 163.449 70.5903C163.449 70.5903 166.818 67.0586 169.317 69.1776C171.816 71.2966 170.73 74.9913 170.73 74.9913C170.73 74.9913 171.925 74.2306 173.446 74.611C174.207 74.774 174.587 75.3716 174.75 75.915Z" fill="#506893"/>
<path d="M93.0843 214.411V238.861C93.0843 240.817 91.5087 242.447 89.4983 242.447H26.3087C24.3527 242.447 22.7227 240.871 22.7227 238.861V214.411C22.7227 212.455 24.2983 210.825 26.3087 210.825H89.5527C91.5087 210.825 93.0843 212.455 93.0843 214.411Z" fill="#E1ECFF"/>
<path d="M33.2087 219.301C34.2289 219.301 35.056 218.474 35.056 217.453C35.056 216.433 34.2289 215.606 33.2087 215.606C32.1884 215.606 31.3613 216.433 31.3613 217.453C31.3613 218.474 32.1884 219.301 33.2087 219.301Z" fill="#273D7A"/>
<path d="M39.7829 219.301C40.8031 219.301 41.6302 218.474 41.6302 217.453C41.6302 216.433 40.8031 215.606 39.7829 215.606C38.7626 215.606 37.9355 216.433 37.9355 217.453C37.9355 218.474 38.7626 219.301 39.7829 219.301Z" fill="#FF8D76"/>
<path d="M46.3024 219.301C47.3227 219.301 48.1497 218.474 48.1497 217.453C48.1497 216.433 47.3227 215.606 46.3024 215.606C45.2822 215.606 44.4551 216.433 44.4551 217.453C44.4551 218.474 45.2822 219.301 46.3024 219.301Z" fill="#FF8D76"/>
<path d="M83.1949 227.233H67.0579C66.3516 227.233 65.7539 226.636 65.7539 225.929C65.7539 225.223 66.3516 224.625 67.0579 224.625H83.1949C83.9012 224.625 84.4989 225.223 84.4989 225.929C84.4989 226.636 83.9556 227.233 83.1949 227.233Z" fill="#273D7A"/>
<path d="M83.5214 228.646C85.0217 228.646 86.238 227.43 86.238 225.929C86.238 224.429 85.0217 223.213 83.5214 223.213C82.021 223.213 80.8047 224.429 80.8047 225.929C80.8047 227.43 82.021 228.646 83.5214 228.646Z" fill="#FF8D76"/>
<path d="M60.4854 242.447H30.9824L32.0691 239.784C32.6124 238.426 33.9164 237.557 35.3834 237.557H56.1388C57.6058 237.557 58.8554 238.426 59.4531 239.784L60.4854 242.447Z" fill="#273D7A"/>
<path d="M85.4773 242.447H31.3613V247.826H85.4773V242.447Z" fill="#273D7A"/>
<path d="M85.4773 242.447H31.3613V245.109H85.4773V242.447Z" fill="#072359"/>
<path d="M28.3733 210.825V242.447H26.3087C24.3527 242.447 22.7227 240.871 22.7227 238.861V214.411C22.7227 212.455 24.2983 210.825 26.3087 210.825H28.3733Z" fill="#CDE0FC"/>
<path d="M93.0844 214.411V238.861C93.0844 240.817 91.5088 242.447 89.4984 242.447H88.3574V210.825H89.4984C91.5088 210.825 93.0844 212.455 93.0844 214.411Z" fill="#F0F5FC"/>
<path d="M93.0843 185.886V203.055C93.0843 205.011 91.5087 206.641 89.4983 206.641H26.3087C24.3527 206.641 22.7227 205.065 22.7227 203.055V185.886C22.7227 183.93 24.2983 182.3 26.3087 182.3H89.5527C91.5087 182.3 93.0843 183.93 93.0843 185.886Z" fill="#E1ECFF"/>
<path d="M33.2087 190.776C34.2289 190.776 35.056 189.949 35.056 188.928C35.056 187.908 34.2289 187.081 33.2087 187.081C32.1884 187.081 31.3613 187.908 31.3613 188.928C31.3613 189.949 32.1884 190.776 33.2087 190.776Z" fill="#FF8D76"/>
<path d="M39.7829 190.776C40.8031 190.776 41.6302 189.949 41.6302 188.928C41.6302 187.908 40.8031 187.081 39.7829 187.081C38.7626 187.081 37.9355 187.908 37.9355 188.928C37.9355 189.949 38.7626 190.776 39.7829 190.776Z" fill="#FF8D76"/>
<path d="M46.3024 190.776C47.3227 190.776 48.1497 189.949 48.1497 188.928C48.1497 187.908 47.3227 187.081 46.3024 187.081C45.2822 187.081 44.4551 187.908 44.4551 188.928C44.4551 189.949 45.2822 190.776 46.3024 190.776Z" fill="#273D7A"/>
<path d="M83.1949 193.384H67.0579C66.3516 193.384 65.7539 192.786 65.7539 192.08C65.7539 191.373 66.3516 190.776 67.0579 190.776H83.1949C83.9012 190.776 84.4989 191.373 84.4989 192.08C84.4989 192.786 83.9556 193.384 83.1949 193.384Z" fill="#273D7A"/>
<path d="M83.5214 194.742C85.0217 194.742 86.238 193.526 86.238 192.025C86.238 190.525 85.0217 189.309 83.5214 189.309C82.021 189.309 80.8047 190.525 80.8047 192.025C80.8047 193.526 82.021 194.742 83.5214 194.742Z" fill="#FF8D76"/>
<path d="M60.4854 206.641H30.9824L32.0691 203.979C32.6124 202.62 33.9164 201.751 35.3834 201.751H56.1388C57.6058 201.751 58.8554 202.62 59.4531 203.979L60.4854 206.641Z" fill="#273D7A"/>
<path d="M85.4773 206.641H31.3613V210.825H85.4773V206.641Z" fill="#273D7A"/>
<path d="M85.4773 206.641H31.3613V208.76H85.4773V206.641Z" fill="#072359"/>
<path d="M28.3733 182.3V206.587H26.3087C24.3527 206.587 22.7227 205.011 22.7227 203.001V185.831C22.7227 183.875 24.2983 182.245 26.3087 182.245H28.3733V182.3Z" fill="#CDE0FC"/>
<path d="M93.0844 185.886V203.055C93.0844 205.011 91.5088 206.641 89.4984 206.641H88.3574V182.354H89.4984C91.5088 182.3 93.0844 183.93 93.0844 185.886Z" fill="#F0F5FC"/>
<path d="M93.0843 160.892V174.53C93.0843 176.486 91.5087 178.116 89.4983 178.116H26.3087C24.3527 178.116 22.7227 176.54 22.7227 174.53V160.838C22.7227 158.882 24.2983 157.252 26.3087 157.252H89.5527C91.5087 157.306 93.0843 158.882 93.0843 160.892Z" fill="#E1ECFF"/>
<path d="M33.2087 165.782C34.2289 165.782 35.056 164.955 35.056 163.935C35.056 162.915 34.2289 162.088 33.2087 162.088C32.1884 162.088 31.3613 162.915 31.3613 163.935C31.3613 164.955 32.1884 165.782 33.2087 165.782Z" fill="#273D7A"/>
<path d="M39.7829 165.782C40.8031 165.782 41.6302 164.955 41.6302 163.935C41.6302 162.915 40.8031 162.088 39.7829 162.088C38.7626 162.088 37.9355 162.915 37.9355 163.935C37.9355 164.955 38.7626 165.782 39.7829 165.782Z" fill="#FF8D76"/>
<path d="M46.3024 165.782C47.3227 165.782 48.1497 164.955 48.1497 163.935C48.1497 162.915 47.3227 162.088 46.3024 162.088C45.2822 162.088 44.4551 162.915 44.4551 163.935C44.4551 164.955 45.2822 165.782 46.3024 165.782Z" fill="#FF8D76"/>
<path d="M83.1949 168.336H67.0579C66.3516 168.336 65.7539 167.738 65.7539 167.032C65.7539 166.326 66.3516 165.728 67.0579 165.728H83.1949C83.9012 165.728 84.4989 166.326 84.4989 167.032C84.4989 167.738 83.9556 168.336 83.1949 168.336Z" fill="#273D7A"/>
<path d="M83.5214 169.749C85.0217 169.749 86.238 168.532 86.238 167.032C86.238 165.532 85.0217 164.315 83.5214 164.315C82.021 164.315 80.8047 165.532 80.8047 167.032C80.8047 168.532 82.021 169.749 83.5214 169.749Z" fill="#FF8D76"/>
<path d="M60.4854 178.116H30.9824L32.0691 175.454C32.6124 174.095 33.9164 173.226 35.3834 173.226H56.1388C57.6058 173.226 58.8554 174.095 59.4531 175.454L60.4854 178.116Z" fill="#273D7A"/>
<path d="M85.4773 178.116H31.3613V182.3H85.4773V178.116Z" fill="#273D7A"/>
<path d="M85.4773 178.116H31.3613V180.235H85.4773V178.116Z" fill="#072359"/>
<path d="M28.3733 157.306V178.116H26.3087C24.3527 178.116 22.7227 176.54 22.7227 174.53V160.838C22.7227 158.882 24.2983 157.252 26.3087 157.252H28.3733V157.306Z" fill="#CDE0FC"/>
<path d="M93.0844 160.892V174.53C93.0844 176.486 91.5088 178.116 89.4984 178.116H88.3574V157.306H89.4984C91.5088 157.306 93.0844 158.882 93.0844 160.892Z" fill="#F0F5FC"/>
<path d="M93.0843 135.845V149.537C93.0843 151.493 91.5087 153.123 89.4983 153.123H26.3087C24.3527 153.123 22.7227 151.547 22.7227 149.537V135.845C22.7227 133.889 24.2983 132.259 26.3087 132.259H89.5527C91.5087 132.313 93.0843 133.889 93.0843 135.845Z" fill="#E1ECFF"/>
<path d="M33.2087 140.734C34.2289 140.734 35.056 139.907 35.056 138.887C35.056 137.867 34.2289 137.04 33.2087 137.04C32.1884 137.04 31.3613 137.867 31.3613 138.887C31.3613 139.907 32.1884 140.734 33.2087 140.734Z" fill="#FF8D76"/>
<path d="M39.7829 140.734C40.8031 140.734 41.6302 139.907 41.6302 138.887C41.6302 137.867 40.8031 137.04 39.7829 137.04C38.7626 137.04 37.9355 137.867 37.9355 138.887C37.9355 139.907 38.7626 140.734 39.7829 140.734Z" fill="#FF8D76"/>
<path d="M46.3024 140.734C47.3227 140.734 48.1497 139.907 48.1497 138.887C48.1497 137.867 47.3227 137.04 46.3024 137.04C45.2822 137.04 44.4551 137.867 44.4551 138.887C44.4551 139.907 45.2822 140.734 46.3024 140.734Z" fill="#273D7A"/>
<path d="M83.1949 143.343H67.0579C66.3516 143.343 65.7539 142.745 65.7539 142.039C65.7539 141.332 66.3516 140.734 67.0579 140.734H83.1949C83.9012 140.734 84.4989 141.332 84.4989 142.039C84.4989 142.745 83.9556 143.343 83.1949 143.343Z" fill="#273D7A"/>
<path d="M83.5214 144.755C85.0217 144.755 86.238 143.539 86.238 142.039C86.238 140.538 85.0217 139.322 83.5214 139.322C82.021 139.322 80.8047 140.538 80.8047 142.039C80.8047 143.539 82.021 144.755 83.5214 144.755Z" fill="#FF8D76"/>
<path d="M60.4854 153.123H30.9824L32.0691 150.46C32.6124 149.102 33.9164 148.233 35.3834 148.233H56.1388C57.6058 148.233 58.8554 149.102 59.4531 150.46L60.4854 153.123Z" fill="#273D7A"/>
<path d="M85.4773 153.122H31.3613V157.306H85.4773V153.122Z" fill="#273D7A"/>
<path d="M85.4773 153.122H31.3613V155.241H85.4773V153.122Z" fill="#072359"/>
<path d="M28.3733 132.313V153.123H26.3087C24.3527 153.123 22.7227 151.547 22.7227 149.537V135.845C22.7227 133.889 24.2983 132.259 26.3087 132.259H28.3733V132.313Z" fill="#CDE0FC"/>
<path d="M93.0844 135.845V149.537C93.0844 151.493 91.5088 153.123 89.4984 153.123H88.3574V132.313H89.4984C91.5088 132.313 93.0844 133.889 93.0844 135.845Z" fill="#F0F5FC"/>
<path d="M132.368 181.213V244.674C132.368 246.359 130.956 247.771 129.271 247.771H97.5951C95.8564 247.771 94.498 246.359 94.498 244.674V181.213C94.498 179.474 95.9107 178.116 97.5951 178.116H129.271C130.956 178.116 132.368 179.529 132.368 181.213Z" fill="#FF97C9"/>
<path d="M104.55 178.116V247.771H97.5951C95.8564 247.771 94.498 246.359 94.498 244.674V181.213C94.498 179.474 95.9107 178.116 97.5951 178.116H104.55Z" fill="#F774B9"/>
<path d="M98.7352 185.397H114.981C115.85 185.397 116.502 186.103 116.502 186.918V194.253C116.502 195.122 115.796 195.774 114.981 195.774H98.7352C97.8659 195.774 97.2139 195.068 97.2139 194.253V186.918C97.1595 186.049 97.8659 185.397 98.7352 185.397Z" fill="#5A7FDB"/>
<path d="M129.652 186.918V194.253C129.652 195.122 128.946 195.774 128.131 195.774H120.633C119.763 195.774 119.111 195.068 119.111 194.253V186.918C119.111 186.049 119.818 185.397 120.633 185.397H128.131C128.946 185.397 129.652 186.049 129.652 186.918Z" fill="#273D7A"/>
<path d="M117.916 242.447H108.896C108.244 242.447 107.701 241.903 107.701 241.251V227.396C107.701 226.744 108.244 226.201 108.896 226.201H117.916C118.568 226.201 119.111 226.744 119.111 227.396V241.251C119.111 241.903 118.568 242.447 117.916 242.447Z" fill="#273D7A"/>
<path d="M117.208 235.383H109.602C109.113 235.383 108.732 235.003 108.732 234.514V228.537C108.732 228.048 109.113 227.668 109.602 227.668H117.208C117.697 227.668 118.078 228.048 118.078 228.537V234.514C118.132 235.003 117.697 235.383 117.208 235.383Z" fill="#142966"/>
<path d="M117.1 240.98H109.71C109.167 240.98 108.732 240.545 108.732 240.002V237.448C108.732 236.905 109.167 236.47 109.71 236.47H117.1C117.643 236.47 118.078 236.905 118.078 237.448V240.002C118.132 240.545 117.643 240.98 117.1 240.98Z" fill="#142966"/>
<path d="M113.407 240.165C114.187 240.165 114.819 239.532 114.819 238.752C114.819 237.972 114.187 237.339 113.407 237.339C112.627 237.339 111.994 237.972 111.994 238.752C111.994 239.532 112.627 240.165 113.407 240.165Z" fill="#FEC272"/>
<path d="M129.653 200.393V220.17C129.653 221.094 128.947 221.854 128.023 221.854H98.7374C98.1941 221.854 97.6508 221.528 97.3791 221.094C97.2161 220.822 97.1074 220.496 97.1074 220.17V200.393C97.1074 199.469 97.8138 198.708 98.7374 198.708H128.023C128.784 198.708 129.436 199.252 129.599 200.012C129.653 200.175 129.653 200.284 129.653 200.393Z" fill="#273D7A"/>
<path d="M128.456 201.479V219.138C128.456 219.953 127.804 220.605 126.989 220.605H99.8772C99.3338 220.605 98.8992 220.333 98.6275 219.898C98.4645 219.681 98.4102 219.409 98.4102 219.083V201.425C98.4102 200.61 99.0622 199.958 99.8772 199.958H126.989C127.696 199.958 128.293 200.447 128.456 201.153C128.456 201.262 128.456 201.371 128.456 201.479Z" fill="#94ADEA"/>
<path d="M128.458 201.153L107.322 220.659H99.8786C99.3352 220.659 98.9006 220.387 98.6289 219.953L120.308 199.958H126.991C127.697 199.958 128.295 200.447 128.458 201.153Z" fill="#738DE0"/>
<path d="M128.457 208.271V216.964L124.491 220.659H115.037L128.457 208.271Z" fill="#738DE0"/>
<path d="M111.18 199.958L98.3574 211.803V203.055L101.726 199.958H111.18Z" fill="#738DE0"/>
<path d="M83.5213 131.335H52.334L52.8773 129.814L56.1917 120.849L59.1257 112.862L62.44 103.897L65.8087 94.6602C65.9173 94.2798 66.1347 94.0082 66.4063 93.7908C67.493 92.7585 69.449 93.0845 70.0466 94.6602L71.405 98.4092L73.4697 104.06L75.317 109.113L77.3816 114.763L79.229 119.816L81.2937 125.467L83.5213 131.335Z" fill="#FF8D76"/>
<path d="M73.469 104.06L64.015 109.874L59.125 112.862L62.385 103.951L65.156 102.267L71.4043 98.4092L73.469 104.06Z" fill="#273D7A"/>
<path d="M77.3813 114.709L61.842 124.272L52.877 129.814L56.1913 120.849L62.983 116.665L75.3166 109.058L77.3813 114.709Z" fill="#273D7A"/>
<path d="M81.3484 125.413L71.677 131.335H60.4844L60.8104 131.118L79.2837 119.762L81.3484 125.413Z" fill="#273D7A"/>
<path d="M66.4063 93.7908L60.81 131.335H52.334L52.8773 129.814L56.1917 120.849L59.1257 112.862L62.44 103.897L65.8087 94.6601C65.9717 94.3341 66.1347 94.0081 66.4063 93.7908Z" fill="#FF8D76"/>
<path d="M60.4844 131.335L60.8104 131.118V131.335H60.4844Z" fill="#FF8D76"/>
<path d="M62.983 116.665L61.842 124.272L52.877 129.814L56.1913 120.849L62.983 116.665Z" fill="#072359"/>
<path d="M65.156 102.267L64.015 109.874L59.125 112.862L62.385 103.951L65.156 102.267Z" fill="#072359"/>
<path d="M83.956 132.313H51.0844C50.1064 132.313 49.3457 131.498 49.3457 130.575V130.466C49.3457 129.488 50.1607 128.727 51.0844 128.727H83.956C84.934 128.727 85.6947 129.542 85.6947 130.466V130.575C85.6947 131.498 84.934 132.313 83.956 132.313Z" fill="#FF8D76"/>
<path d="M23.1579 126.662L15.9859 108.406L11.4219 110.851L22.6145 126.934L23.1579 126.662Z" fill="#FEC272"/>
<path d="M4.46776 108.406L0.121094 113.079L19.7898 129.379L20.6591 128.564L4.46776 108.406Z" fill="#FEC272"/>
<path d="M3.97784 120.577L1.47852 124.706L17.8328 131.933L18.2132 131.281L3.97784 120.577Z" fill="#FEC272"/>
<path d="M128.944 164.044L127.803 171.868C127.803 171.868 131.117 171.705 133.616 173.824C136.876 176.649 137.257 179.257 137.257 179.257L149.536 173.009C149.536 173.009 141.332 175.725 138.615 172.954C135.898 170.183 138.18 164.587 138.18 164.587C138.18 164.587 134.54 169.314 131.823 168.499C129.161 167.738 128.944 164.044 128.944 164.044Z" fill="#FEC272"/>
</g>
<defs>
<clipPath id="clip0_2679_13499">
<rect width="178" height="252" fill="white"/>
</clipPath>
</defs>
</svg>
