<svg width="12" height="12" viewBox="0 0 12 12" fill="none" xmlns="http://www.w3.org/2000/svg">
<path d="M6.25362 9.46686C6.09709 9.37473 5.90291 9.37473 5.74638 9.46686L3.24159 10.9412C2.8714 11.159 2.41691 10.8395 2.49666 10.4174L3.07025 7.38148C3.10139 7.21662 3.04778 7.04713 2.92749 6.93017L0.74647 4.80955C0.445775 4.51718 0.616974 4.00681 1.03315 3.95491L3.93805 3.59264C4.11285 3.57084 4.26328 3.45867 4.33405 3.29736L5.54213 0.543676C5.7171 0.144844 6.2829 0.144843 6.45787 0.543676L7.66595 3.29736C7.73672 3.45867 7.88715 3.57084 8.06195 3.59264L10.9669 3.95491C11.383 4.00681 11.5542 4.51718 11.2535 4.80955L9.07251 6.93017C8.95222 7.04713 8.89861 7.21662 8.92975 7.38148L9.50334 10.4174C9.58309 10.8395 9.1286 11.159 8.75841 10.9412L6.25362 9.46686Z" fill="#F4B208"/>
</svg>
