<svg width="80" height="80" viewBox="0 0 80 80" fill="none" xmlns="http://www.w3.org/2000/svg">
<path d="M50.8001 75.8334H29.2001C22.9001 75.8334 18.3001 73.2001 16.5334 68.6668C14.7001 63.9334 16.4001 58.0667 20.8001 54.1001L36.2667 40.0001L20.8001 25.9001C16.4001 21.9334 14.7001 16.0667 16.5334 11.3334C18.3001 6.76675 22.9001 4.16675 29.2001 4.16675H50.8001C57.1001 4.16675 61.7001 6.80008 63.4667 11.3334C65.3001 16.0667 63.6001 21.9334 59.2001 25.9001L43.7334 40.0001L59.2334 54.1001C63.6001 58.0667 65.3334 63.9334 63.5001 68.6668C61.7001 73.2001 57.1001 75.8334 50.8001 75.8334ZM40.0001 43.3667L24.1667 57.7668C21.3667 60.3334 20.1334 64.0667 21.2001 66.8334C22.2001 69.4001 25.0334 70.8334 29.2001 70.8334H50.8001C54.9667 70.8334 57.8001 69.4334 58.8001 66.8334C59.8667 64.0667 58.6667 60.3334 55.8334 57.7668L40.0001 43.3667ZM29.2001 9.16675C25.0334 9.16675 22.2001 10.5667 21.2001 13.1667C20.1334 15.9334 21.3334 19.6667 24.1667 22.2334L40.0001 36.6334L55.8334 22.2334C58.6334 19.6667 59.8667 15.9334 58.8001 13.1667C57.8001 10.6001 54.9667 9.16675 50.8001 9.16675H29.2001Z" fill="#FD9644"/>
</svg>
