<svg width="326" height="215" viewBox="0 0 326 215" fill="none" xmlns="http://www.w3.org/2000/svg">
<path d="M148.667 206.639C180.981 206.639 207.176 180.444 207.176 148.13C207.176 115.817 180.981 89.6212 148.667 89.6212C116.354 89.6212 90.1585 115.817 90.1585 148.13C90.1585 180.444 116.354 206.639 148.667 206.639Z" fill="#00B4D8"/>
<path d="M148.667 213.162C184.583 213.162 213.699 184.046 213.699 148.13C213.699 112.214 184.583 83.0983 148.667 83.0983C112.751 83.0983 83.6356 112.214 83.6356 148.13C83.6356 184.046 112.751 213.162 148.667 213.162Z" stroke="#00B4D8" stroke-width="3.13" stroke-miterlimit="10"/>
<mask id="mask0_2905_14192" style="mask-type:luminance" maskUnits="userSpaceOnUse" x="90" y="89" width="118" height="118">
<path d="M148.667 206.639C180.981 206.639 207.176 180.444 207.176 148.13C207.176 115.817 180.981 89.6212 148.667 89.6212C116.354 89.6212 90.1585 115.817 90.1585 148.13C90.1585 180.444 116.354 206.639 148.667 206.639Z" fill="white"/>
</mask>
<g mask="url(#mask0_2905_14192)">
<path d="M170.537 154.823C171.798 151.743 172.466 148.478 172.158 145.659C171.324 138.029 126.213 145.659 126.213 145.659C126.213 145.659 128.533 161.915 135.171 164.9C139.306 166.762 145.924 167.204 151.759 166.912C151.771 174.229 157.705 180.159 165.026 180.159C172.348 180.159 178.293 174.218 178.293 166.892C178.293 161.531 175.115 156.918 170.541 154.823H170.537Z" fill="#094370"/>
<path d="M169.323 135.89C167.619 135.456 167.188 136.306 167.022 137.658C165.916 126.956 158.286 118.67 149.035 118.67C139.784 118.67 132.087 127.027 131.032 137.796C130.881 136.365 130.478 135.444 128.715 135.89C127.114 136.298 126.201 138.768 126.73 141.658C127.26 144.544 129.004 146.647 130.628 146.347C130.945 146.288 131.182 146.161 131.36 145.979C132.451 152.407 135.53 157.653 140.816 160.251V174.483L149.015 205.081L157.246 174.483V160.187C162.429 157.57 165.556 152.364 166.682 145.991C166.86 146.169 167.094 146.292 167.406 146.347C169.031 146.643 170.774 144.544 171.304 141.658C171.834 138.772 170.92 136.302 169.319 135.89H169.323Z" fill="#FFC4B5"/>
<path d="M140.82 166.347C140.82 166.347 148.355 169.616 157.254 166.347L157.266 163.935L140.765 163.809L140.82 166.347Z" fill="#FAA89D"/>
<path d="M139.48 163.492C139.48 163.492 148.3 167.465 158.721 163.417C164.789 160.353 168.45 154.257 169.77 146.794C169.976 147.003 170.252 147.145 170.616 147.213C172.518 147.561 174.561 145.102 175.178 141.722C175.795 138.341 174.727 135.448 172.854 134.969C170.857 134.459 170.351 135.456 170.161 137.041C168.865 124.509 159.934 114.807 149.098 114.807C138.262 114.807 129.257 124.592 128.019 137.199C127.841 135.523 127.371 134.444 125.307 134.969C123.433 135.448 122.366 138.341 122.983 141.722C123.599 145.102 125.643 147.561 127.545 147.213C127.916 147.145 128.193 146.995 128.403 146.782C129.684 154.309 133.285 160.448 139.476 163.492" fill="#FFC4B5"/>
<path d="M128.019 137.203C128.019 137.203 141.883 125.157 147.533 124.39C147.533 124.39 167.351 133.349 170.201 136.764C170.201 136.764 164.322 128.885 164.271 128.601C164.22 128.316 149.082 120.228 149.082 120.228L135.246 126.28L128.581 134.321L128.019 137.207V137.203Z" fill="#FAA89D"/>
<path d="M140.82 164.113L142.378 164.714L142.52 174.202L148.565 204.231C148.565 204.231 153.004 178.167 157.254 174.483C157.254 174.483 162.579 181.065 162.607 181.172C162.634 181.278 151.715 208.082 151.715 208.082C151.715 208.082 143.825 210.181 143.172 206.781C142.52 203.381 138.27 183.832 138.27 181.851C138.27 179.871 140.82 174.486 140.82 174.486V164.117V164.113Z" fill="#FAA89D"/>
<path d="M157.317 172.735L149.367 195.123L146.616 230.517L150.964 288.077H191.758L182.749 237.095L186.291 240.064C187.394 240.341 188.774 238.961 188.774 237.581C188.774 229.354 192.482 201.622 190.043 186.109C189.513 182.729 187.165 179.918 183.935 178.8C176.083 176.08 163.097 171.11 157.317 172.739V172.735Z" fill="#DBF3F6"/>
<path d="M139.796 173.15L153.04 210.228V287.938H108.201L112.202 239.372L109.443 239.925C108.616 239.925 108.217 239.19 108.217 238.526C108.221 231.24 106.727 202.927 109.122 186.37C109.64 182.788 112.186 179.835 115.653 178.815C123.801 176.416 134.961 172.565 139.792 173.15H139.796Z" fill="white"/>
<path d="M128.956 174.775L126.553 175.42L132.206 195.641L145.726 207.232L159.246 207.508L166.971 196.471L171.264 174.613L168.778 173.767C168.778 173.767 160.634 182.433 160.634 183.045C160.634 183.658 155.625 193.696 155.625 193.696L152.138 195.787L142.413 195.945L134.036 186.327L128.956 174.775Z" fill="#C0E4E9"/>
<path d="M169.185 173.838L165.963 193.893H161.879L164.117 197.171L152.858 214.613L149.039 196.19L157.246 172.672C157.246 172.672 160.385 171.304 169.181 173.838H169.185Z" fill="white"/>
<path d="M128.43 174.913L132.506 192.462H136.582L134.435 195.854L153.735 209.157L140.962 172.933C140.962 172.933 136.353 172.735 128.434 174.913H128.43Z" fill="white"/>
<path d="M128.826 245.974L125.801 256.992L166.995 264.448L170.304 245.974L175.518 210.651L173.621 208.256C173.621 208.256 138.231 203.195 137.875 203.373C137.519 203.551 135.728 204.48 135.728 204.48L129.834 237.285L128.822 245.982L128.826 245.974Z" fill="#C0E4E9"/>
<path d="M174.676 207.825L137.115 201.667L128.256 255.707L165.817 261.864L174.676 207.825Z" fill="#0A285E"/>
<path d="M171.922 210.666L138.82 205.24L131.013 252.862L164.115 258.289L171.922 210.666Z" fill="url(#paint0_linear_2905_14192)"/>
<path d="M163.046 207.053L148.338 204.642L147.583 209.249L162.29 211.66L163.046 207.053Z" fill="#705236"/>
<path d="M168.786 219.258C169.114 219.258 173.684 218.605 173.684 218.605C173.684 218.605 183.804 201.954 184.456 201.626C185.109 201.298 196.862 200.321 197.19 200.974C197.518 201.626 196.538 202.606 189.026 204.239L186.089 205.219C186.089 205.219 196.644 205.144 197.245 205.998C197.846 206.852 198.277 207.825 197.245 207.667C196.214 207.508 188.05 208.161 188.05 208.161C188.05 208.161 195.233 208.773 196.538 209.446C197.842 210.118 198.87 210.446 197.866 211.098C196.862 211.75 193.466 211.098 193.466 211.098H188.576C188.576 211.098 194.905 212.403 195.229 213.383C195.557 214.363 192.944 213.711 191.311 213.711C189.679 213.711 187.722 213.383 187.722 213.383L186.417 214.363C186.417 214.363 184.132 219.914 179.562 222.527C174.992 225.14 172.379 226.117 172.379 226.117L168.79 219.262L168.786 219.258Z" fill="#FFC4B5"/>
<path d="M170.691 159.211C172.64 162.322 174.85 166.323 172.976 169.992C172.691 170.545 173.53 171.035 173.814 170.482C175.87 166.461 173.696 162.172 171.529 158.725C171.197 158.199 170.359 158.685 170.691 159.215V159.211Z" fill="#467293"/>
<path d="M165.105 164.485C166.378 165.552 166.766 167.394 166.299 168.956C166.082 169.683 165.599 170.442 164.769 170.506C163.884 170.573 163.156 169.976 162.761 169.233C162.223 168.221 162.267 167.019 162.334 165.908C162.369 165.283 161.401 165.287 161.365 165.908C161.294 167.141 161.306 168.395 161.836 169.537C162.31 170.557 163.227 171.34 164.366 171.462C166.817 171.731 167.655 168.829 167.402 166.904C167.248 165.718 166.722 164.58 165.793 163.801C165.319 163.402 164.627 164.086 165.109 164.485H165.105Z" fill="#467293"/>
<path d="M184.322 204.385C185.188 202.547 187.461 202.401 189.228 202.338C189.623 202.322 189.623 201.709 189.228 201.725C187.244 201.796 184.753 202.029 183.788 204.077C183.622 204.433 184.152 204.745 184.318 204.385H184.322Z" fill="#FAA89D"/>
<path d="M148.545 122.821C148.545 122.821 137.305 123.105 128.019 137.203C128.019 137.203 128.229 133.341 124.291 135.535C124.291 135.535 123.92 114.068 143.461 110.392C163.002 106.715 171.237 122.058 172.612 126.339C173.988 130.621 173.842 135.503 173.842 135.503C173.842 135.503 170.62 133.206 170.205 136.76C170.205 136.76 156.068 124.707 148.549 122.817L148.545 122.821Z" fill="#094370"/>
<path d="M142.994 118.322C137.242 121.164 132.305 125.525 128.751 130.866C128.403 131.388 129.245 131.874 129.589 131.356C133.056 126.15 137.879 121.931 143.485 119.16C144.042 118.883 143.552 118.049 142.994 118.322Z" fill="#467293"/>
<path d="M153.909 119.113C157.527 120.402 160.61 122.975 162.543 126.292C162.856 126.83 163.694 126.343 163.381 125.802C161.318 122.264 158.025 119.552 154.17 118.18C153.581 117.97 153.328 118.907 153.913 119.113H153.909Z" fill="#467293"/>
<path d="M163.769 119.832C166.346 122.062 168.086 125.205 168.525 128.597C168.604 129.205 169.572 129.213 169.493 128.597C169.019 124.952 167.24 121.556 164.453 119.148C163.982 118.741 163.294 119.425 163.769 119.832Z" fill="#467293"/>
<path d="M152.83 142.56C153.561 139.338 157.297 137.626 159.926 139.903C160.642 140.484 162.338 143.125 160.804 143.521C160.365 143.615 159.93 143.339 159.831 142.9C159.804 142.754 159.748 142.556 159.681 142.37C158.894 139.852 155.736 139.638 154.392 141.836C154.174 142.161 153.981 142.54 153.866 142.88C153.633 143.521 152.668 143.224 152.83 142.564V142.56Z" fill="black"/>
<path d="M158.823 139.812C159.25 139.441 159.697 139.48 160.108 139.113C160.405 138.895 160.701 138.547 160.938 138.247C161.073 138.112 161.199 137.721 161.436 137.867C161.587 138.033 161.401 138.282 161.377 138.48C161.108 139.247 160.583 139.947 159.812 140.279C159.499 140.425 159.12 140.496 158.764 140.239C158.598 140.109 158.677 139.923 158.823 139.816V139.812Z" fill="black"/>
<path d="M159.685 140.82C160.282 140.476 160.808 140.627 161.381 140.279C161.784 140.085 162.219 139.737 162.571 139.437C162.698 139.314 162.832 139.196 162.97 139.077C163.125 138.935 163.374 139.124 163.287 139.31C162.836 140.397 161.943 141.338 160.757 141.603C160.349 141.706 159.883 141.702 159.515 141.315C159.345 141.121 159.484 140.915 159.685 140.82Z" fill="black"/>
<path d="M143.081 142.836C142.84 142.176 142.386 141.457 141.84 140.998C140.816 140.097 139.045 140.073 138.096 141.038C137.622 141.504 137.27 142.228 137.132 142.876C136.898 143.924 135.353 143.623 135.53 142.564C135.653 142.01 135.827 141.591 136.08 141.113C137.313 138.654 140.765 138.116 142.702 140.049C143.216 140.468 144.872 142.927 143.741 143.22C143.449 143.295 143.16 143.117 143.081 142.836Z" fill="black"/>
<path d="M138.199 140.235C137.519 140.686 136.799 140.14 136.321 139.698C135.867 139.235 135.598 138.654 135.467 138.033C135.424 137.867 135.657 137.756 135.76 137.895C136.084 138.318 136.432 138.796 136.855 139.112C137.266 139.484 137.713 139.445 138.14 139.812C138.286 139.915 138.369 140.105 138.199 140.235Z" fill="black"/>
<path d="M137.444 141.314C136.732 142.01 135.752 141.524 135.076 141.101C134.594 140.773 134.21 140.31 133.914 139.816C133.838 139.587 133.479 139.227 133.775 139.045C133.846 139.014 133.929 139.029 133.985 139.077C134.467 139.508 134.997 139.998 135.574 140.279C136.147 140.626 136.673 140.476 137.27 140.82C137.472 140.915 137.61 141.117 137.44 141.314H137.444Z" fill="black"/>
<path d="M155.107 130.712C157.926 130.226 161.689 130.075 163.409 132.803C163.63 133.187 163.077 133.55 162.812 133.202C162.006 132.19 160.701 131.89 159.452 131.894C158.191 131.902 156.819 132.186 155.649 132.609C154.32 133.052 153.739 131.044 155.107 130.716V130.712Z" fill="#094370"/>
<path d="M141.864 132.052C139.634 131.324 136.456 130.637 134.708 132.657C134.439 132.997 133.898 132.625 134.119 132.249C135.839 129.526 139.602 129.672 142.421 130.158C143.793 130.502 143.208 132.502 141.864 132.048V132.052Z" fill="#094370"/>
<path d="M127.517 139.899C127.517 139.899 127.24 137.416 125.861 137.966C124.481 138.519 124.204 140.449 125.034 141.828C125.861 143.208 127.252 145.228 128.071 144.865L127.517 139.899Z" fill="#FAA89D"/>
<path d="M170.652 139.622C170.652 139.622 170.928 137.14 172.308 137.689C173.688 138.239 173.964 140.172 173.134 141.552C172.304 142.931 170.916 144.951 170.098 144.588L170.652 139.622Z" fill="#FAA89D"/>
<path d="M170.628 144.204C170.652 142.164 170.944 140.148 171.494 138.183C171.6 137.8 171.003 137.634 170.897 138.017C170.331 140.03 170.035 142.113 170.011 144.204C170.007 144.604 170.628 144.604 170.632 144.204H170.628Z" fill="#E1867D"/>
<path d="M128.335 144.335C128.249 142.323 128.007 140.326 127.098 138.504C126.92 138.148 126.383 138.46 126.56 138.816C127.418 140.536 127.632 142.437 127.715 144.335C127.731 144.734 128.351 144.734 128.335 144.335Z" fill="#E1867D"/>
<path d="M147.588 150.265C148.561 150.696 149.66 150.692 150.628 150.257C150.731 150.209 150.755 150.063 150.703 149.972C150.644 149.865 150.521 149.854 150.419 149.897C149.6 150.265 148.62 150.269 147.798 149.905C147.695 149.858 147.576 149.877 147.513 149.98C147.462 150.067 147.485 150.217 147.588 150.265Z" fill="#FAA89D"/>
<path d="M146.09 155.266C147.94 156.535 150.415 156.558 152.265 155.285C152.522 155.092 152.866 155.436 152.68 155.693C151.075 157.95 147.252 157.978 145.643 155.712C145.422 155.424 145.801 155.048 146.09 155.266Z" fill="#F16666"/>
<path d="M161.156 153.969C164.551 153.969 167.303 151.808 167.303 149.142C167.303 146.476 164.551 144.315 161.156 144.315C157.761 144.315 155.008 146.476 155.008 149.142C155.008 151.808 157.761 153.969 161.156 153.969Z" fill="url(#paint1_radial_2905_14192)"/>
<path d="M138.254 153.969C141.649 153.969 144.402 151.808 144.402 149.142C144.402 146.476 141.649 144.315 138.254 144.315C134.859 144.315 132.107 146.476 132.107 149.142C132.107 151.808 134.859 153.969 138.254 153.969Z" fill="url(#paint2_radial_2905_14192)"/>
<path d="M128.205 149.28C129.347 149.28 130.273 148.355 130.273 147.213C130.273 146.071 129.347 145.145 128.205 145.145C127.063 145.145 126.137 146.071 126.137 147.213C126.137 148.355 127.063 149.28 128.205 149.28Z" fill="white"/>
<path d="M170.703 149.28C171.845 149.28 172.771 148.355 172.771 147.213C172.771 146.071 171.845 145.145 170.703 145.145C169.561 145.145 168.635 146.071 168.635 147.213C168.635 148.355 169.561 149.28 170.703 149.28Z" fill="white"/>
<path d="M133.131 119.82C131.285 121.121 129.755 122.829 128.691 124.821C128.399 125.371 129.233 125.861 129.529 125.312C130.51 123.469 131.909 121.86 133.621 120.658C133.835 120.508 133.933 120.235 133.795 119.994C133.672 119.785 133.348 119.67 133.131 119.82Z" fill="#467293"/>
<path d="M140.958 172.819C140.634 173.317 140.199 173.388 139.784 173.736C137.887 175.218 136.056 176.989 134.712 178.978C132.68 182.322 131.368 186.098 130.842 189.976C130.719 190.936 130.617 191.937 130.613 192.866L129.383 192.897C129.371 191.826 129.45 190.826 129.593 189.806C130.411 183.761 133.178 177.752 138.163 174.068C138.776 173.601 139.429 173.17 140.136 172.854C140.369 172.743 140.65 172.664 140.954 172.819H140.958Z" fill="#064B5B"/>
<path d="M165.275 198.531C166.651 191.731 167.252 182.935 163.018 177.021C161.923 175.554 160.496 174.352 158.879 173.487C158.341 173.107 157.716 173.044 157.262 172.502C157.618 172.427 157.93 172.51 158.238 172.605C159.175 172.874 160.045 173.321 160.871 173.835C167.489 178.468 167.904 187.699 167.106 195.024C166.951 196.297 166.758 197.542 166.473 198.819L165.279 198.531H165.275Z" fill="#064B5B"/>
<path d="M165.536 203.18C167.457 203.18 169.015 201.622 169.015 199.701C169.015 197.779 167.457 196.222 165.536 196.222C163.615 196.222 162.057 197.779 162.057 199.701C162.057 201.622 163.615 203.18 165.536 203.18Z" fill="#ACB9BB"/>
<path d="M165.536 201.543C166.554 201.543 167.378 200.718 167.378 199.701C167.378 198.683 166.554 197.859 165.536 197.859C164.519 197.859 163.694 198.683 163.694 199.701C163.694 200.718 164.519 201.543 165.536 201.543Z" fill="#697070"/>
<path d="M118.962 201.986C118.962 201.986 116.203 206.951 117.029 209.711C117.855 212.47 120.014 212.822 120.014 212.822" stroke="#ACB9BB" stroke-width="2.79" stroke-miterlimit="10"/>
<path d="M131.206 208.098C131.206 208.098 134.692 192.605 128.897 192.881C123.101 193.158 118.962 201.986 118.962 201.986" stroke="#064B5B" stroke-width="4.89" stroke-miterlimit="10" stroke-linecap="round"/>
<path d="M126.122 124.339L135.238 123.461C135.238 123.461 154.309 120.872 166.006 123.461L172.324 125.062C172.324 125.062 171.221 111.843 168.208 108.889C165.196 105.932 154.467 101.726 145.505 102.331C136.543 102.936 128.569 108.233 128.071 110.491C127.426 113.424 126.122 124.339 126.122 124.339Z" fill="#DBF3F6"/>
<path d="M152.585 109.913H149.806V107.13H145.524V109.913H142.741V114.191H145.524V116.974H149.806V114.191H152.585V109.913Z" fill="#00B4D8"/>
</g>
<path d="M206.615 152.344L205.887 161.919C205.856 162.33 206.362 162.556 206.642 162.251L216.265 152.024C216.348 151.937 216.462 151.886 216.585 151.886H232.608C236.466 151.886 239.593 148.759 239.593 144.9V118.943C239.593 115.084 236.466 111.957 232.608 111.957H206.65C202.792 111.957 199.665 115.084 199.665 118.943V144.9C199.665 148.612 202.559 151.649 206.215 151.874C206.457 151.89 206.635 152.103 206.615 152.344Z" fill="white" stroke="#098292" stroke-width="3" stroke-miterlimit="10"/>
<path d="M317.011 107.411H212.114C211.924 107.411 211.742 107.486 211.612 107.625L189.612 130.277C189.149 130.755 188.343 130.38 188.41 129.716L190.604 108.186C190.647 107.771 190.323 107.411 189.904 107.411H176.016C172.158 107.411 169.031 104.284 169.031 100.426V34.1447C169.031 30.2862 172.158 27.1592 176.016 27.1592H317.015C320.873 27.1592 324 30.2862 324 34.1447V100.426C324 104.284 320.873 107.411 317.015 107.411H317.011Z" fill="white" stroke="#098292" stroke-width="3" stroke-miterlimit="10"/>
<path d="M85.545 105.237H80.6785C80.6785 105.237 80.6627 105.245 80.6627 105.253L78.8995 120.421C78.8995 120.421 78.8798 120.441 78.8719 120.433L64.0391 105.569C63.8296 105.359 63.5449 105.241 63.2484 105.241H8.98548C5.12706 105.241 2 102.114 2 98.2553V75.4606C2 71.6022 5.12706 68.4751 8.98548 68.4751H85.545C89.4035 68.4751 92.5305 71.6022 92.5305 75.4606V98.2553C92.5305 102.114 89.4035 105.241 85.545 105.241V105.237Z" fill="white" stroke="#098292" stroke-width="3" stroke-miterlimit="10"/>
<path d="M228.595 121.971C222.879 120.394 220.246 124.976 219.495 126.652C218.74 124.976 216.107 120.394 210.394 121.971C203.448 123.888 210.394 138.018 219.495 142.331C228.595 138.018 235.541 123.888 228.595 121.971Z" fill="#FA837F"/>
<path d="M16.8249 78.2753L19.1138 82.9125L24.2333 83.6597L20.5291 87.269L21.4028 92.3688L16.8249 89.9612L12.2469 92.3688L13.1206 87.269L9.41638 83.6597L14.5359 82.9125L16.8249 78.2753Z" fill="#F8EC80"/>
<path d="M35.8007 78.2753L38.0896 82.9125L43.2092 83.6597L39.5049 87.269L40.3786 92.3688L35.8007 89.9612L31.2228 92.3688L32.0964 87.269L28.3922 83.6597L33.5117 82.9125L35.8007 78.2753Z" fill="#F8EC80"/>
<path d="M55.1718 78.2753L57.4608 82.9125L62.5803 83.6597L58.8761 87.269L59.7498 92.3688L55.1718 89.9612L50.5939 92.3688L51.4676 87.269L47.7634 83.6597L52.8829 82.9125L55.1718 78.2753Z" fill="#F8EC80"/>
<path d="M74.543 78.2753L76.832 82.9125L81.9515 83.6597L78.2472 87.269L79.1209 92.3688L74.543 89.9612L69.9651 92.3688L70.8388 87.269L67.1345 83.6597L72.254 82.9125L74.543 78.2753Z" fill="#F8EC80"/>
<path d="M274.58 39.019H185.235V41.391H274.58V39.019Z" fill="#098292"/>
<path opacity="0.3" d="M274.58 52.0649H185.235V54.4369H274.58V52.0649Z" fill="#098292"/>
<path opacity="0.3" d="M274.58 65.1108H185.235V67.4828H274.58V65.1108Z" fill="#098292"/>
<path opacity="0.3" d="M274.58 78.1566H185.235V80.5286H274.58V78.1566Z" fill="#098292"/>
<path opacity="0.3" d="M224.768 92.7838H185.235V95.1558H224.768V92.7838Z" fill="#098292"/>
<path d="M300.276 78.1566C308.791 78.1566 315.694 71.2538 315.694 62.7388C315.694 54.2237 308.791 47.3209 300.276 47.3209C291.761 47.3209 284.858 54.2237 284.858 62.7388C284.858 71.2538 291.761 78.1566 300.276 78.1566Z" fill="#F8EC80"/>
<path d="M306.009 61.9481C306.991 61.9481 307.788 61.1516 307.788 60.1691C307.788 59.1866 306.991 58.3901 306.009 58.3901C305.026 58.3901 304.23 59.1866 304.23 60.1691C304.23 61.1516 305.026 61.9481 306.009 61.9481Z" fill="#094370"/>
<path d="M294.149 61.9481C295.131 61.9481 295.928 61.1516 295.928 60.1691C295.928 59.1866 295.131 58.3901 294.149 58.3901C293.166 58.3901 292.37 59.1866 292.37 60.1691C292.37 61.1516 293.166 61.9481 294.149 61.9481Z" fill="#094370"/>
<path d="M300.276 73.4127C303.988 73.4127 306.997 70.4043 306.997 66.6921H293.556C293.556 70.4043 296.564 73.4127 300.276 73.4127Z" fill="#094370"/>
<path d="M169.027 0L172.292 5.96948L178.258 9.23095L172.292 12.4964L169.027 18.4619L165.761 12.4964L159.796 9.23095L165.761 5.96948L169.027 0Z" fill="#00B4D8"/>
<path d="M152.423 25.1825L154.751 29.4402L159.005 31.7647L154.751 34.0932L152.423 38.347L150.094 34.0932L145.841 31.7647L150.094 29.4402L152.423 25.1825Z" fill="#00B4D8"/>
<path d="M236.628 177.78L238.957 182.037L243.21 184.362L238.957 186.691L236.628 190.944L234.3 186.691L230.046 184.362L234.3 182.037L236.628 177.78Z" fill="#00B4D8"/>
<path d="M216.466 188.849L218.004 191.664L220.815 193.198L218.004 194.735L216.466 197.546L214.929 194.735L212.118 193.198L214.929 191.664L216.466 188.849Z" fill="#00B4D8"/>
<path d="M229.908 162.757L231.445 165.572L234.256 167.106L231.445 168.644L229.908 171.454L228.37 168.644L225.559 167.106L228.37 165.572L229.908 162.757Z" fill="#00B4D8"/>
<path d="M62.6831 132.712L64.2209 135.527L67.0317 137.061L64.2209 138.599L62.6831 141.409L61.1453 138.599L58.3345 137.061L61.1453 135.527L62.6831 132.712Z" fill="#00B4D8"/>
<path d="M50.0325 118.48L52.8987 123.722L58.1368 126.585L52.8987 129.451L50.0325 134.689L47.1664 129.451L41.9283 126.585L47.1664 123.722L50.0325 118.48Z" fill="#00B4D8"/>
<defs>
<linearGradient id="paint0_linear_2905_14192" x1="151.475" y1="205.231" x2="151.475" y2="258.28" gradientUnits="userSpaceOnUse">
<stop stop-color="#FFF0EC"/>
<stop offset="1" stop-color="#ECD8CE"/>
</linearGradient>
<radialGradient id="paint1_radial_2905_14192" cx="0" cy="0" r="1" gradientUnits="userSpaceOnUse" gradientTransform="translate(161.156 149.142) scale(5.52671 5.52671)">
<stop stop-color="#FAA89D"/>
<stop offset="0.35" stop-color="#FCB3A6"/>
<stop offset="1" stop-color="#FFC4B5"/>
</radialGradient>
<radialGradient id="paint2_radial_2905_14192" cx="0" cy="0" r="1" gradientUnits="userSpaceOnUse" gradientTransform="translate(138.254 0.197543) scale(5.52671 5.52671)">
<stop stop-color="#FAA89D"/>
<stop offset="0.35" stop-color="#FCB3A6"/>
<stop offset="1" stop-color="#FFC4B5"/>
</radialGradient>
</defs>
</svg>
