<svg width="322" height="231" viewBox="0 0 322 231" fill="none" xmlns="http://www.w3.org/2000/svg">
<path d="M307.512 201.607H14.488C6.48648 201.607 0 208.093 0 216.095C0 224.096 6.48648 230.583 14.488 230.583H307.512C315.514 230.583 322 224.096 322 216.095C322 208.093 315.514 201.607 307.512 201.607Z" fill="#08A6BB"/>
<path d="M285.645 127.31C287.233 199.195 230.636 209.814 158.755 211.401C86.8747 212.989 26.9231 204.949 25.3356 133.064C23.744 61.1838 80.7286 1.61994 152.613 0.0323816C224.498 -1.55517 284.058 55.4294 285.645 127.31Z" fill="#00B4D8"/>
<path d="M207.979 37.5946L103.127 37.9972C95.5631 38.0263 89.4547 44.1818 89.4837 51.7459L90.0858 208.553C90.1149 216.118 96.2704 222.226 103.835 222.197L208.686 221.794C216.25 221.765 222.358 215.61 222.329 208.046L221.727 51.2381C221.698 43.674 215.543 37.5656 207.979 37.5946Z" fill="#0A285E"/>
<path d="M200.577 51.748L109.662 52.0971C105.03 52.1149 101.29 55.8841 101.308 60.5159L101.842 199.693C101.86 204.325 105.629 208.065 110.261 208.048L201.175 207.698C205.807 207.681 209.548 203.911 209.53 199.28L208.995 60.1024C208.978 55.4706 205.208 51.7302 200.577 51.748Z" fill="white"/>
<path d="M190.943 50.8137L190.894 38.2806C190.894 37.2604 190.062 36.436 189.041 36.4401L163.22 36.538L163.187 27.8085C163.175 24.5028 160.486 21.8337 157.18 21.846L153.009 21.8623C149.703 21.8746 147.034 24.564 147.051 27.8697L147.083 36.5992L121.181 36.6972C120.16 36.6972 119.336 37.5297 119.34 38.55L119.389 51.0831C119.389 52.1034 120.221 52.9278 121.242 52.9237L189.103 52.6666C190.123 52.6666 190.947 51.834 190.943 50.8137ZM153.572 31.8366C151.895 30.902 151.291 28.7839 152.226 27.1065C153.16 25.4292 155.278 24.8252 156.956 25.7598C158.633 26.6944 159.237 28.8125 158.302 30.4898C157.368 32.1671 155.25 32.7711 153.572 31.8366Z" fill="#C7C8C8"/>
<path d="M183.543 89.2012L130.293 89.4057C129.333 89.4094 128.557 90.1907 128.561 91.1509C128.565 92.1111 129.346 92.8864 130.306 92.8828L183.556 92.6783C184.516 92.6746 185.292 91.8932 185.288 90.9331C185.284 89.9729 184.503 89.1975 183.543 89.2012Z" fill="#45949A"/>
<path d="M186.807 100.665L113.56 100.946C112.599 100.95 111.824 101.731 111.828 102.691C111.831 103.651 112.613 104.427 113.573 104.423L186.82 104.142C187.78 104.138 188.556 103.357 188.552 102.397C188.548 101.437 187.767 100.661 186.807 100.665Z" fill="#C3ECF2"/>
<path d="M182.731 112.618L113.606 112.883C112.645 112.887 111.87 113.668 111.874 114.628C111.877 115.588 112.659 116.364 113.619 116.36L182.744 116.095C183.704 116.091 184.48 115.31 184.476 114.349C184.473 113.389 183.691 112.614 182.731 112.618Z" fill="#C3ECF2"/>
<path d="M188.174 124.028L135.985 124.228C135.142 124.232 134.461 124.917 134.465 125.76L134.466 126.185C134.469 127.028 135.155 127.709 135.998 127.705L188.187 127.505C189.03 127.502 189.711 126.816 189.708 125.973L189.706 125.548C189.703 124.705 189.017 124.025 188.174 124.028Z" fill="#C3ECF2"/>
<path d="M178.572 136.006L135.986 136.169C135.143 136.173 134.462 136.859 134.466 137.702L134.467 138.126C134.47 138.969 135.156 139.65 135.999 139.647L178.586 139.483C179.428 139.48 180.109 138.794 180.106 137.951L180.104 137.526C180.101 136.683 179.415 136.003 178.572 136.006Z" fill="#C3ECF2"/>
<path d="M196.602 148.658L136.157 148.89C135.314 148.893 134.633 149.579 134.637 150.422L134.638 150.846C134.642 151.689 135.328 152.37 136.171 152.367L196.615 152.135C197.458 152.131 198.139 151.445 198.136 150.602L198.134 150.178C198.131 149.335 197.445 148.654 196.602 148.658Z" fill="#C3ECF2"/>
<path d="M175.406 160.676L136.158 160.827C135.315 160.83 134.635 161.516 134.638 162.359L134.639 162.783C134.643 163.626 135.329 164.307 136.172 164.304L175.419 164.153C176.262 164.15 176.943 163.464 176.94 162.621L176.938 162.197C176.935 161.354 176.249 160.673 175.406 160.676Z" fill="#C3ECF2"/>
<path d="M196.389 173.826L136.115 174.058C135.272 174.061 134.591 174.747 134.595 175.59L134.596 176.014C134.599 176.857 135.285 177.538 136.128 177.535L196.402 177.304C197.245 177.3 197.926 176.614 197.922 175.771L197.921 175.347C197.918 174.504 197.232 173.823 196.389 173.826Z" fill="#C3ECF2"/>
<path d="M189.423 185.79L136.116 185.995C135.273 185.998 134.592 186.684 134.596 187.527L134.597 187.952C134.6 188.795 135.286 189.475 136.129 189.472L189.437 189.267C190.28 189.264 190.96 188.578 190.957 187.735L190.955 187.311C190.952 186.468 190.266 185.787 189.423 185.79Z" fill="#C3ECF2"/>
<path d="M126.719 123.453H112.027V138.146H126.719V123.453Z" fill="white" stroke="#098292" stroke-width="3" stroke-miterlimit="10"/>
<path d="M126.719 148.348H112.027V163.04H126.719V148.348Z" fill="white" stroke="#098292" stroke-width="3" stroke-miterlimit="10"/>
<path d="M126.719 174.467H112.027V189.159H126.719V174.467Z" fill="white" stroke="#098292" stroke-width="3" stroke-miterlimit="10"/>
<path d="M239.394 132.554L224.706 117.866C227.743 113.291 229.518 107.819 229.518 101.93C229.518 85.9806 216.54 73.0027 200.591 73.0027C184.642 73.0027 171.664 85.9806 171.664 101.93C171.664 117.879 184.642 130.857 200.591 130.857C206.476 130.857 211.953 129.081 216.528 126.045L231.216 140.733C233.472 142.994 237.141 142.994 239.394 140.733C241.655 138.472 241.655 134.811 239.394 132.554ZM180.344 101.934C180.344 90.7678 189.429 81.6832 200.595 81.6832C211.761 81.6832 220.845 90.7678 220.845 101.934C220.845 113.1 211.761 122.184 200.595 122.184C189.429 122.184 180.344 113.1 180.344 101.934Z" fill="#C7C8C8"/>
<path d="M115.451 130.391L120.393 135.901L130.179 123.045" stroke="#098292" stroke-width="4" stroke-miterlimit="10"/>
<path d="M115.451 154.47L120.393 159.979L130.179 147.124" stroke="#098292" stroke-width="4" stroke-miterlimit="10"/>
<path d="M115.451 180.589L120.393 186.099L130.179 173.243" stroke="#098292" stroke-width="4" stroke-miterlimit="10"/>
<path d="M254.727 174.52L245.908 168.076C245.385 167.693 245.075 167.084 245.075 166.436V161.395H225.453V166.436C225.453 167.084 225.143 167.697 224.62 168.076L215.801 174.52C214.234 175.663 213.312 177.487 213.312 179.426V216.193C213.312 219.466 215.964 222.122 219.242 222.122H251.295C254.568 222.122 257.225 219.47 257.225 216.193V179.426C257.225 177.487 256.298 175.663 254.735 174.52H254.727Z" fill="#C7C8C8"/>
<path d="M247.785 153.449H222.739C221.529 153.449 220.548 154.431 220.548 155.641V161.069C220.548 162.279 221.529 163.26 222.739 163.26H247.785C248.995 163.26 249.976 162.279 249.976 161.069V155.641C249.976 154.431 248.995 153.449 247.785 153.449Z" fill="#0A285E"/>
<path d="M224.869 153.449H223.47V163.26H224.869V153.449Z" fill="#C3ECF2"/>
<path d="M229.073 153.449H227.673V163.26H229.073V153.449Z" fill="#C3ECF2"/>
<path d="M233.742 153.449H232.342V163.26H233.742V153.449Z" fill="#C3ECF2"/>
<path d="M237.949 153.449H236.55V163.26H237.949V153.449Z" fill="#C3ECF2"/>
<path d="M242.618 153.449H241.218V163.26H242.618V153.449Z" fill="#C3ECF2"/>
<path d="M246.822 153.449H245.422V163.26H246.822V153.449Z" fill="#C3ECF2"/>
<path d="M251.964 183.813H218.797V214.176H251.964V183.813Z" fill="white"/>
<path d="M248.148 191.6H244.222V187.67H238.178V191.6H234.252V197.64H238.178V201.566H244.222V197.64H248.148V191.6Z" fill="#C3ECF2"/>
<path d="M256.576 210.303C251.854 211.626 249.103 216.527 250.425 221.245C251.748 225.963 256.649 228.717 261.367 227.395L256.576 210.303Z" fill="#00B4D8"/>
<path d="M256.576 210.303C261.297 208.981 266.195 211.732 267.517 216.454C268.839 221.175 266.089 226.073 261.367 227.395L256.576 210.303Z" fill="#FA837F"/>
<path d="M207.324 209.697L217.176 216.8L212.259 223.619C210.3 226.337 206.5 226.953 203.782 224.994C201.064 223.034 200.448 219.234 202.407 216.516L207.324 209.697Z" fill="#FA837F"/>
<path d="M217.19 216.795L207.338 209.692L212.255 202.872C214.214 200.154 218.014 199.538 220.732 201.498C223.45 203.457 224.066 207.257 222.107 209.975L217.19 216.795Z" fill="#00B4D8"/>
<path d="M155.49 83.2545C162.252 83.2545 167.734 77.773 167.734 71.0112C167.734 64.2494 162.252 58.7678 155.49 58.7678C148.729 58.7678 143.247 64.2494 143.247 71.0112C143.247 77.773 148.729 83.2545 155.49 83.2545Z" fill="#E1E1E1"/>
<path d="M159.674 66.1505C159.674 68.538 157.739 71.4356 155.352 71.4356C152.964 71.4356 151.03 68.538 151.03 66.1505C151.03 63.7631 152.964 61.8286 155.352 61.8286C157.739 61.8286 159.674 63.7631 159.674 66.1505Z" fill="#45949A"/>
<path d="M158.376 71.0723C157.547 71.966 156.494 72.5619 155.348 72.5619C154.201 72.5619 153.16 71.9701 152.332 71.0845C149.757 71.7905 146.871 73.1781 146.871 74.8228C146.871 77.2103 152.96 80.1895 155.348 80.1895C157.735 80.1895 164.106 77.2103 164.106 74.8228C164.106 73.17 161.049 71.7742 158.376 71.0723Z" fill="#45949A"/>
<path d="M91.0088 128.555H77.9493C75.2446 128.555 73.0519 130.747 73.0519 133.452V218.747C73.0519 221.452 75.2446 223.645 77.9493 223.645H91.0088C93.7136 223.645 95.9062 221.452 95.9062 218.747V133.452C95.9062 130.747 93.7136 128.555 91.0088 128.555Z" fill="#E1F3F6"/>
<path d="M81.8835 162.448V161.657L87.3277 162.722L83.3935 164.485L87.3277 166.26L81.8835 167.215V166.423L84.9362 165.909L81.6468 164.436L84.9443 162.979L81.8835 162.448Z" fill="#10919F"/>
<path d="M86.9522 171.08H86.2217V169.06H85.0137V171.019H84.2832V169.06H82.614V171.08H81.8835V168.284H86.9481V171.08H86.9522Z" fill="#10919F"/>
<path d="M86.9522 172.565V175.724H82.614V176.3H80.7449V175.569H81.8835V172.304H80.7449V171.574H82.614C82.6099 171.745 82.6712 171.904 82.8018 172.043C82.9323 172.186 83.0956 172.296 83.2996 172.378C83.6098 172.5 84.0506 172.561 84.6301 172.561H86.9522V172.565ZM86.2217 173.341H84.626C83.9934 173.341 83.52 173.284 83.2139 173.165C82.9813 173.076 82.7813 172.941 82.614 172.769V174.949H86.2217V173.337V173.341Z" fill="#10919F"/>
<path d="M81.9284 177.042C82.0182 176.953 82.1243 176.908 82.2508 176.908C82.3773 176.908 82.4834 176.953 82.5732 177.042C82.663 177.132 82.7079 177.238 82.7079 177.365C82.7079 177.491 82.663 177.597 82.5732 177.687C82.4834 177.777 82.3773 177.822 82.2508 177.822C82.1243 177.822 82.0182 177.777 81.9284 177.687C81.8386 177.597 81.7937 177.491 81.7937 177.365C81.7937 177.238 81.8386 177.132 81.9284 177.042Z" fill="#10919F"/>
<path d="M81.8835 184.209L83.1078 183.678V181.515L81.8835 180.96V180.124L87.2461 182.646L81.8835 185.045V184.209ZM83.8343 181.83V183.364L85.5524 182.613L83.8343 181.83Z" fill="#10919F"/>
<path d="M86.9522 186.458H84.977V188.629H86.9522V189.404H81.8876V188.629H84.2505V186.458H81.8876V185.682H86.9522V186.458Z" fill="#10919F"/>
<path d="M86.9522 191.396H84.9321L86.9522 193.355V194.371L84.6587 192.085L81.8876 194.387V193.355L84.1363 191.547L83.9853 191.396H81.8876V190.62H86.9522V191.396Z" fill="#10919F"/>
<path d="M86.9522 197.864H86.2217V195.844H85.0137V197.803H84.2832V195.844H82.614V197.864H81.8835V195.069H86.9481V197.864H86.9522Z" fill="#10919F"/>
<path d="M86.2217 201.435V200.272H81.8835V199.497H86.2217V198.334H86.9522V201.431H86.2217V201.435Z" fill="#10919F"/>
<path d="M81.8835 205.247L83.1078 204.716V202.553L81.8835 201.998V201.162L87.2461 203.684L81.8835 206.084V205.247ZM83.8343 202.868V204.402L85.5524 203.651L83.8343 202.868Z" fill="#10919F"/>
<path d="M95.9062 139.574H73.0519V145.287H95.9062V139.574Z" fill="#10919F"/>
<path d="M95.9062 147.328H73.0519V149.368H95.9062V147.328Z" fill="#10919F"/>
<path d="M81.472 106.372C81.9816 104.408 80.803 102.403 78.8395 101.894C76.876 101.384 74.8712 102.563 74.3616 104.526L45.0386 217.503C44.529 219.466 45.7076 221.471 47.6711 221.981C49.6346 222.49 51.6394 221.312 52.149 219.348L81.472 106.372Z" fill="#FA837F"/>
<path d="M64.6546 121.053L50.7616 117.447C47.8862 116.701 44.9502 118.427 44.2039 121.302L20.6595 212.015C19.9131 214.891 21.6391 217.827 24.5145 218.573L38.4075 222.179C41.2829 222.925 44.2189 221.199 44.9652 218.324L68.5097 127.611C69.256 124.735 67.53 121.799 64.6546 121.053Z" fill="#A5F3D5"/>
<path d="M66.8808 134.278L42.3893 127.922L39.7236 138.192L64.215 144.549L66.8808 134.278Z" fill="white"/>
<path d="M47.4008 209.337L22.9094 202.98L21.8841 206.931L46.3756 213.287L47.4008 209.337Z" fill="white"/>
<path d="M47.1776 150.752L47.3858 149.944L52.6626 152.47L48.1816 153.225L51.7281 156.082L45.9166 155.617L46.1247 154.809L49.3773 155.09L46.4104 152.715L50.1609 152.099L47.1776 150.744V150.752Z" fill="white"/>
<path d="M50.063 160.902L49.3202 160.71L49.8549 158.649L48.6224 158.331L48.1041 160.331L47.3613 160.139L47.8796 158.139L46.1737 157.698L45.6391 159.759L44.8963 159.567L45.635 156.715L50.8058 158.057L50.0671 160.91L50.063 160.902Z" fill="white"/>
<path d="M49.6712 162.42L48.8346 165.644L44.4066 164.497L44.2556 165.085L42.3497 164.591L42.5415 163.849L43.7046 164.151L44.5698 160.816L43.4067 160.514L43.5985 159.771L45.5044 160.265C45.4554 160.441 45.4758 160.616 45.5697 160.796C45.6635 160.975 45.8023 161.131 45.99 161.269C46.2716 161.473 46.7083 161.653 47.3001 161.808L49.6712 162.424V162.42ZM48.7203 163.016L47.0919 162.592C46.4471 162.424 45.9819 162.241 45.6962 162.041C45.484 161.886 45.3126 161.698 45.1901 161.477L44.6106 163.702L48.2918 164.657L48.7162 163.012L48.7203 163.016Z" fill="white"/>
<path d="M43.3577 165.661C43.472 165.591 43.5944 165.575 43.7209 165.612C43.8515 165.644 43.9495 165.718 44.0148 165.832C44.0801 165.946 44.1005 166.069 44.0638 166.195C44.027 166.322 43.9576 166.424 43.8434 166.489C43.7291 166.554 43.6067 166.575 43.4802 166.538C43.3496 166.505 43.2516 166.432 43.1863 166.318C43.121 166.203 43.1006 166.081 43.1373 165.954C43.17 165.824 43.2434 165.726 43.3577 165.661Z" fill="white"/>
<path d="M41.4151 172.962L42.8027 172.741L43.3782 170.533L42.2762 169.644L42.4966 168.791L47.3001 172.786L41.1907 173.815L41.4111 172.962H41.4151ZM44.0352 171.052L43.6271 172.619L45.5779 172.305L44.0311 171.052H44.0352Z" fill="white"/>
<path d="M45.9901 176.598L43.974 176.076L43.3986 178.292L45.4146 178.814L45.2106 179.606L40.0398 178.263L40.2439 177.471L42.6558 178.096L43.2312 175.88L40.8193 175.255L41.0233 174.464L46.1941 175.806L45.9901 176.598Z" fill="white"/>
<path d="M44.6841 181.638L42.6231 181.103L44.1658 183.638L43.8964 184.674L42.1619 181.732L38.7216 183.348L38.995 182.295L41.7702 181.046L41.6559 180.85L39.5174 180.295L39.7214 179.504L44.8922 180.846L44.6881 181.638H44.6841Z" fill="white"/>
<path d="M42.97 188.241L42.2272 188.05L42.7618 185.989L41.5293 185.67L41.011 187.67L40.2683 187.478L40.7866 185.479L39.0807 185.038L38.546 187.099L37.8033 186.907L38.542 184.054L43.7127 185.397L42.9741 188.25L42.97 188.241Z" fill="white"/>
<path d="M41.2804 191.694L41.5865 190.506L37.1585 189.36L37.3626 188.568L41.7906 189.715L42.0967 188.527L42.8394 188.719L42.0191 191.882L41.2764 191.69L41.2804 191.694Z" fill="white"/>
<path d="M35.8444 194.437L37.232 194.216L37.8033 192.008L36.7014 191.119L36.9218 190.266L41.7253 194.261L35.6158 195.289L35.8362 194.437H35.8444ZM38.4645 192.527L38.0564 194.094L40.0071 193.779L38.4604 192.527H38.4645Z" fill="white"/>
</svg>
