<svg width="322" height="322" viewBox="0 0 322 322" fill="none" xmlns="http://www.w3.org/2000/svg">
<path d="M64.722 170.66C60.5424 150.599 29.5853 108.45 56.994 78.568C61.4988 73.6543 95.956 41.86 154.56 53.774C201.958 63.4115 225.004 50.2674 234.738 55.384C282.494 80.4839 292.827 190.389 221.536 242.466C167.456 281.972 94.9835 275.275 62.468 228.942C51.4008 213.17 67.8164 185.517 64.722 170.66Z" fill="#00B4D8"/>
<path d="M238.763 143.29H83.559V83.8456C83.559 78.085 88.228 73.416 93.9886 73.416H194.52C198.336 73.416 201.849 75.5026 203.675 78.8514L220.151 109.071C220.963 110.562 222.367 111.637 224.019 112.037L236.129 114.96C237.671 115.334 238.76 116.715 238.76 118.303V143.287L238.763 143.29Z" fill="white"/>
<path d="M84.1934 133.63H109.963V149.086H89.6931C85.417 149.086 81.949 145.615 81.949 141.342V135.874C81.949 134.635 82.9537 133.63 84.1934 133.63Z" fill="#0A285E"/>
<path d="M212.037 133.63H237.807C239.046 133.63 240.051 134.635 240.051 135.874V141.342C240.051 145.618 236.58 149.086 232.307 149.086H212.037V133.63Z" fill="#0A285E"/>
<path d="M215.579 141.358H107.065V149.086H215.579V141.358Z" fill="#0A285E"/>
<path d="M229.332 149.086C229.39 148.448 229.425 147.804 229.425 147.154C229.425 135.771 220.2 126.546 208.817 126.546C197.434 126.546 188.209 135.771 188.209 147.154C188.209 147.804 188.244 148.448 188.302 149.086H229.332Z" fill="#094370"/>
<path d="M137.562 149.086C137.62 148.448 137.655 147.804 137.655 147.154C137.655 135.771 128.43 126.546 117.047 126.546C105.664 126.546 96.439 135.771 96.439 147.154C96.439 147.804 96.4744 148.448 96.5324 149.086H137.562Z" fill="#094370"/>
<path d="M117.047 165.186C125.939 165.186 133.147 157.978 133.147 149.086C133.147 140.194 125.939 132.986 117.047 132.986C108.155 132.986 100.947 140.194 100.947 149.086C100.947 157.978 108.155 165.186 117.047 165.186Z" fill="#0A285E"/>
<path d="M117.047 157.458C121.671 157.458 125.419 153.71 125.419 149.086C125.419 144.462 121.671 140.714 117.047 140.714C112.423 140.714 108.675 144.462 108.675 149.086C108.675 153.71 112.423 157.458 117.047 157.458Z" fill="white"/>
<path d="M209.783 165.186C218.675 165.186 225.883 157.978 225.883 149.086C225.883 140.194 218.675 132.986 209.783 132.986C200.891 132.986 193.683 140.194 193.683 149.086C193.683 157.978 200.891 165.186 209.783 165.186Z" fill="#0A285E"/>
<path d="M209.783 157.458C214.407 157.458 218.155 153.71 218.155 149.086C218.155 144.462 214.407 140.714 209.783 140.714C205.159 140.714 201.411 144.462 201.411 149.086C201.411 153.71 205.159 157.458 209.783 157.458Z" fill="white"/>
<path d="M134.841 92.5396H126.643V84.3414H114.033V92.5396H105.838V105.149H114.033V113.344H126.643V105.149H134.841V92.5396Z" fill="#FA837F"/>
<path d="M89.033 121.716H83.559V131.376H89.033V121.716Z" fill="#FA837F"/>
<path d="M175.168 63.1121C177.567 63.1121 179.515 65.0602 179.515 67.4591V73.4161H170.821V67.4591C170.821 65.0602 172.769 63.1121 175.168 63.1121Z" fill="#FA837F"/>
<path d="M175.329 81.7365V110.118C175.329 111.19 176.198 112.056 177.267 112.056H205.323C207.593 112.056 209.142 109.751 208.273 107.651C205.423 100.78 199.192 87.716 191.049 82.1293C189.813 81.2825 188.351 80.822 186.853 80.822H176.247C175.741 80.822 175.332 81.231 175.332 81.7365H175.329Z" fill="#C3ECF2"/>
<path d="M215.579 107.548C215.579 106.125 214.426 104.972 213.003 104.972C211.58 104.972 210.427 106.125 210.427 107.548V116.886C210.427 118.309 211.58 119.462 213.003 119.462C214.426 119.462 215.579 118.309 215.579 116.886V107.548Z" fill="#0A285E"/>
<path d="M238.763 121.716H230.713V129.766H238.763V121.716Z" fill="#F0C41D"/>
<g style="mix-blend-mode:multiply" opacity="0.48">
<path d="M238.441 245.042C247.955 245.042 255.668 237.329 255.668 227.815C255.668 218.301 247.955 210.588 238.441 210.588C228.927 210.588 221.214 218.301 221.214 227.815C221.214 237.329 228.927 245.042 238.441 245.042Z" fill="#00B4D8"/>
</g>
<g style="mix-blend-mode:multiply" opacity="0.48">
<path d="M240.212 51.198C242.88 51.198 245.042 49.0355 245.042 46.368C245.042 43.7004 242.88 41.538 240.212 41.538C237.544 41.538 235.382 43.7004 235.382 46.368C235.382 49.0355 237.544 51.198 240.212 51.198Z" fill="#00B4D8"/>
</g>
<g style="mix-blend-mode:multiply" opacity="0.48">
<path d="M76.958 56.028C79.6255 56.028 81.788 53.8656 81.788 51.198C81.788 48.5305 79.6255 46.368 76.958 46.368C74.2905 46.368 72.128 48.5305 72.128 51.198C72.128 53.8656 74.2905 56.028 76.958 56.028Z" fill="#00B4D8"/>
</g>
<g style="mix-blend-mode:multiply" opacity="0.48">
<path d="M107.226 63.434C116.651 63.434 124.292 55.7933 124.292 46.368C124.292 36.9427 116.651 29.302 107.226 29.302C97.8007 29.302 90.16 36.9427 90.16 46.368C90.16 55.7933 97.8007 63.434 107.226 63.434Z" fill="#00B4D8"/>
</g>
<g style="mix-blend-mode:multiply" opacity="0.48">
<path d="M48.783 181.93C54.3848 181.93 58.926 177.389 58.926 171.787C58.926 166.185 54.3848 161.644 48.783 161.644C43.1812 161.644 38.64 166.185 38.64 171.787C38.64 177.389 43.1812 181.93 48.783 181.93Z" fill="#00B4D8"/>
</g>
<mask id="mask0_2905_14698" style="mask-type:luminance" maskUnits="userSpaceOnUse" x="0" y="0" width="322" height="322">
<path d="M322 0H0V322H322V0Z" fill="white"/>
</mask>
<g mask="url(#mask0_2905_14698)">
<path d="M129.969 238.499L141.306 247.286L144.99 240.199L154.302 239.33C160.056 238.792 165.427 236.222 169.456 232.078L175.886 225.461L189.774 217.24L138.186 210.72L129.966 238.496L129.969 238.499Z" fill="#F4BE92"/>
<path d="M183.302 107.548H142.958C137.506 107.548 133.086 111.968 133.086 117.42V218.422C133.086 223.875 137.506 228.295 142.958 228.295H183.302C188.754 228.295 193.174 223.875 193.174 218.422V117.42C193.174 111.968 188.754 107.548 183.302 107.548Z" fill="black"/>
<path d="M181.833 109.197H144.993C139.825 109.197 135.636 113.386 135.636 118.554V217.17C135.636 222.337 139.825 226.527 144.993 226.527H181.833C187.001 226.527 191.191 222.337 191.191 217.17V118.554C191.191 113.386 187.001 109.197 181.833 109.197Z" fill="#DEFBFF"/>
<path d="M110.127 219.791L114.378 215.54C114.378 215.54 114.944 199.952 118.061 188.615L120.895 147.515H122.17C128.61 147.515 133.83 152.734 133.83 159.174V187.188L140.176 202.754C143.422 210.713 143.151 219.675 139.439 227.425L132.232 242.463L110.124 219.787L110.127 219.791Z" fill="#F8CDA9"/>
<path d="M194.439 149.141L187.736 153.703C185.058 155.526 184.364 159.175 186.187 161.854L186.602 162.464C188.425 165.142 192.075 165.836 194.753 164.013L201.456 159.451C204.135 157.627 204.828 153.978 203.005 151.299L202.59 150.69C200.767 148.011 197.118 147.318 194.439 149.141Z" fill="#F8CDA9"/>
<path d="M193.018 165.58L186.316 170.142C183.637 171.965 182.943 175.615 184.767 178.293L185.181 178.903C187.005 181.581 190.654 182.275 193.333 180.452L200.035 175.89C202.714 174.067 203.407 170.417 201.584 167.739L201.169 167.129C199.346 164.451 195.697 163.757 193.018 165.58Z" fill="#F8CDA9"/>
<path d="M193.017 195.911L186.315 200.473C183.636 202.296 182.943 205.946 184.766 208.624L185.181 209.234C187.004 211.912 190.653 212.606 193.332 210.783L200.034 206.221C202.713 204.398 203.406 200.748 201.583 198.07L201.168 197.46C199.345 194.782 195.696 194.088 193.017 195.911Z" fill="#F8CDA9"/>
<path d="M191.191 163.386C193.695 163.386 195.724 161.356 195.724 158.852C195.724 156.348 193.695 154.318 191.191 154.318C188.687 154.318 186.657 156.348 186.657 158.852C186.657 161.356 188.687 163.386 191.191 163.386Z" fill="#F8DFCC"/>
<path d="M189.774 179.824C192.278 179.824 194.308 177.794 194.308 175.29C194.308 172.786 192.278 170.756 189.774 170.756C187.27 170.756 185.24 172.786 185.24 175.29C185.24 177.794 187.27 179.824 189.774 179.824Z" fill="#F8DFCC"/>
<path d="M189.774 210.153C192.278 210.153 194.308 208.123 194.308 205.619C194.308 203.116 192.278 201.086 189.774 201.086C187.27 201.086 185.24 203.116 185.24 205.619C185.24 208.123 187.27 210.153 189.774 210.153Z" fill="#F8DFCC"/>
<path d="M122.315 149.781C121.758 149.781 121.223 149.881 120.721 150.055L120.038 159.973C120.724 160.34 121.494 160.552 122.315 160.552C125.113 160.552 127.383 158.14 127.383 155.168C127.383 152.196 125.113 149.785 122.315 149.785V149.781Z" fill="#F8DFCC"/>
<path d="M105.59 222.908L110.127 217.524L144.707 245.3L139.606 252.953L105.59 222.908Z" fill="white"/>
<path d="M15.4559 327.474L104.173 220.924L142.44 252.103L79.5146 330.05L15.4559 327.474Z" fill="#0A285E"/>
<path d="M133.118 244.507L64.6962 325.252L79.5146 330.05L142.44 252.103L133.118 244.507Z" fill="#082247"/>
<path d="M148.39 109.248V111.779C148.39 113.106 149.466 114.181 150.793 114.181H175.181C176.507 114.181 177.583 113.106 177.583 111.779V109.248H148.387H148.39Z" fill="black"/>
<path d="M176.147 124.839H149.55C146.093 124.839 143.29 127.642 143.29 131.099V163.647C143.29 167.104 146.093 169.906 149.55 169.906H176.147C179.604 169.906 182.407 167.104 182.407 163.647V131.099C182.407 127.642 179.604 124.839 176.147 124.839Z" fill="#08A6BB"/>
<mask id="mask1_2905_14698" style="mask-type:luminance" maskUnits="userSpaceOnUse" x="143" y="124" width="40" height="46">
<path d="M176.147 124.839H149.55C146.093 124.839 143.29 127.642 143.29 131.099V163.647C143.29 167.104 146.093 169.906 149.55 169.906H176.147C179.604 169.906 182.407 167.104 182.407 163.647V131.099C182.407 127.642 179.604 124.839 176.147 124.839Z" fill="white"/>
</mask>
<g mask="url(#mask1_2905_14698)">
<path d="M170.399 146.387C170.856 145.273 171.098 144.095 170.985 143.074C170.683 140.314 154.373 143.074 154.373 143.074C154.373 143.074 155.214 148.95 157.613 150.029C159.107 150.702 161.499 150.863 163.608 150.757C163.611 153.404 165.759 155.545 168.406 155.545C171.053 155.545 173.204 153.397 173.204 150.747C173.204 148.809 172.054 147.141 170.399 146.384V146.387Z" fill="#094370"/>
<path d="M169.961 139.542C169.346 139.384 169.188 139.693 169.13 140.179C168.731 136.309 165.972 133.314 162.626 133.314C159.28 133.314 156.498 136.334 156.118 140.227C156.064 139.709 155.919 139.377 155.281 139.538C154.702 139.686 154.373 140.578 154.563 141.622C154.753 142.665 155.384 143.425 155.974 143.319C156.089 143.296 156.173 143.251 156.238 143.187C156.634 145.511 157.745 147.408 159.657 148.345V153.491L162.623 164.551L165.598 153.491V148.323C167.472 147.376 168.602 145.492 169.008 143.19C169.072 143.254 169.156 143.299 169.269 143.319C169.855 143.425 170.486 142.668 170.679 141.622C170.869 140.578 170.541 139.683 169.961 139.538V139.542Z" fill="#FFC4B5"/>
<path d="M159.654 150.554C159.654 150.554 162.378 151.736 165.595 150.554V149.681L159.635 149.636L159.654 150.554Z" fill="#FAA89D"/>
<path d="M159.171 149.524C159.171 149.524 162.359 150.96 166.126 149.498C168.319 148.39 169.642 146.184 170.119 143.489C170.193 143.563 170.293 143.615 170.425 143.641C171.114 143.766 171.851 142.878 172.074 141.654C172.296 140.43 171.909 139.387 171.233 139.213C170.512 139.03 170.328 139.39 170.261 139.96C169.791 135.43 166.564 131.923 162.645 131.923C158.727 131.923 155.471 135.462 155.024 140.018C154.959 139.413 154.789 139.023 154.045 139.213C153.369 139.387 152.982 140.43 153.204 141.654C153.427 142.878 154.167 143.766 154.853 143.641C154.988 143.615 155.088 143.563 155.162 143.486C155.626 146.207 156.927 148.429 159.165 149.527" fill="#FFC4B5"/>
<path d="M155.027 140.018C155.027 140.018 160.04 135.665 162.082 135.385C162.082 135.385 169.246 138.624 170.277 139.857C170.277 139.857 168.152 137.007 168.132 136.904C168.113 136.801 162.642 133.878 162.642 133.878L157.638 136.064L155.23 138.972L155.027 140.015V140.018Z" fill="#FAA89D"/>
<path d="M159.654 149.746L160.217 149.962L160.269 153.391L162.452 164.249C162.452 164.249 164.056 154.827 165.595 153.494C165.595 153.494 167.52 155.874 167.53 155.912C167.54 155.951 163.592 165.64 163.592 165.64C163.592 165.64 160.739 166.4 160.504 165.17C160.269 163.94 158.733 156.872 158.733 156.157C158.733 155.442 159.654 153.494 159.654 153.494V149.746Z" fill="#FAA89D"/>
<path d="M165.621 152.863L162.745 160.958L161.75 173.754L163.322 194.565H178.069L174.814 176.134L176.095 177.206C176.495 177.306 176.994 176.807 176.994 176.308C176.994 173.332 178.333 163.308 177.451 157.699C177.258 156.479 176.411 155.461 175.242 155.056C172.405 154.073 167.707 152.277 165.621 152.866V152.863Z" fill="#DBF3F6"/>
<path d="M164.024 167.556L164.027 167.585L164.23 169.916H162.829L163.135 168.348L164.024 167.556Z" fill="#D0E0E4"/>
<path d="M159.287 153.014L164.075 166.419V194.513H147.866L149.311 176.955L148.313 177.154C148.014 177.154 147.869 176.887 147.872 176.649C147.872 174.015 147.334 163.779 148.2 157.793C148.387 156.498 149.308 155.429 150.561 155.062C153.507 154.196 157.542 152.802 159.29 153.014H159.287Z" fill="white"/>
<path d="M155.368 153.6L154.499 153.832L156.543 161.141L161.431 165.331L166.319 165.43L169.111 161.441L170.663 153.539L169.765 153.233C169.765 153.233 166.819 156.366 166.819 156.588C166.819 156.81 165.009 160.439 165.009 160.439L163.747 161.196L160.23 161.254L157.2 157.776L155.362 153.6H155.368Z" fill="#C0E4E9"/>
<path d="M169.91 153.262L168.744 160.513H167.269L168.078 161.698L164.007 168.003L162.626 161.341L165.592 152.84C165.592 152.84 166.728 152.344 169.906 153.262H169.91Z" fill="white"/>
<path d="M155.175 153.652L156.65 159.995H158.121L157.345 161.222L164.323 166.033L159.706 152.937C159.706 152.937 158.038 152.866 155.175 153.652Z" fill="white"/>
<path d="M177.696 166.522L175.541 165.971L173.207 168.454L168.75 171.41L163.289 173.625L162.98 172.611L149.321 176.968L149.247 177.56L163.505 174.334C163.505 174.334 171.149 172.16 172.499 171.487C172.499 171.487 174.611 171.613 175.796 169.913C175.995 169.626 177.493 169.626 177.493 169.626L177.696 166.525V166.522Z" fill="#C0E4E9"/>
<path d="M155.32 179.341L154.225 183.324L169.118 186.019L170.315 179.341L172.199 166.57L171.513 165.704C171.513 165.704 158.717 163.875 158.588 163.94C158.459 164.004 157.812 164.339 157.812 164.339L155.681 176.198L155.313 179.341H155.32Z" fill="#C0E4E9"/>
<path d="M171.891 165.554L158.31 163.328L155.106 182.867L168.687 185.093L171.891 165.554Z" fill="#0A285E"/>
<path d="M170.893 166.582L158.927 164.62L156.104 181.836L168.071 183.798L170.893 166.582Z" fill="url(#paint0_linear_2905_14698)"/>
<path d="M167.683 165.275L162.367 164.403L162.094 166.068L167.41 166.94L167.683 165.275Z" fill="#705236"/>
<path d="M169.631 168.481L159.479 166.817L159.391 167.35L169.544 169.015L169.631 168.481Z" fill="#0A285E"/>
<path d="M169.241 170.885L159.089 169.221L159.001 169.754L169.154 171.419L169.241 170.885Z" fill="#0A285E"/>
<path d="M168.72 169.534L160.001 168.104L159.913 168.638L168.633 170.067L168.72 169.534Z" fill="#0A285E"/>
<path d="M169.765 169.684C169.884 169.684 171.536 169.449 171.536 169.449C171.536 169.449 175.194 163.428 175.432 163.312C175.67 163.196 179.917 162.838 180.037 163.077C180.156 163.315 179.802 163.666 177.087 164.258L176.024 164.612C176.024 164.612 179.84 164.584 180.056 164.893C180.272 165.202 180.429 165.553 180.056 165.495C179.682 165.437 176.733 165.672 176.733 165.672C176.733 165.672 179.331 165.894 179.802 166.136C180.272 166.377 180.645 166.496 180.281 166.734C179.917 166.973 178.691 166.734 178.691 166.734H176.923C176.923 166.734 179.212 167.208 179.328 167.562C179.444 167.916 178.501 167.681 177.911 167.681C177.322 167.681 176.614 167.562 176.614 167.562L176.14 167.916C176.14 167.916 175.313 169.922 173.661 170.866C172.009 171.809 171.062 172.163 171.062 172.163L169.765 169.684Z" fill="#FFC4B5"/>
<path d="M148.361 177.106C148.361 177.106 165.588 174.614 172.917 172.022L171.455 168.464C171.455 168.464 156.704 169.726 154.042 171.133" fill="white"/>
<path d="M156.193 170.521C156.193 170.521 153.864 171.249 152.386 171.323C150.908 171.397 149.205 171.101 150.461 169.99C151.72 168.879 156.279 170.489 156.279 170.489" fill="#D0E0E4"/>
<path d="M156.279 170.489C156.279 170.489 155.838 167.984 155.246 167.391C154.657 166.802 148.989 165.266 148.87 165.855C148.751 166.445 153.001 167.746 153.001 167.746C153.001 167.746 149.273 167.758 149.07 168.106C148.867 168.454 152.293 168.808 152.293 168.808C152.293 168.808 149.579 168.927 149.579 169.397C149.579 169.868 153.237 170.106 153.237 170.106C153.237 170.106 150.522 170.225 150.522 170.814C150.522 171.403 155.304 170.869 156.276 170.489H156.279Z" fill="#FFC4B5"/>
<path d="M170.454 147.975C171.159 149.102 171.954 150.544 171.278 151.871C171.175 152.071 171.478 152.248 171.581 152.048C172.322 150.593 171.539 149.047 170.757 147.798C170.638 147.608 170.335 147.782 170.454 147.975Z" fill="#467293"/>
<path d="M168.435 149.881C168.895 150.267 169.034 150.934 168.867 151.498C168.789 151.762 168.612 152.035 168.313 152.058C167.991 152.084 167.73 151.865 167.588 151.597C167.395 151.23 167.411 150.799 167.434 150.396C167.446 150.171 167.096 150.171 167.083 150.396C167.057 150.844 167.06 151.295 167.253 151.707C167.424 152.074 167.756 152.357 168.168 152.402C169.053 152.499 169.356 151.449 169.266 150.754C169.211 150.325 169.018 149.913 168.683 149.633C168.512 149.488 168.261 149.736 168.435 149.881Z" fill="#467293"/>
<path d="M172.573 170.833C173.439 170.405 174.431 169.851 174.553 168.789C174.569 168.647 174.347 168.647 174.331 168.789C174.218 169.758 173.236 170.26 172.46 170.643C172.331 170.708 172.444 170.898 172.573 170.837V170.833Z" fill="#FAA89D"/>
<path d="M175.384 164.307C175.696 163.64 176.517 163.589 177.158 163.566C177.3 163.56 177.3 163.337 177.158 163.344C176.44 163.37 175.541 163.453 175.19 164.194C175.129 164.323 175.322 164.435 175.384 164.307Z" fill="#FAA89D"/>
<path d="M175.541 165.64C175.551 165.62 175.567 165.601 175.577 165.582C175.57 165.591 175.564 165.598 175.577 165.585C175.58 165.582 175.583 165.575 175.59 165.572C175.596 165.562 175.606 165.556 175.615 165.546C175.622 165.54 175.632 165.533 175.638 165.527C175.648 165.517 175.619 165.54 175.635 165.527C175.638 165.527 175.644 165.521 175.648 165.517C175.667 165.505 175.686 165.495 175.709 165.482C175.715 165.479 175.731 165.476 175.706 165.482C175.709 165.482 175.715 165.479 175.719 165.476C175.728 165.472 175.741 165.469 175.751 165.466C175.76 165.463 175.773 165.459 175.783 165.456C175.789 165.456 175.793 165.456 175.799 165.453C175.812 165.453 175.815 165.456 175.793 165.453C175.802 165.453 175.815 165.453 175.828 165.453C175.841 165.453 175.851 165.453 175.863 165.453C175.867 165.453 175.873 165.453 175.876 165.453C175.876 165.453 175.902 165.453 175.883 165.453C175.863 165.453 175.883 165.453 175.889 165.453C175.896 165.453 175.902 165.453 175.908 165.456C175.966 165.469 176.031 165.44 176.044 165.379C176.057 165.321 176.028 165.257 175.966 165.244C175.728 165.189 175.467 165.302 175.351 165.521C175.326 165.572 175.335 165.643 175.39 165.672C175.442 165.698 175.512 165.688 175.541 165.633V165.64Z" fill="#FAA89D"/>
<path d="M175.918 166.358C175.918 166.358 175.944 166.326 175.921 166.348C175.928 166.342 175.934 166.332 175.941 166.326C175.947 166.319 175.957 166.309 175.963 166.303C175.966 166.3 175.97 166.297 175.976 166.293C175.986 166.284 175.973 166.297 175.97 166.3C175.986 166.287 176.005 166.277 176.021 166.264C176.031 166.261 176.037 166.255 176.047 166.252C176.06 166.245 176.021 166.261 176.041 166.252C176.047 166.252 176.05 166.248 176.057 166.245C176.076 166.239 176.095 166.232 176.115 166.229C176.118 166.229 176.124 166.229 176.127 166.229C176.15 166.226 176.105 166.229 176.121 166.229C176.131 166.229 176.14 166.229 176.153 166.229C176.163 166.229 176.173 166.229 176.182 166.229C176.189 166.229 176.192 166.229 176.198 166.229C176.218 166.229 176.198 166.229 176.192 166.229C176.211 166.235 176.234 166.239 176.253 166.245C176.308 166.264 176.375 166.223 176.388 166.168C176.401 166.107 176.369 166.052 176.311 166.033C176.098 165.962 175.854 166.058 175.735 166.245C175.702 166.293 175.722 166.371 175.773 166.396C175.828 166.425 175.892 166.409 175.925 166.358H175.918Z" fill="#FAA89D"/>
<path d="M176.16 167.134C176.16 167.134 176.169 167.127 176.156 167.134C176.16 167.134 176.166 167.127 176.169 167.124C176.179 167.118 176.185 167.111 176.195 167.108C176.211 167.098 176.23 167.089 176.25 167.079C176.253 167.079 176.259 167.076 176.263 167.073C176.247 167.079 176.247 167.079 176.256 167.073C176.266 167.069 176.276 167.066 176.285 167.063C176.305 167.056 176.324 167.053 176.343 167.047C176.353 167.047 176.363 167.044 176.369 167.04C176.382 167.04 176.379 167.04 176.363 167.04C176.369 167.04 176.372 167.04 176.379 167.04C176.398 167.04 176.42 167.04 176.44 167.04C176.449 167.04 176.459 167.04 176.472 167.04C176.478 167.04 176.482 167.04 176.488 167.04C176.501 167.04 176.498 167.04 176.482 167.04C176.501 167.04 176.524 167.047 176.543 167.053C176.598 167.069 176.665 167.034 176.678 166.976C176.691 166.918 176.662 166.854 176.601 166.841C176.388 166.786 176.169 166.841 176.002 166.976C175.957 167.011 175.96 167.095 176.002 167.134C176.05 167.179 176.111 167.172 176.16 167.134Z" fill="#FAA89D"/>
<path d="M154.277 167.562C154.74 167.8 155.072 168.274 155.12 168.795C155.133 168.937 155.355 168.937 155.342 168.795C155.288 168.196 154.927 167.646 154.389 167.369C154.264 167.304 154.151 167.494 154.277 167.562Z" fill="#FAA89D"/>
<path d="M153.71 168.444C153.71 168.444 153.739 168.447 153.723 168.444C153.707 168.441 153.732 168.444 153.736 168.444C153.752 168.444 153.765 168.451 153.781 168.454C153.81 168.46 153.835 168.47 153.864 168.48C153.877 168.483 153.89 168.489 153.903 168.496C153.877 168.486 153.906 168.496 153.909 168.499C153.916 168.499 153.919 168.505 153.926 168.505C153.951 168.518 153.98 168.534 154.003 168.55C154.016 168.557 154.025 168.567 154.035 168.573C154.041 168.576 154.048 168.583 154.054 168.586C154.041 168.576 154.048 168.583 154.054 168.586C154.077 168.605 154.096 168.625 154.119 168.644C154.128 168.654 154.138 168.666 154.151 168.676C154.157 168.683 154.161 168.689 154.167 168.692C154.167 168.695 154.183 168.715 154.167 168.692C154.186 168.718 154.202 168.74 154.219 168.766C154.248 168.818 154.322 168.837 154.37 168.805C154.418 168.773 154.441 168.705 154.409 168.654C154.26 168.402 154 168.241 153.713 168.212C153.655 168.206 153.6 168.267 153.604 168.322C153.604 168.386 153.652 168.425 153.713 168.431L153.71 168.444Z" fill="#FAA89D"/>
<path d="M153.578 169.385C153.578 169.385 153.6 169.375 153.581 169.385C153.562 169.394 153.581 169.385 153.587 169.385C153.597 169.381 153.607 169.378 153.62 169.375C153.633 169.372 153.642 169.372 153.652 169.368C153.671 169.365 153.629 169.368 153.645 169.368C153.652 169.368 153.655 169.368 153.662 169.368C153.671 169.368 153.684 169.368 153.694 169.368C153.703 169.368 153.716 169.372 153.726 169.368C153.719 169.368 153.7 169.365 153.719 169.368C153.726 169.368 153.729 169.368 153.736 169.368C153.745 169.368 153.758 169.375 153.768 169.378C153.777 169.381 153.787 169.385 153.8 169.388C153.816 169.394 153.794 169.388 153.79 169.385C153.794 169.385 153.803 169.391 153.81 169.394C153.829 169.404 153.845 169.417 153.861 169.426C153.874 169.433 153.842 169.41 153.858 169.423C153.861 169.426 153.868 169.43 153.871 169.433C153.877 169.439 153.887 169.449 153.893 169.455C153.897 169.459 153.9 169.465 153.903 169.468C153.916 169.481 153.893 169.452 153.9 169.465C153.906 169.475 153.913 169.484 153.919 169.494C153.948 169.546 154.019 169.565 154.07 169.533C154.122 169.5 154.141 169.433 154.109 169.381C153.98 169.162 153.691 169.085 153.465 169.195C153.414 169.22 153.394 169.298 153.426 169.346C153.462 169.401 153.523 169.414 153.578 169.385Z" fill="#FAA89D"/>
<path d="M162.449 134.818C162.449 134.818 158.385 134.921 155.027 140.018C155.027 140.018 155.104 138.621 153.678 139.416C153.678 139.416 153.542 131.656 160.607 130.326C167.672 128.996 170.65 134.544 171.146 136.093C171.642 137.642 171.591 139.406 171.591 139.406C171.591 139.406 170.425 138.576 170.274 139.86C170.274 139.86 165.163 135.504 162.446 134.821L162.449 134.818Z" fill="#094370"/>
<path d="M160.44 133.192C158.36 134.222 156.579 135.797 155.291 137.726C155.165 137.912 155.468 138.089 155.594 137.903C156.849 136.019 158.591 134.499 160.617 133.494C160.82 133.395 160.643 133.092 160.44 133.192Z" fill="#467293"/>
<path d="M164.387 133.475C165.695 133.942 166.809 134.873 167.508 136.07C167.62 136.264 167.923 136.09 167.81 135.893C167.063 134.615 165.875 133.633 164.481 133.137C164.268 133.06 164.175 133.401 164.387 133.475Z" fill="#467293"/>
<path d="M167.952 133.736C168.886 134.541 169.514 135.678 169.671 136.904C169.7 137.123 170.051 137.127 170.022 136.904C169.852 135.587 169.208 134.361 168.2 133.488C168.029 133.34 167.781 133.588 167.952 133.736Z" fill="#467293"/>
<path d="M163.998 141.954C164.226 140.82 165.65 140.16 166.561 140.994C166.825 141.229 167.434 142.118 166.886 142.304C166.716 142.346 166.548 142.23 166.522 142.057C166.471 141.831 166.345 141.564 166.175 141.403C165.543 140.81 164.603 141.293 164.375 142.05C164.307 142.298 163.93 142.198 163.995 141.95L163.998 141.954Z" fill="black"/>
<path d="M166.165 140.962C166.245 140.884 166.323 140.865 166.403 140.839C166.574 140.778 166.712 140.649 166.835 140.511C166.912 140.453 167.009 140.199 167.108 140.257C167.173 140.347 167.057 140.533 167.021 140.633C166.873 140.917 166.497 141.322 166.142 141.113C166.081 141.071 166.113 140.994 166.165 140.959V140.962Z" fill="black"/>
<path d="M166.477 141.326C166.593 141.255 166.687 141.248 166.79 141.232C167.005 141.194 167.205 141.081 167.382 140.942C167.479 140.865 167.572 140.778 167.665 140.695C167.698 140.669 167.743 140.672 167.768 140.704C167.791 141.152 166.831 141.934 166.416 141.503C166.355 141.438 166.406 141.355 166.477 141.326Z" fill="black"/>
<path d="M160.472 142.053C160.092 140.897 158.604 140.791 158.324 142.056C158.257 142.456 157.664 142.349 157.745 141.95C157.973 140.73 159.419 140.166 160.337 141.045C160.533 141.222 161.116 142.053 160.713 142.192C160.607 142.221 160.501 142.156 160.472 142.053Z" fill="black"/>
<path d="M158.707 141.113C158.579 141.206 158.443 141.181 158.331 141.126C158.002 140.978 157.79 140.656 157.722 140.314C157.706 140.253 157.793 140.215 157.828 140.266C157.999 140.495 158.179 140.736 158.45 140.836C158.533 140.855 158.843 140.984 158.711 141.113H158.707Z" fill="black"/>
<path d="M158.437 141.503C157.957 141.908 157.236 141.232 157.075 140.778C157.043 140.711 157.133 140.643 157.188 140.694C157.442 140.926 157.719 141.174 158.063 141.232C158.176 141.242 158.302 141.268 158.418 141.351C158.469 141.384 158.479 141.458 158.437 141.503Z" fill="black"/>
<path d="M164.822 137.671C165.843 137.494 167.195 137.445 167.823 138.427C167.907 138.559 167.71 138.698 167.614 138.579C166.973 137.848 165.83 138.093 165.019 138.357C164.542 138.521 164.329 137.787 164.822 137.671Z" fill="#094370"/>
<path d="M160.034 138.154C159.223 137.89 158.083 137.648 157.445 138.376C157.4 138.431 157.316 138.437 157.262 138.392C157.213 138.35 157.2 138.279 157.233 138.225C157.377 137.986 157.593 137.79 157.841 137.658C158.588 137.288 159.432 137.33 160.237 137.471C160.43 137.51 160.556 137.7 160.514 137.893C160.472 138.109 160.237 138.234 160.034 138.154Z" fill="#094370"/>
<path d="M154.847 140.991C154.847 140.991 154.747 140.092 154.248 140.292C153.749 140.492 153.649 141.19 153.948 141.689C154.248 142.188 154.75 142.919 155.046 142.787L154.847 140.991Z" fill="#FAA89D"/>
<path d="M170.441 140.891C170.441 140.891 170.541 139.993 171.04 140.192C171.539 140.392 171.639 141.091 171.339 141.59C171.04 142.089 170.538 142.82 170.241 142.688L170.441 140.891Z" fill="#FAA89D"/>
<path d="M170.431 142.549C170.441 141.812 170.544 141.081 170.744 140.372C170.782 140.234 170.567 140.173 170.528 140.311C170.325 141.039 170.216 141.792 170.209 142.546C170.209 142.691 170.431 142.691 170.435 142.546L170.431 142.549Z" fill="#E1867D"/>
<path d="M155.143 142.594C155.111 141.866 155.024 141.145 154.695 140.485C154.631 140.356 154.438 140.469 154.502 140.598C154.811 141.219 154.888 141.908 154.921 142.594C154.927 142.739 155.152 142.739 155.146 142.594H155.143Z" fill="#E1867D"/>
<path d="M162.104 144.739C162.455 144.893 162.851 144.893 163.202 144.735C163.241 144.719 163.248 144.665 163.228 144.632C163.206 144.594 163.164 144.591 163.125 144.607C162.829 144.739 162.475 144.742 162.178 144.61C162.14 144.594 162.098 144.6 162.075 144.636C162.056 144.668 162.066 144.723 162.101 144.739H162.104Z" fill="#FAA89D"/>
<path d="M161.56 146.548C162.23 147.009 163.125 147.015 163.795 146.555C163.888 146.487 164.011 146.613 163.943 146.703C163.36 147.517 161.982 147.53 161.399 146.709C161.316 146.606 161.46 146.468 161.56 146.548Z" fill="#F16666"/>
<path d="M167.008 146.078C168.236 146.078 169.23 145.297 169.23 144.333C169.23 143.369 168.236 142.588 167.008 142.588C165.781 142.588 164.787 143.369 164.787 144.333C164.787 145.297 165.781 146.078 167.008 146.078Z" fill="url(#paint1_radial_2905_14698)"/>
<path d="M158.727 146.078C159.954 146.078 160.948 145.297 160.948 144.333C160.948 143.369 159.954 142.588 158.727 142.588C157.5 142.588 156.505 143.369 156.505 144.333C156.505 145.297 157.5 146.078 158.727 146.078Z" fill="url(#paint2_radial_2905_14698)"/>
<path d="M155.094 144.381C155.507 144.381 155.842 144.047 155.842 143.634C155.842 143.222 155.507 142.887 155.094 142.887C154.682 142.887 154.347 143.222 154.347 143.634C154.347 144.047 154.682 144.381 155.094 144.381Z" fill="white"/>
<path d="M170.46 144.381C170.873 144.381 171.207 144.047 171.207 143.634C171.207 143.222 170.873 142.887 170.46 142.887C170.048 142.887 169.713 143.222 169.713 143.634C169.713 144.047 170.048 144.381 170.46 144.381Z" fill="white"/>
<path d="M156.875 133.733C156.209 134.203 155.655 134.821 155.272 135.539C155.165 135.739 155.468 135.916 155.574 135.716C155.928 135.05 156.434 134.47 157.052 134.035C157.13 133.981 157.165 133.881 157.117 133.797C157.072 133.72 156.956 133.678 156.878 133.733H156.875Z" fill="#467293"/>
<path d="M159.706 152.892C159.641 152.995 159.577 153.037 159.499 153.078C158.975 153.407 158.537 153.858 158.105 154.299C156.682 155.861 156.054 158.069 155.967 160.14L155.523 160.153C155.561 157.577 156.601 154.917 158.698 153.346C158.92 153.178 159.155 153.024 159.409 152.908C159.493 152.866 159.596 152.843 159.706 152.895V152.892Z" fill="#064B5B"/>
<path d="M168.496 162.188C169.101 159.135 169.333 154.856 166.184 153.133C165.991 152.995 165.762 152.972 165.598 152.779C165.846 152.74 166.059 152.853 166.278 152.934C169.659 154.511 169.543 159.155 168.924 162.291L168.493 162.188H168.496Z" fill="#064B5B"/>
<path d="M168.59 163.872C169.285 163.872 169.849 163.308 169.849 162.613C169.849 161.918 169.285 161.354 168.59 161.354C167.894 161.354 167.33 161.918 167.33 162.613C167.33 163.308 167.894 163.872 168.59 163.872Z" fill="#ACB9BB"/>
<path d="M168.59 163.279C168.958 163.279 169.256 162.981 169.256 162.613C169.256 162.245 168.958 161.946 168.59 161.946C168.221 161.946 167.923 162.245 167.923 162.613C167.923 162.981 168.221 163.279 168.59 163.279Z" fill="#697070"/>
<path d="M151.752 163.437C151.752 163.437 150.754 165.234 151.053 166.229C151.353 167.224 152.132 167.353 152.132 167.353" stroke="#ACB9BB" stroke-width="1.24" stroke-miterlimit="10"/>
<path d="M156.189 165.559C156.189 165.559 155.652 167.543 154.744 168.048C153.832 168.554 153.185 168.103 153.185 168.103" stroke="#ACB9BB" stroke-width="1.24" stroke-miterlimit="10"/>
<path d="M156.18 165.649C156.18 165.649 157.439 160.047 155.346 160.146C153.253 160.246 151.755 163.437 151.755 163.437" stroke="#064B5B" stroke-width="2.17" stroke-miterlimit="10" stroke-linecap="round"/>
<path d="M153.779 168.304C153.912 168.074 153.862 167.797 153.668 167.685C153.474 167.573 153.209 167.668 153.076 167.898C152.944 168.127 152.994 168.404 153.188 168.516C153.382 168.628 153.647 168.533 153.779 168.304Z" fill="#2D2D2D"/>
<path d="M152.287 167.514C152.42 167.285 152.37 167.008 152.176 166.896C151.982 166.784 151.717 166.879 151.584 167.108C151.452 167.338 151.502 167.615 151.696 167.727C151.89 167.839 152.155 167.744 152.287 167.514Z" fill="#2D2D2D"/>
<path d="M154.341 135.365L157.638 135.046C157.638 135.046 164.532 134.109 168.763 135.046L171.046 135.626C171.046 135.626 170.647 130.848 169.559 129.779C168.47 128.709 164.59 127.19 161.351 127.409C158.112 127.628 155.227 129.543 155.049 130.358C154.814 131.417 154.344 135.365 154.344 135.365H154.341Z" fill="#DBF3F6"/>
<path d="M163.911 130.149H162.903V129.144H161.357V130.149H160.35V131.698H161.357V132.702H162.903V131.698H163.911V130.149Z" fill="#00B4D8"/>
</g>
<path d="M163.415 213.273C167.173 213.273 170.219 210.227 170.219 206.47C170.219 202.712 167.173 199.666 163.415 199.666C159.657 199.666 156.611 202.712 156.611 206.47C156.611 210.227 159.657 213.273 163.415 213.273Z" fill="#FA837F"/>
<path d="M159.873 207.629L159.96 207.677C160.16 207.793 160.491 207.803 160.697 207.7L161.46 207.32C161.666 207.217 161.85 206.943 161.863 206.714L161.885 206.296C162.887 205.793 164.081 205.864 165.019 206.473L164.996 206.891C164.983 207.12 165.134 207.413 165.328 207.539L166.042 208.002C166.236 208.128 166.567 208.157 166.78 208.063L166.87 208.025C167.083 207.935 167.266 207.671 167.279 207.442L167.314 206.814C167.321 206.701 167.208 206.498 167.208 206.498C166.281 205.436 164.964 204.789 163.553 204.708C162.146 204.628 160.768 205.117 159.728 206.064C159.722 206.07 159.583 206.26 159.577 206.373L159.541 207.001C159.528 207.229 159.68 207.513 159.883 207.629H159.873Z" fill="white"/>
<path d="M146.648 192.614C149.78 192.614 152.319 190.075 152.319 186.943C152.319 183.812 149.78 181.273 146.648 181.273C143.517 181.273 140.978 183.812 140.978 186.943C140.978 190.075 143.517 192.614 146.648 192.614Z" fill="#D6D6D6"/>
<path d="M147.656 186.537V185.323C147.65 184.654 147.103 184.113 146.433 184.119C146.03 184.119 145.654 184.325 145.431 184.663L147.615 186.853C147.643 186.75 147.656 186.647 147.656 186.541V186.537Z" fill="white"/>
<path d="M148.465 186.537C148.465 186.425 148.374 186.335 148.262 186.335C148.149 186.335 148.059 186.425 148.059 186.537C148.059 186.753 148.014 186.969 147.93 187.169L148.233 187.471C148.384 187.185 148.465 186.863 148.465 186.537Z" fill="white"/>
<path d="M149.215 189.027L148.017 187.829L147.721 187.533L147.431 187.243L145.254 185.066L144.359 184.171C144.279 184.09 144.15 184.09 144.072 184.171C143.995 184.251 143.992 184.38 144.072 184.457L145.228 185.613V186.541C145.228 187.211 145.773 187.755 146.442 187.755C146.694 187.755 146.938 187.677 147.144 187.533L147.434 187.822C146.729 188.37 145.711 188.241 145.164 187.536C144.945 187.252 144.826 186.905 144.826 186.544C144.826 186.431 144.736 186.341 144.623 186.341C144.51 186.341 144.42 186.431 144.42 186.544C144.42 187.584 145.206 188.453 146.243 188.556V189.374H145.435C145.322 189.374 145.232 189.465 145.232 189.577C145.232 189.69 145.322 189.78 145.435 189.78H147.457C147.569 189.78 147.66 189.69 147.66 189.577C147.66 189.465 147.569 189.374 147.457 189.374H146.648V188.556C147.045 188.518 147.418 188.363 147.727 188.112L148.941 189.326C149.018 189.407 149.147 189.407 149.228 189.326C149.308 189.249 149.308 189.12 149.228 189.039C149.228 189.039 149.221 189.033 149.218 189.03L149.215 189.027Z" fill="white"/>
<path d="M179.831 192.546C182.962 192.546 185.501 190.007 185.501 186.876C185.501 183.744 182.962 181.205 179.831 181.205C176.699 181.205 174.16 183.744 174.16 186.876C174.16 190.007 176.699 192.546 179.831 192.546Z" fill="#D6D6D6"/>
<path d="M180.532 187.742C180.426 187.742 180.339 187.655 180.339 187.549C180.339 187.497 180.359 187.449 180.394 187.414C180.69 187.117 180.69 186.637 180.394 186.338C180.32 186.261 180.323 186.142 180.397 186.068C180.471 185.997 180.59 185.997 180.665 186.068C181.109 186.515 181.109 187.236 180.665 187.684C180.629 187.719 180.581 187.739 180.529 187.739L180.532 187.742Z" fill="white"/>
<path d="M181.212 188.418C181.106 188.418 181.019 188.331 181.019 188.228C181.019 188.177 181.038 188.128 181.077 188.093C181.746 187.423 181.75 186.335 181.077 185.662C180.999 185.588 180.999 185.465 181.073 185.391C181.147 185.314 181.27 185.314 181.344 185.388C181.344 185.388 181.344 185.388 181.347 185.391C182.168 186.212 182.168 187.542 181.347 188.363C181.312 188.399 181.263 188.421 181.212 188.421V188.418Z" fill="white"/>
<path d="M181.785 188.991C181.679 188.991 181.592 188.904 181.592 188.798C181.592 188.747 181.611 188.698 181.647 188.663C182.635 187.674 182.635 186.074 181.647 185.085C181.569 185.011 181.569 184.889 181.643 184.815C181.717 184.738 181.84 184.738 181.914 184.812C181.914 184.812 181.914 184.812 181.917 184.815C183.054 185.952 183.054 187.797 181.917 188.933C181.882 188.969 181.833 188.988 181.782 188.988L181.785 188.991Z" fill="white"/>
<path d="M179.93 184.036C179.859 183.958 179.737 183.952 179.66 184.023L177.795 185.726H177.077C176.971 185.726 176.884 185.813 176.884 185.919V187.838C176.884 187.945 176.971 188.032 177.077 188.032H177.795L179.66 189.735C179.695 189.767 179.74 189.787 179.789 189.787C179.895 189.787 179.982 189.7 179.982 189.593V184.168C179.982 184.119 179.963 184.074 179.93 184.039V184.036Z" fill="white"/>
<path d="M193.018 180.323L186.315 184.885C183.637 186.708 182.943 190.358 184.766 193.036L185.181 193.646C187.004 196.325 190.654 197.018 193.332 195.195L200.035 190.633C202.714 188.81 203.407 185.16 201.584 182.482L201.169 181.872C199.346 179.194 195.697 178.5 193.018 180.323Z" fill="#F8CDA9"/>
<path d="M189.774 194.562C192.278 194.562 194.308 192.532 194.308 190.028C194.308 187.524 192.278 185.494 189.774 185.494C187.27 185.494 185.24 187.524 185.24 190.028C185.24 192.532 187.27 194.562 189.774 194.562Z" fill="#F8DFCC"/>
<path d="M163.132 192.582C166.263 192.582 168.802 190.043 168.802 186.911C168.802 183.779 166.263 181.241 163.132 181.241C160 181.241 157.461 183.779 157.461 186.911C157.461 190.043 160 192.582 163.132 192.582Z" fill="#D6D6D6"/>
<path d="M161.145 185.778C161.614 185.778 161.995 185.397 161.995 184.928C161.995 184.458 161.614 184.078 161.145 184.078C160.675 184.078 160.295 184.458 160.295 184.928C160.295 185.397 160.675 185.778 161.145 185.778Z" fill="white"/>
<path d="M163.132 185.778C163.601 185.778 163.982 185.397 163.982 184.928C163.982 184.458 163.601 184.078 163.132 184.078C162.662 184.078 162.282 184.458 162.282 184.928C162.282 185.397 162.662 185.778 163.132 185.778Z" fill="white"/>
<path d="M165.115 185.778C165.585 185.778 165.965 185.397 165.965 184.928C165.965 184.458 165.585 184.078 165.115 184.078C164.646 184.078 164.265 184.458 164.265 184.928C164.265 185.397 164.646 185.778 165.115 185.778Z" fill="white"/>
<path d="M161.145 187.761C161.614 187.761 161.995 187.381 161.995 186.911C161.995 186.442 161.614 186.061 161.145 186.061C160.675 186.061 160.295 186.442 160.295 186.911C160.295 187.381 160.675 187.761 161.145 187.761Z" fill="white"/>
<path d="M163.132 187.761C163.601 187.761 163.982 187.381 163.982 186.911C163.982 186.442 163.601 186.061 163.132 186.061C162.662 186.061 162.282 186.442 162.282 186.911C162.282 187.381 162.662 187.761 163.132 187.761Z" fill="white"/>
<path d="M165.115 187.761C165.585 187.761 165.965 187.381 165.965 186.911C165.965 186.442 165.585 186.061 165.115 186.061C164.646 186.061 164.265 186.442 164.265 186.911C164.265 187.381 164.646 187.761 165.115 187.761Z" fill="white"/>
<path d="M161.145 189.745C161.614 189.745 161.995 189.364 161.995 188.895C161.995 188.425 161.614 188.045 161.145 188.045C160.675 188.045 160.295 188.425 160.295 188.895C160.295 189.364 160.675 189.745 161.145 189.745Z" fill="white"/>
<path d="M163.132 189.745C163.601 189.745 163.982 189.364 163.982 188.895C163.982 188.425 163.601 188.045 163.132 188.045C162.662 188.045 162.282 188.425 162.282 188.895C162.282 189.364 162.662 189.745 163.132 189.745Z" fill="white"/>
<path d="M165.115 189.745C165.585 189.745 165.965 189.364 165.965 188.895C165.965 188.425 165.585 188.045 165.115 188.045C164.646 188.045 164.265 188.425 164.265 188.895C164.265 189.364 164.646 189.745 165.115 189.745Z" fill="white"/>
</g>
<defs>
<linearGradient id="paint0_linear_2905_14698" x1="163.507" y1="164.613" x2="163.507" y2="183.794" gradientUnits="userSpaceOnUse">
<stop stop-color="#FFF0EC"/>
<stop offset="1" stop-color="#ECD8CE"/>
</linearGradient>
<radialGradient id="paint1_radial_2905_14698" cx="0" cy="0" r="1" gradientUnits="userSpaceOnUse" gradientTransform="translate(167.008 144.333) scale(1.99962 1.99962)">
<stop stop-color="#FAA89D"/>
<stop offset="0.35" stop-color="#FCB3A6"/>
<stop offset="1" stop-color="#FFC4B5"/>
</radialGradient>
<radialGradient id="paint2_radial_2905_14698" cx="0" cy="0" r="1" gradientUnits="userSpaceOnUse" gradientTransform="translate(158.727 0.16078) scale(1.99962 1.99962)">
<stop stop-color="#FAA89D"/>
<stop offset="0.35" stop-color="#FCB3A6"/>
<stop offset="1" stop-color="#FFC4B5"/>
</radialGradient>
</defs>
</svg>
