<svg width="20" height="20" viewBox="0 0 20 20" fill="none" xmlns="http://www.w3.org/2000/svg">
<path d="M10.0007 10.625C7.35898 10.625 5.20898 8.47496 5.20898 5.83329C5.20898 3.19163 7.35898 1.04163 10.0007 1.04163C12.6423 1.04163 14.7923 3.19163 14.7923 5.83329C14.7923 8.47496 12.6423 10.625 10.0007 10.625ZM10.0007 2.29163C8.05065 2.29163 6.45898 3.88329 6.45898 5.83329C6.45898 7.78329 8.05065 9.37496 10.0007 9.37496C11.9507 9.37496 13.5423 7.78329 13.5423 5.83329C13.5423 3.88329 11.9507 2.29163 10.0007 2.29163Z" fill="#3E80FF"/>
<path d="M2.8418 18.9583C2.50013 18.9583 2.2168 18.675 2.2168 18.3333C2.2168 14.775 5.70846 11.875 10.0001 11.875C10.8418 11.875 11.6668 11.9834 12.4668 12.2084C12.8001 12.3 12.9918 12.6417 12.9001 12.975C12.8085 13.3083 12.4668 13.5 12.1335 13.4084C11.4501 13.2167 10.7335 13.125 10.0001 13.125C6.40013 13.125 3.4668 15.4583 3.4668 18.3333C3.4668 18.675 3.18346 18.9583 2.8418 18.9583Z" fill="#3E80FF"/>
<path d="M14.9993 18.9583C13.616 18.9583 12.316 18.225 11.616 17.0333C11.241 16.4333 11.041 15.725 11.041 15C11.041 13.7833 11.5827 12.6583 12.5243 11.9083C13.2243 11.3499 14.1077 11.0416 14.9993 11.0416C17.1827 11.0416 18.9577 12.8166 18.9577 15C18.9577 15.725 18.7577 16.4333 18.3827 17.0416C18.1743 17.3916 17.9077 17.7083 17.591 17.975C16.8993 18.6083 15.9743 18.9583 14.9993 18.9583ZM14.9993 12.2916C14.3827 12.2916 13.7994 12.4999 13.3077 12.8916C12.666 13.3999 12.291 14.175 12.291 15C12.291 15.4916 12.4244 15.9749 12.6827 16.3916C13.166 17.2083 14.0577 17.7083 14.9993 17.7083C15.6577 17.7083 16.291 17.4666 16.7744 17.0333C16.991 16.85 17.1743 16.6333 17.3077 16.4C17.5743 15.975 17.7077 15.4916 17.7077 15C17.7077 13.5083 16.491 12.2916 14.9993 12.2916Z" fill="#3E80FF"/>
<path d="M14.5241 16.45C14.3657 16.45 14.2074 16.3917 14.0824 16.2667L13.2574 15.4417C13.0158 15.2 13.0158 14.8 13.2574 14.5583C13.4991 14.3167 13.8991 14.3167 14.1408 14.5583L14.5408 14.9584L15.8741 13.725C16.1241 13.4917 16.5241 13.5084 16.7574 13.7584C16.9907 14.0084 16.9741 14.4084 16.7241 14.6417L14.9491 16.2833C14.8241 16.3917 14.6741 16.45 14.5241 16.45Z" fill="#3E80FF"/>
</svg>
