<svg width="24" height="24" viewBox="0 0 24 24" fill="none" xmlns="http://www.w3.org/2000/svg">
<path d="M12 13.75C11.59 13.75 11.25 13.41 11.25 13V7.75C11.25 7.34 11.59 7 12 7C12.41 7 12.75 7.34 12.75 7.75V13C12.75 13.41 12.41 13.75 12 13.75Z" fill="#EB5757"/>
<path d="M12 17.25C11.73 17.25 11.48 17.15 11.29 16.96C11.2 16.86 11.13 16.75 11.07 16.63C11.02 16.51 11 16.38 11 16.25C11 15.99 11.11 15.73 11.29 15.54C11.66 15.17 12.34 15.17 12.71 15.54C12.89 15.73 13 15.99 13 16.25C13 16.38 12.97 16.51 12.92 16.63C12.87 16.75 12.8 16.86 12.71 16.96C12.52 17.15 12.27 17.25 12 17.25Z" fill="#EB5757"/>
<path d="M10.3021 21.7982L10.3002 21.7971L4.3621 18.3682C4.36171 18.368 4.36132 18.3677 4.36093 18.3675C3.31333 17.7559 2.66016 16.6296 2.66016 15.4201V8.58011C2.66016 7.37047 3.31345 6.24414 4.36121 5.63252C4.36151 5.63235 4.36181 5.63217 4.3621 5.632L10.3002 2.20312L10.3021 2.20201C11.3458 1.5932 12.6441 1.59214 13.6998 2.20291L13.7002 2.20311L19.6383 5.632C19.6385 5.63216 19.6388 5.63231 19.6391 5.63247C20.6869 6.24408 21.3402 7.37044 21.3402 8.58011V15.4201C21.3402 16.6296 20.687 17.7559 19.6394 18.3676C19.639 18.3678 19.6386 18.368 19.6383 18.3682L13.7002 21.7971L13.6983 21.7982C13.1791 22.101 12.5869 22.2501 12.0002 22.2501C11.4135 22.2501 10.8213 22.101 10.3021 21.7982ZM10.5534 2.63526L10.5534 2.63525L10.5501 2.63711L4.61014 6.0671L4.60896 6.06779C3.7164 6.58644 3.16016 7.54031 3.16016 8.58011V15.4201C3.16016 16.4487 3.71539 17.4132 4.60896 17.9324L4.61014 17.9331L10.549 21.3624C10.5493 21.3626 10.5495 21.3627 10.5498 21.3629C11.4432 21.8816 12.5549 21.8836 13.4419 21.3621C13.4426 21.3617 13.4433 21.3613 13.444 21.3609L19.3802 17.9331L19.3814 17.9324C20.274 17.4138 20.8302 16.4599 20.8302 15.4201V8.58011C20.8302 7.55146 20.275 6.58702 19.3814 6.06778L19.3802 6.0671L13.4421 2.63822C13.4418 2.63803 13.4415 2.63785 13.4412 2.63767C13.0031 2.38237 12.4962 2.2501 12.0002 2.2501C11.5027 2.2501 10.9978 2.38301 10.5534 2.63526Z" fill="#EB5757" stroke="#EB5757"/>
</svg>
